<svg width="63" height="94" viewBox="0 0 63 94" fill="none" xmlns="http://www.w3.org/2000/svg">
    <g clip-path="url(#o2g0n5hrja)">
        <path d="M55.652 62.562c0-13.42-10.814-24.299-24.151-24.299v-9.365c3.897 0 7.56 1.008 10.745 2.779-5.327-8.997-10.745-15.94-10.745-15.94V5.01S59.423 40.78 59.423 62.812c0 15.515-12.5 28.093-27.922 28.093v-4.042c13.339 0 24.151-10.88 24.151-24.301z" fill="#C58940"/>
        <path d="M3.575 62.811c0-22.03 27.924-57.8 27.924-57.8v10.727s-5.42 6.944-10.745 15.94A22.08 22.08 0 0 1 31.499 28.9v9.366c-13.339 0-24.151 10.88-24.151 24.298 0 13.42 10.814 24.301 24.151 24.301v4.042c-15.423 0-27.924-12.577-27.924-28.095z" fill="#E5BA73"/>
        <path d="M9.58 84.864C15.434 90.754 23.22 94 31.5 94c8.281 0 16.064-3.245 21.918-9.136C59.275 78.972 62.5 71.14 62.5 62.81c0-9.706-4.846-22.745-14.402-38.754-7-11.727-13.89-20.585-14.179-20.956l-2.418-3.1-2.418 3.1c-.29.37-7.18 9.229-14.18 20.956C5.345 40.066.501 53.105.501 62.81c0 8.332 3.225 16.163 9.079 22.054l-.002-.001zm6.693-59.981c6.949-11.641 13.995-20.7 14.066-20.79l1.16-1.49 1.16 1.49c.071.09 7.12 9.149 14.067 20.79 4.092 6.857 7.355 13.26 9.7 19.039C59.396 51.236 60.9 57.59 60.9 62.809c0 7.902-3.058 15.33-8.612 20.916-5.552 5.59-12.934 8.666-20.786 8.666-7.852 0-15.236-3.076-20.79-8.664C5.159 78.14 2.099 70.71 2.099 62.81c0-5.217 1.506-11.573 4.474-18.887 2.346-5.778 5.607-12.184 9.7-19.04v-.001z" fill="#634E36"/>
        <path d="M31.5 82.248a.526.526 0 0 0-.526.528c0 .292.235.528.525.528.29 0 .525-.236.525-.528a.526.526 0 0 0-.525-.528zM33.814 82.644a.31.31 0 1 1 .615-.08.31.31 0 1 1-.615.08zM36.4 82.168a.312.312 0 0 1 .22-.383.312.312 0 0 1 .16.603.31.31 0 0 1-.38-.22zM38.903 81.357a.312.312 0 0 1 .167-.407.312.312 0 0 1 .237.576.309.309 0 0 1-.404-.169zM41.277 80.224a.31.31 0 1 1 .536-.313c.086.15.034.34-.113.427a.31.31 0 0 1-.423-.114zM43.485 78.788a.314.314 0 0 1 .057-.438.309.309 0 0 1 .435.058.313.313 0 0 1-.057.438.31.31 0 0 1-.435-.058zM45.334 77.229a.532.532 0 0 1 0-.747.524.524 0 0 1 .743 0 .532.532 0 0 1 0 .747.524.524 0 0 1-.743 0zM47.25 75.115a.313.313 0 0 1-.057-.438.312.312 0 1 1 .057.438zM48.743 72.939a.312.312 0 0 1 .311-.54.312.312 0 0 1-.31.54zM49.942 70.586a.312.312 0 0 1 .236-.576.312.312 0 0 1 .168.407.309.309 0 0 1-.404.17zM50.825 68.096a.312.312 0 0 1 .16-.603.312.312 0 0 1-.16.603zM51.377 65.51a.312.312 0 0 1 .08-.619.311.311 0 0 1-.08.618zM51.59 63.092a.526.526 0 0 1-.524-.528.526.526 0 1 1 1.05 0 .526.526 0 0 1-.525.528zM51.419 59.612a.31.31 0 0 0-.31.311.31.31 0 0 0 .31.311.31.31 0 0 0 0-.622zM50.986 57.633a.312.312 0 0 1-.16-.603.312.312 0 0 1 .16.603zM50.18 55.115a.312.312 0 0 1-.237-.576.312.312 0 0 1 .237.576zM49.054 52.726a.31.31 0 0 1-.424-.113.31.31 0 1 1 .536-.313.314.314 0 0 1-.112.426zM47.627 50.505a.309.309 0 0 1-.436-.058.313.313 0 0 1 .058-.438.31.31 0 0 1 .435.058.314.314 0 0 1-.057.438zM46.077 48.644a.524.524 0 0 1-.743 0 .532.532 0 0 1 0-.747.524.524 0 0 1 .743 0 .532.532 0 0 1 0 .747zM43.975 46.716a.312.312 0 1 1-.057-.438c.136.105.162.3.057.438zM41.813 45.214a.308.308 0 0 1-.424.113.312.312 0 0 1 .311-.54.312.312 0 0 1 .113.427zM39.475 44.008a.309.309 0 0 1-.405.17.312.312 0 0 1 .237-.577.312.312 0 0 1 .168.407zM37 43.12a.31.31 0 0 1-.38.22.312.312 0 0 1 .16-.603.312.312 0 0 1 .22.382zM34.121 42.21a.31.31 0 0 0-.309.312.31.31 0 0 0 .31.311c.17 0 .309-.14.309-.311a.31.31 0 0 0-.31-.311zM31.5 41.821a.526.526 0 0 0-.526.528c0 .292.235.528.525.528.29 0 .525-.236.525-.528a.526.526 0 0 0-.525-.528zM29.184 42.482a.31.31 0 1 1-.615.08.31.31 0 1 1 .615-.08zM26.6 42.958a.312.312 0 0 1-.22.382.312.312 0 0 1-.16-.603.31.31 0 0 1 .38.22zM24.098 43.768a.312.312 0 0 1-.168.407.312.312 0 0 1-.237-.576c.158-.065.34.01.405.17zM21.723 44.9a.31.31 0 1 1-.536.313.31.31 0 1 1 .536-.313zM19.515 46.337a.314.314 0 0 1-.057.438.31.31 0 0 1-.435-.057.314.314 0 0 1 .057-.438.31.31 0 0 1 .435.057zM17.666 47.897a.532.532 0 0 1 0 .747.524.524 0 0 1-.743 0 .532.532 0 0 1 0-.747.524.524 0 0 1 .743 0zM15.75 50.01c.135.106.162.3.057.439a.309.309 0 0 1-.435.057.313.313 0 0 1-.058-.438.309.309 0 0 1 .436-.057zM14.255 52.187a.312.312 0 0 1 .113.426.308.308 0 0 1-.424.113.312.312 0 0 1 .311-.54zM13.056 54.539a.312.312 0 0 1-.236.576.312.312 0 0 1-.168-.407.309.309 0 0 1 .405-.169zM12.175 57.03a.312.312 0 0 1-.16.602.312.312 0 0 1 .16-.602zM11.621 59.616a.312.312 0 0 1-.08.618.311.311 0 0 1 .08-.618zM11.41 62.034c.29 0 .524.236.524.528a.526.526 0 1 1-1.05 0c0-.292.235-.528.525-.528zM11.541 64.893a.31.31 0 0 1 .348.269.31.31 0 1 1-.615.08.311.311 0 0 1 .267-.349zM12.014 67.493a.312.312 0 0 1 .16.603.312.312 0 0 1-.16-.603zM12.82 70.01a.312.312 0 0 1 .237.576.309.309 0 0 1-.405-.169.312.312 0 0 1 .168-.407zM13.946 72.399a.31.31 0 0 1 .424.113.31.31 0 1 1-.536.313.314.314 0 0 1 .112-.426zM15.372 74.621a.309.309 0 0 1 .435.058.313.313 0 0 1-.057.438.31.31 0 0 1-.436-.058.314.314 0 0 1 .058-.438zM16.923 76.482a.524.524 0 0 1 .743 0 .532.532 0 0 1 0 .747.524.524 0 0 1-.743 0 .532.532 0 0 1 0-.747zM19.025 78.41a.309.309 0 0 1 .435-.058c.135.106.162.3.057.438a.309.309 0 0 1-.435.057.313.313 0 0 1-.057-.437zM21.187 79.911c.086-.15.275-.2.424-.113a.312.312 0 0 1-.311.54.312.312 0 0 1-.113-.427zM23.525 81.117a.309.309 0 0 1 .405-.169.312.312 0 0 1-.237.576.312.312 0 0 1-.168-.407zM26 82.006a.31.31 0 0 1 .38-.22.312.312 0 0 1-.16.602.312.312 0 0 1-.22-.382zM28.571 82.563a.311.311 0 0 1 .348-.269.311.311 0 0 1-.08.619.312.312 0 0 1-.268-.35z" fill="#634E36"/>
        <path d="M31.501 85.376c12.503 0 22.676-10.235 22.676-22.815 0-12.579-10.173-22.814-22.676-22.814-12.503 0-22.676 10.235-22.676 22.815 0 12.58 10.173 22.814 22.676 22.814zm0-44.06c11.644 0 21.116 9.532 21.116 21.245 0 11.714-9.472 21.248-21.116 21.248s-21.118-9.53-21.118-21.247c0-11.718 9.472-21.246 21.118-21.246z" fill="#634E36"/>
        <path d="M26.054 62.112v.85L31.5 66.18l5.445-3.195v-.853L31.5 65.327l-5.445-3.215z" fill="#C58940"/>
        <path d="m31.5 66.936-5.446-3.217v2.007l5.445 3.165 5.447-3.165V63.74L31.5 66.936z" fill="#131212"/>
        <path d="m31.501 64.572 5.445-3.196V59.4L31.5 56.234 26.054 59.4v1.956l5.447 3.217z" fill="#131212"/>
        <path d="m23.382 60.044-9.59 2.52 9.59 2.52c.256.829.634 1.606 1.113 2.307l-3.127 5.367 5.335-3.145a8.467 8.467 0 0 0 2.294 1.12l2.504 9.649 2.504-9.65a8.411 8.411 0 0 0 2.294-1.119l5.335 3.145-3.127-5.367c.48-.7.857-1.476 1.113-2.308l9.59-2.52-9.59-2.519a8.51 8.51 0 0 0-1.113-2.308l3.127-5.367-5.335 3.146a8.44 8.44 0 0 0-2.294-1.12l-2.504-9.65-2.504 9.65a8.386 8.386 0 0 0-2.294 1.12l-5.335-3.146 3.127 5.367a8.539 8.539 0 0 0-1.113 2.309zm-.212 4.2-6.396-1.68 6.396-1.68a8.56 8.56 0 0 0 0 3.36zm16.66-3.36 6.396 1.68-6.396 1.68a8.574 8.574 0 0 0 0-3.36zm-16.353 9.75 1.51-2.592c.323.388.68.75 1.067 1.074l-2.577 1.519zm8.024 6.745-1.67-6.435a8.404 8.404 0 0 0 3.34 0l-1.67 6.435zm8.022-6.744-2.575-1.52a8.553 8.553 0 0 0 1.067-1.073l1.508 2.593zm0-16.142-1.508 2.59a8.824 8.824 0 0 0-1.067-1.073l2.575-1.517zM31.5 47.749l1.67 6.435a8.39 8.39 0 0 0-3.34 0l1.67-6.435zm0 7c4.283 0 7.768 3.504 7.768 7.815 0 4.31-3.485 7.815-7.768 7.815-4.283 0-7.768-3.506-7.768-7.815 0-4.31 3.485-7.816 7.768-7.816zm-8.024-.256 2.577 1.517a8.704 8.704 0 0 0-1.067 1.074l-1.51-2.591z" fill="#634E36"/>
    </g>
    <defs>
        <clipPath id="o2g0n5hrja">
            <path fill="#fff" transform="rotate(180 31.25 47)" d="M0 0h62v94H0z"/>
        </clipPath>
    </defs>
</svg>
