<svg width="22" height="23" viewBox="0 0 22 23" fill="none" xmlns="http://www.w3.org/2000/svg">
    <path d="M20.591 8.134a9.615 9.615 0 0 0-2.065-3.08 9.52 9.52 0 0 0-3.072-2.068 9.537 9.537 0 0 0-3.72-.748h-.044a9.561 9.561 0 0 0-6.785 2.845 9.56 9.56 0 0 0-2.04 3.068 9.665 9.665 0 0 0-.735 3.757 9.681 9.681 0 0 0 1.029 4.295v3.266c0 .546.442.988.986.988h3.261a9.619 9.619 0 0 0 4.286 1.031h.045c1.285 0 2.53-.249 3.702-.737a9.523 9.523 0 0 0 3.062-2.045 9.555 9.555 0 0 0 2.069-3.05 9.64 9.64 0 0 0 .769-3.75 9.664 9.664 0 0 0-.748-3.772zm-13.146 4.76a1.031 1.031 0 0 1 0-2.062 1.031 1.031 0 0 1 0 2.063zm4.288 0a1.031 1.031 0 0 1 0-2.062 1.031 1.031 0 0 1 0 2.063zm4.288 0a1.031 1.031 0 0 1 0-2.062 1.031 1.031 0 0 1 0 2.063z" fill="#FAF8F1"/>
</svg>
