<svg width="36" height="36" viewBox="0 0 36 36" fill="none" xmlns="http://www.w3.org/2000/svg">
    <path d="M25.125 5.34V3c0-.615-.51-1.125-1.125-1.125s-1.125.51-1.125 1.125v2.25h-9.75V3c0-.615-.51-1.125-1.125-1.125s-1.125.51-1.125 1.125v2.34c-4.05.375-6.015 2.79-6.315 6.375-.03.435.33.795.75.795h25.38c.435 0 .795-.375.75-.795-.3-3.585-2.265-6-6.315-6.375zM30 14.76H6c-.825 0-1.5.675-1.5 1.5v9.24C4.5 30 6.75 33 12 33h12c5.25 0 7.5-3 7.5-7.5v-9.24c0-.825-.675-1.5-1.5-1.5zM13.815 27.315c-.075.06-.15.135-.225.18-.09.06-.18.105-.27.135a.953.953 0 0 1-.27.09c-.105.015-.195.03-.3.03-.195 0-.39-.045-.57-.12a1.548 1.548 0 0 1-.495-.315 1.577 1.577 0 0 1-.435-1.065c0-.39.165-.78.435-1.065.15-.135.3-.24.495-.315.27-.12.57-.15.87-.09.09.015.18.045.27.09.09.03.18.075.27.135l.225.18c.27.285.435.675.435 1.065 0 .39-.165.78-.435 1.065zm0-5.25c-.285.27-.675.435-1.065.435-.39 0-.78-.165-1.065-.435A1.577 1.577 0 0 1 11.25 21c0-.39.165-.78.435-1.065.42-.42 1.08-.555 1.635-.315.195.075.36.18.495.315.27.285.435.675.435 1.065 0 .39-.165.78-.435 1.065zm5.25 5.25c-.285.27-.675.435-1.065.435-.39 0-.78-.165-1.065-.435a1.577 1.577 0 0 1-.435-1.065c0-.39.165-.78.435-1.065.555-.555 1.575-.555 2.13 0 .27.285.435.675.435 1.065 0 .39-.165.78-.435 1.065zm0-5.25-.225.18c-.09.06-.18.105-.27.135a.953.953 0 0 1-.27.09c-.105.015-.195.03-.3.03-.39 0-.78-.165-1.065-.435A1.577 1.577 0 0 1 16.5 21c0-.39.165-.78.435-1.065a1.4 1.4 0 0 1 .495-.315 1.498 1.498 0 0 1 1.635.315c.27.285.435.675.435 1.065 0 .39-.165.78-.435 1.065zm5.25 5.25c-.285.27-.675.435-1.065.435-.39 0-.78-.165-1.065-.435a1.577 1.577 0 0 1-.435-1.065c0-.39.165-.78.435-1.065.555-.555 1.575-.555 2.13 0 .27.285.435.675.435 1.065 0 .39-.165.78-.435 1.065zm0-5.25-.225.18c-.09.06-.18.105-.27.135a.953.953 0 0 1-.27.09c-.105.015-.21.03-.3.03-.39 0-.78-.165-1.065-.435A1.577 1.577 0 0 1 21.75 21c0-.39.165-.78.435-1.065.15-.135.3-.24.495-.315.27-.12.57-.15.87-.09.09.015.18.045.27.09.09.03.18.075.27.135l.225.18c.27.285.435.675.435 1.065 0 .39-.165.78-.435 1.065z" fill="#835B2B"/>
</svg>
