<svg width="28" height="28" viewBox="0 0 28 28" fill="none" xmlns="http://www.w3.org/2000/svg">
    <path d="M7.75 19.189a1.822 1.822 0 0 0 .054-1.508 1.815 1.815 0 0 0-2.96-.589L2.22 19.717h-.001m5.53-.528-5.53.528m5.53-.528h9.75A5.194 5.194 0 0 0 22.689 14a1.812 1.812 0 0 1 3.625 0 8.821 8.821 0 0 1-8.812 8.813H7.75a1.827 1.827 0 0 1 .191.811 1.815 1.815 0 0 1-3.098 1.284L2.22 22.284h-.001a1.814 1.814 0 0 1 0-2.567m5.53-.528-5.53.528m-.531-5.716h3.125l.5.001A5.194 5.194 0 0 1 10.5 8.814h9.75a1.814 1.814 0 0 0 2.906 2.095l2.625-2.625a1.812 1.812 0 0 0 0-2.567l-2.625-2.625a1.815 1.815 0 0 0-2.905 2.097h-9.752A8.821 8.821 0 0 0 1.688 14z" stroke="#E5BA73"/>
</svg>
