<svg width="28" height="30" viewBox="0 0 28 30" fill="none" xmlns="http://www.w3.org/2000/svg">
    <mask id="fmjsf39zwa" maskUnits="userSpaceOnUse" x="1.333" y="3.436" width="26" height="20" fill="#000">
        <path fill="#fff" d="M1.333 3.436h26v20h-26z"/>
        <path d="M25.578 8.69a1.168 1.168 0 0 0-.253-.38l-3.5-3.517a1.167 1.167 0 0 0-1.281-.27 1.168 1.168 0 0 0-.725 1.095 1.175 1.175 0 0 0 .356.833l1.509 1.515h-3.875a5.812 5.812 0 0 0-2.874.761 5.847 5.847 0 0 0-2.129 2.085L8.526 17.98a3.488 3.488 0 0 1-3 1.708H3.5a1.175 1.175 0 0 0 0 2.344h2.024a5.813 5.813 0 0 0 2.875-.76 5.847 5.847 0 0 0 2.128-2.085l4.282-7.168a3.487 3.487 0 0 1 3-1.708h3.872l-1.507 1.515a1.175 1.175 0 0 0 .83 1.987c.305.002.6-.116.82-.33l3.5-3.516a1.168 1.168 0 0 0 .343-.828m-.089-.45c.058.142.088.293.089.446l-.089-.445z"/>
    </mask>
    <path d="m25.578 8.69.924-.382-.924.382zm-.253-.38-.709.705.001.001.708-.706zm-3.5-3.517-.721.693.006.007.006.006.709-.706zm-1.65 1.658.709-.706-.006-.006-.006-.006-.697.718zm1.509 1.515v1h2.406l-1.698-1.705-.708.705zm-3.875 0v1-1zm-5.003 2.846.859.513-.858-.512zM8.526 17.98l-.859-.512.859.512zm-3 1.708v1h.001v-1zM2.333 20.86h-1 1zm3.191 1.172v-1 1zm5.003-2.846-.859-.512.859.512zm4.282-7.167.858.512-.858-.512zm2.999-1.708v-1 1zm3.873 0 .71.705 1.695-1.705h-2.405v1zm-1.507 1.515-.709-.705-.006.006-.006.006.721.693zm1.65 1.658.696.717.006-.006.006-.006-.708-.705zm3.5-3.517-.707-.707-.002.002.709.705zm.343-.832-.981.195 1.98-.196-1 .001zm.835-.827a2.168 2.168 0 0 0-.47-.705l-1.415 1.413a.17.17 0 0 1 .037.055l1.848-.763zm-.468-.704-3.5-3.516-1.418 1.41 3.5 3.517 1.418-1.41zM22.546 4.1a2.166 2.166 0 0 0-.704-.487l-.792 1.836c.02.008.038.021.054.037L22.546 4.1zm-.704-.487a2.162 2.162 0 0 0-.837-.177l-.018 2c.022 0 .043.004.063.013l.792-1.836zm-.837-.177a2.162 2.162 0 0 0-.841.162l.76 1.85a.162.162 0 0 1 .063-.012l.018-2zm-.841.162c-.267.11-.509.271-.712.475l1.417 1.411a.167.167 0 0 1 .055-.036l-.76-1.85zm-.712.475a2.172 2.172 0 0 0-.472.714l1.852.754a.171.171 0 0 1 .037-.057l-1.417-1.41zm-.472.714a2.176 2.176 0 0 0-.16.84l1.999-.018c0-.023.004-.046.013-.068l-1.852-.754zm-.16.84c.002.287.061.572.174.836l1.84-.786a.177.177 0 0 1-.015-.068l-2 .018zm.174.836c.113.265.278.505.485.705l1.393-1.435a.174.174 0 0 1-.039-.056l-1.839.786zm.472.693 1.509 1.516 1.417-1.411-1.508-1.516-1.418 1.411zm2.218-.19h-3.875v2h3.875v-2zm-3.875 0a6.812 6.812 0 0 0-3.369.892l.99 1.738a4.812 4.812 0 0 1 2.38-.63v-2zm-3.369.892a6.846 6.846 0 0 0-2.492 2.442l1.717 1.025a4.846 4.846 0 0 1 1.764-1.729l-.989-1.738zM11.948 10.3l-4.282 7.168 1.717 1.025 4.282-7.168-1.717-1.025zm-4.282 7.168c-.222.372-.537.68-.912.894l.99 1.738a4.508 4.508 0 0 0 1.64-1.607l-1.718-1.025zm-.912.894a2.487 2.487 0 0 1-1.23.326l.002 2c.778 0 1.542-.203 2.218-.588l-.99-1.738zm-1.229.326H3.5v2h2.025v-2zm-2.025 0c-.576 0-1.128.23-1.534.638l1.418 1.41a.164.164 0 0 1 .116-.048v-2zm-1.534.638c-.405.408-.633.96-.633 1.534h2c0-.047.02-.091.05-.123l-1.417-1.411zm-.633 1.534c0 .575.228 1.127.633 1.535l1.418-1.411a.175.175 0 0 1-.05-.124h-2zm.633 1.535c.406.407.958.637 1.534.637v-2a.164.164 0 0 1-.116-.048l-1.418 1.41zm1.534.637h2.024v-2H3.5v2zm2.024 0a6.812 6.812 0 0 0 3.37-.891l-.99-1.738a4.813 4.813 0 0 1-2.38.63v2zm3.37-.891a6.847 6.847 0 0 0 2.492-2.442l-1.718-1.025a4.847 4.847 0 0 1-1.764 1.729l.99 1.738zm2.491-2.442 4.282-7.168-1.717-1.025-4.282 7.168 1.717 1.025zm4.282-7.168c.223-.373.537-.68.912-.894l-.99-1.738a4.508 4.508 0 0 0-1.64 1.607l1.718 1.025zm.912-.894a2.488 2.488 0 0 1 1.23-.326l-.002-2c-.777 0-1.541.203-2.217.588l.99 1.738zm1.229-.326h3.873v-2h-3.873v2zm3.164-1.705-1.507 1.515 1.418 1.41 1.507-1.515-1.418-1.41zm-1.519 1.527c-.394.41-.611.959-.606 1.527l2-.018c0-.046.017-.09.048-.123l-1.442-1.386zm-.606 1.527c.005.568.231 1.112.633 1.515l1.417-1.41a.175.175 0 0 1-.05-.123l-2 .018zm.633 1.515c.4.403.945.633 1.514.638l.018-2a.164.164 0 0 1-.115-.049l-1.417 1.411zm1.514.638a2.164 2.164 0 0 0 1.526-.612l-1.393-1.435a.164.164 0 0 1-.115.047l-.018 2zm1.538-.624 3.5-3.516-1.417-1.411-3.5 3.516 1.418 1.411zm3.498-3.514a2.17 2.17 0 0 0 .471-.705l-1.847-.765a.17.17 0 0 1-.037.055l1.413 1.415zm.471-.705c.11-.264.166-.546.166-.831h-2a.174.174 0 0 1-.013.066l1.848.765zm-1.847-.899c.008.02.013.043.013.066l2-.003c0-.284-.057-.564-.165-.826l-1.848.763zm1.994-.131-.09-.446-1.96.39.088.446 1.962-.39z" fill="#E5BA73" mask="url(#fmjsf39zwa)"/>
    <path d="m20.48 22.533-.66.663a1.676 1.676 0 0 0 0 2.363 1.664 1.664 0 0 0 2.36 0l3.497-3.515a1.665 1.665 0 0 0 .489-1.184l-5.685 1.673zm0 0h-2.67a6.311 6.311 0 0 1-3.123-.826 6.348 6.348 0 0 1-2.31-2.264l-4.281-7.168a3.007 3.007 0 0 0-1.094-1.072 2.987 2.987 0 0 0-1.477-.392H3.5c-.443 0-.867-.177-1.18-.49A1.675 1.675 0 0 1 3.5 7.466h2.024c1.094 0 2.17.284 3.122.826a6.346 6.346 0 0 1 2.31 2.264l4.282 7.167a2.987 2.987 0 0 0 2.57 1.464h2.67l-.659-.662-.005-.007a1.675 1.675 0 0 1 .02-2.342 1.664 1.664 0 0 1 2.338-.02l.006.006 3.5 3.515-5.197 2.855z" stroke="#E5BA73"/>
</svg>
