<svg width="18" height="18" viewBox="0 0 18 18" fill="none" xmlns="http://www.w3.org/2000/svg">
    <g clip-path="url(#utz3dqa6ka)" fill="#FAF8F1">
        <path d="M4.5.563a.562.562 0 1 0-1.125 0v.562H2.25A2.25 2.25 0 0 0 0 3.375V4.5h18V3.375a2.25 2.25 0 0 0-2.25-2.25h-1.125V.562a.563.563 0 0 0-1.125 0v.563h-9V.562zm6.077 10.964c.703 0 1.332-.545 1.332-1.328 0-.936-.593-1.383-1.305-1.383-.659 0-1.314.435-1.314 1.36 0 .92.611 1.35 1.287 1.35z"/>
        <path d="M18 15.75V5.625H0V15.75A2.25 2.25 0 0 0 2.25 18h13.5A2.25 2.25 0 0 0 18 15.75zm-7.497-1.361c-1.249 0-1.863-.863-1.916-1.583h.768c.049.416.436.922 1.183.922.95 0 1.463-.954 1.468-2.434h-.03c-.173.466-.717.889-1.556.889-.959 0-1.886-.687-1.886-1.992 0-1.279.98-2.035 2.022-2.035 1.318 0 2.197.826 2.197 3.002 0 2.03-.835 3.23-2.25 3.23zM7.252 8.274v5.999h-.76V9.089h-.014c-.326.175-.994.585-1.415.874V9.18c.473-.332.966-.634 1.477-.906h.712z"/>
    </g>
    <defs>
        <clipPath id="utz3dqa6ka">
            <path fill="#fff" d="M0 0h18v18H0z"/>
        </clipPath>
    </defs>
</svg>
