<svg width="280" height="249" viewBox="0 0 280 249" fill="none" xmlns="http://www.w3.org/2000/svg">
    <path d="M122.733 69.532s1.783 24.061 11.813 29.732c0 0-32.183-5.55-40.101-17.59-7.919-12.038 28.288-12.142 28.288-12.142z" fill="#FAEAB1"/>
    <path d="M154.786 140.519c19.835 5.422 24.522 3.907 28.055 9.217.405.611 2.482 3.726 2.059 7.719-.327 3.184-2.111 5.645-3.222 6.721-6.79 6.566-25.488-1.463-36.198-10.258-2.335-1.919-8.599-7.057-7.332-10.705.517-1.498 2.119-2.238 3.274-2.754 5.092-2.272 10.374-.766 13.364.051v.009z" fill="#E5BA73"/>
    <path d="M216.023 7.375h-4.222V35.04h4.222V7.375z" fill="url(#nj48ct97ma)"/>
    <path d="M228.491 32.142h-29.15a3.892 3.892 0 0 0-3.894 3.89v10.403a3.892 3.892 0 0 0 3.894 3.89h29.15a3.892 3.892 0 0 0 3.894-3.89V36.031a3.892 3.892 0 0 0-3.894-3.89z" fill="url(#xbm85bz8bb)"/>
    <path d="M202.038 40.842h23.747C255.71 40.842 280 65.1 280 94.987v15.809c0 16.798-13.657 30.429-30.468 30.429H178.3c-16.819 0-30.468-13.64-30.468-30.429V94.987c0-29.886 24.29-54.145 54.215-54.145h-.009z" fill="url(#8lsibo9k4c)"/>
    <path d="M259.209 107.913a12.8 12.8 0 0 1-5.636 1.299h-79.314c-1.973 0-3.912-.447-5.635-1.299-4.248-2.1-6.643-6.334-6.049-10.68l.043-.318c2.034-14.715 15.381-26.032 31.735-26.875a376.391 376.391 0 0 1 21.765-.499c5.937.035 11.675.207 17.198.49 16.423.844 29.865 12.117 31.907 26.884.017.103.026.215.043.319.603 4.345-1.801 8.579-6.049 10.679h-.008z" fill="#F3DCBA"/>
    <path style="mix-blend-mode:screen" d="M193.008 105.968c8.262 0 14.959-6.688 14.959-14.939 0-8.25-6.697-14.94-14.959-14.94-8.261 0-14.958 6.69-14.958 14.94s6.697 14.939 14.958 14.939z" fill="url(#bh64ucrsud)"/>
    <path d="M193.009 101.751c5.929 0 10.736-4.8 10.736-10.722s-4.807-10.722-10.736-10.722c-5.93 0-10.737 4.8-10.737 10.722s4.807 10.722 10.737 10.722z" fill="#FAEAB1"/>
    <path d="M192.728 99.896c4.978 0 9.013-4.03 9.013-9.001 0-4.971-4.035-9.002-9.013-9.002-4.977 0-9.012 4.03-9.012 9.002 0 4.971 4.035 9.001 9.012 9.001z" fill="url(#e9z4dfqd0e)"/>
    <path d="M198.782 88.697a3.344 3.344 0 0 1-6.687 0 3.344 3.344 0 0 1 6.687 0zM191.673 99.273a1.335 1.335 0 1 0-1.336-1.334c0 .737.598 1.334 1.336 1.334zM188.373 95.943a.664.664 0 0 1-1.327 0c0-.362.301-.663.663-.663a.67.67 0 0 1 .664.663z" fill="#FAEAB1"/>
    <path style="mix-blend-mode:screen" d="M233.411 105.968c8.261 0 14.958-6.688 14.958-14.939 0-8.25-6.697-14.94-14.958-14.94s-14.958 6.69-14.958 14.94 6.697 14.939 14.958 14.939z" fill="url(#3nm3xeunlf)"/>
    <path d="M233.411 101.751c5.929 0 10.736-4.8 10.736-10.722s-4.807-10.722-10.736-10.722-10.736 4.8-10.736 10.722 4.807 10.722 10.736 10.722z" fill="#FAEAB1"/>
    <path d="M233.411 100.03c4.977 0 9.013-4.03 9.013-9.001 0-4.971-4.036-9.001-9.013-9.001-4.978 0-9.013 4.03-9.013 9 0 4.972 4.035 9.002 9.013 9.002z" fill="url(#6749eg1zng)"/>
    <path d="M239.184 88.697a3.344 3.344 0 0 1-6.686 0 3.344 3.344 0 0 1 6.686 0zM232.075 99.273a1.335 1.335 0 1 0 .002-2.67 1.335 1.335 0 0 0-.002 2.67zM228.775 95.943a.663.663 0 1 1-.663-.663c.362 0 .663.301.663.663z" fill="#FAEAB1"/>
    <path d="M219.323 5.533a5.406 5.406 0 0 1-5.411 5.404 5.406 5.406 0 0 1-5.411-5.404A5.406 5.406 0 0 1 213.912.13a5.406 5.406 0 0 1 5.411 5.404z" fill="url(#rd3ojmpxhh)"/>
    <path d="M217.669 3.425c0 .912-.741 1.644-1.646 1.644a1.65 1.65 0 0 1-1.646-1.644 1.65 1.65 0 0 1 1.646-1.644c.905 0 1.646.74 1.646 1.644zM260.475 58.156c.069 2.521-1.99 5.533-4.351 5.791-2.215.241-3.981-2.013-5.799-4.345-1.792-2.298-5.721-8.193-4.162-9.862 2.06-2.203 14.148 2.461 14.312 8.407v.009zM240.261 48.544a1.877 1.877 0 1 0 .002-3.755 1.877 1.877 0 0 0-.002 3.755zM260.208 93.137c-.603.422-4.808-8.132-16.096-15.541-3.963-2.608-7.884-4.467-7.651-5.009.233-.55 4.644.474 8.177 2.109 11.253 5.215 16.285 17.942 15.561 18.441h.009zM231.309 37.529c-.138.017-.224-.766-.879-1.988 0 0-.31-.568-.664-1.05-1.137-1.558-4.971-1.523-5.273-1.523-5.98.051-9.831-.327-9.831-.293 0 .035 2.809-.026 4.859-.069 5.799-.12 9.254-.43 10.736 1.119.612.645.922 1.48.922 1.48.423 1.136.276 2.298.121 2.315l.009.008z" fill="#fff"/>
    <path d="M230.068 115.623c-.147 1.429-1.336 2.53-2.775 2.668l-19.809 1.911c-1.43.137-2.818-.715-3.231-2.092a12.185 12.185 0 0 1-.422-1.893.672.672 0 0 1 .129-.508.643.643 0 0 1 .456-.249l24.997-2.41a.675.675 0 0 1 .491.155.65.65 0 0 1 .224.465 14.45 14.45 0 0 1-.052 1.945l-.008.008z" fill="#FAEAB1"/>
    <path d="M230.068 115.623a13.222 13.222 0 0 1-11.9 11.79 13.196 13.196 0 0 1-13.838-9.062c.5 1.231 1.801 1.988 3.154 1.851l19.818-1.902c1.43-.147 2.619-1.239 2.766-2.668v-.009z" fill="#FAEAB1"/>
    <path d="M261.285 160.062v.525a12.135 12.135 0 0 1-.637 3.468c-5.455 16.635-8.72 25.412-13.304 32.512a51.021 51.021 0 0 1-2.516 3.554c-1.172 1.54-2.456 3.046-3.878 4.595-3.162 3.442-7.953 5-9.495 5.533-5.644 1.988-10.633 1.627-13.941 1.661h-.578c-3.326-.034-8.306.336-13.941-1.661-1.542-.533-6.342-2.091-9.495-5.533-8.703-9.457-12.055-17.323-19.698-40.661a12.176 12.176 0 0 1-.629-3.253 10.323 10.323 0 0 1 0-1.351c.164-2.788 1.301-5.525 3.309-8.02 3.447-4.286 8.763-6.635 14.26-6.652l26.504-.112 26.022-.103c5.618-.026 11.064 2.332 14.631 6.669 1.723 2.1 2.826 4.372 3.231 6.712.052.336.103.671.138 1.007.034.37.052.74.052 1.119l-.035-.009z" fill="url(#a9e7vv64ri)"/>
    <path d="m217.203 144.658-26.504.112c-5.497.026-10.822 2.375-14.26 6.652-2.008 2.496-3.145 5.232-3.309 8.021.138-2.857 1.31-5.671 3.412-8.219 3.559-4.337 9.013-6.695 14.631-6.669l26.03.103z" fill="url(#ylz1z0ba7j)"/>
    <path d="M243.544 183.659c-.388-20.533-3.171-24.595.93-29.483.474-.559 2.878-3.425 6.833-4.156 3.154-.586 6.015.421 7.367 1.196 8.229 4.655 5.782 24.835.371 37.571-1.181 2.78-4.351 10.232-8.212 10.052-1.585-.069-2.748-1.403-3.567-2.358-3.627-4.234-3.662-9.724-3.722-12.822z" fill="#E5BA73"/>
    <path d="M247.326 196.567a50.358 50.358 0 0 1-2.516 3.554c-.284-.293-.534-.585-.766-.852-3.628-4.234-3.662-9.724-3.723-12.822-.387-20.533-3.171-24.595.931-29.474a12.95 12.95 0 0 1 3.188-2.754c-4.05 4.871-1.293 8.967-.905 29.44.052 3.097.104 8.588 3.722 12.83a.245.245 0 0 1 .061.078h.008z" fill="url(#0a140f5b2k)"/>
    <path d="M258.933 166.559c-.121-2.203-.534-3.829-1.362-7.073-1.085-4.243-2.447-6.317-1.559-7.134.577-.534 1.706-.172 1.964-.095 3.886 1.239 5.093 8.519 4.92 13.08-.103 2.788-.784 5.912-1.809 6.05-.164.026-.56 0-.853-.25-1.146-1.006-1.215-2.891-1.31-4.569l.009-.009zM261.604 174.347a.808.808 0 0 1-.81.809.808.808 0 1 1 0-1.618c.448 0 .81.362.81.809z" fill="#fff"/>
    <path d="M98.667 0H40.894C18.309 0 0 18.284 0 40.837c0 22.554 18.309 40.838 40.894 40.838h57.773c22.585 0 40.894-18.284 40.894-40.838C139.561 18.283 121.252 0 98.667 0z" fill="#FAEAB1"/>
    <path d="M117.278 41.074s-1.637-14.801-.818-15.206c.81-.404 1.198 7.685.818 15.206zM118.898 48.544c0 .49-.396.886-.887.886a.886.886 0 1 1 0-1.773c.491 0 .887.396.887.887zM107.24 42.064c0-.827-.095-3.176-1.801-5.086-1.473-1.635-3.438-2.177-4.334-2.074-.172.017-.749.12-.784.361-.077.5 2.284.852 4.059 2.178.99.74 2.162 2.065 2.869 4.62h-.009zM84.217 26.737c.913-.008 1.258 16.592.991 19.595s-1.353-19.586-.99-19.595zM63.658 40.945c-.396-2.246-2.964-4.767-4.566-4.372-1.603.396 1.895 1.61 3.153 2.694 1.258 1.084 1.413 1.678 1.413 1.678zM49.596 53.733c1.862 2.056 4.515 2.46 4.559 2.366.043-.094-2.913-.49-4.464-2.848-.732-1.11-1.456-3.124-1.93-3.124-.009 0-.034 0-.043.017-.25.18.698 2.272 1.887 3.589h-.009zM42.78 53.311c-.594.818-.672-20.128-1.05-22.176v-.138c0-.138-.018-.404-.026-.938 0-.12-.112-.534-.207-.62-.776-.705-4.196-.352-2.74-.542 1.284-.163 2.774-.043 3.145.095.163.06.172.379.215.499.741 4.148 1.448 22.744.655 23.82h.009zM134.434 30.713c-.905.671-7.229-11.557-23.023-19.93-8.884-4.716-16.13-5.749-15.94-6.61.223-1.006 10.58-1.376 19.972 3.314 14.105 7.048 19.982 22.495 18.999 23.226h-.008zM135.614 36.505a1.076 1.076 0 1 0 .002-2.153 1.076 1.076 0 0 0-.002 2.153zM50.984 6.075c4.187 0 7.582-.77 7.582-1.72 0-.951-3.395-1.722-7.582-1.722-4.188 0-7.583.77-7.583 1.721 0 .95 3.395 1.721 7.583 1.721zM67.855 4.354c0 .517-.922.93-2.051.93s-2.05-.413-2.05-.93c0-.516.921-.93 2.05-.93 1.129 0 2.05.414 2.05.93zM28.081 34.74c.146 2.642.13 4.785-.052 4.794-.18.008-.44-2.126-.594-4.76-.147-2.641-.13-4.784.051-4.792.181-.009.44 2.125.595 4.758zM124.62 86.95c1.232 3.46 2.524 5.482 2.223 5.662-.336.207-2.559-1.988-3.878-4.879-2.309-5.052-1.068-10.525-.577-10.542.414-.017.121 3.838 2.223 9.75l.009.009z" fill="#fff"/>
    <path d="m45.882 20.94-5.15 1.425-.475-.575v-.625l5.625-1.55v1.325zm0 2.525-5.15 1.45-.475-.6v-.6l5.625-1.55v1.3zm-1.265 4.875v14.725c0 .167.05.3.15.4.1.15.258.225.475.225h.65v2.55h-1.625c-.684 0-1.284-.242-1.8-.725-.6-.55-.9-1.225-.9-2.025V28.34h3.05zm8.632 6.4v8.95h1.275v2.55h-.875l-.925-1.025h-.05c-.567.683-1.275 1.025-2.125 1.025h-4.825v-2.55h3.775c.233 0 .4-.067.5-.2.15-.133.225-.3.225-.5v-8.25h3.025zm-1.6 13.325c.433 0 .808.158 1.125.475.316.317.475.7.475 1.15 0 .45-.159.833-.475 1.15a1.537 1.537 0 0 1-1.125.475c-.45 0-.834-.158-1.15-.475a1.567 1.567 0 0 1-.475-1.15c0-.45.158-.833.475-1.15.316-.317.7-.475 1.15-.475zm6.018-12.9c1.65-.483 3.092-.725 4.325-.725 2.017 0 3.642.633 4.875 1.9 1.117 1.15 1.675 2.583 1.675 4.3v2.85c0 .683-.233 1.3-.7 1.85-.55.6-1.217.9-2 .9h-11.5v-2.55h10.525c.417 0 .625-.208.625-.625v-2.25c0-1.167-.383-2.083-1.15-2.75-.75-.667-1.792-1-3.125-1-.767 0-1.95.175-3.55.525v-2.425zm19.83-.425v8.95h1.275v2.55h-1.3c-.133 2-.924 3.533-2.374 4.6-1.2.883-2.675 1.325-4.425 1.325-.3 0-.626-.008-.975-.025l-1.225-1.525V49.54c.533.083 1.05.125 1.55.125 2.95 0 4.425-1.433 4.425-4.3V34.74h3.05zm5.588 4.325c0-1.583.55-2.783 1.65-3.6.866-.667 2.05-1 3.55-1 1.466 0 2.708.433 3.725 1.3 1.283 1.1 1.925 2.658 1.925 4.675 0 1.9-.509 3.475-1.525 4.725-.984 1.217-2.259 1.825-3.825 1.825-1.384 0-2.475-.517-3.275-1.55-.534.533-1.184.8-1.95.8h-4.775v-2.55h3.85a.65.65 0 0 0 .475-.2.579.579 0 0 0 .175-.425v-4zm3.025 4.35c.616.667 1.325 1 2.125 1 .783 0 1.425-.342 1.925-1.025.5-.7.75-1.6.75-2.7 0-1.2-.275-2.142-.825-2.825-.5-.583-1.15-.875-1.95-.875-.6 0-1.075.192-1.425.575-.4.367-.6.867-.6 1.5v4.35z" fill="#835B2B"/>
    <g filter="url(#vxuade1wtl)">
        <ellipse cx="216.5" cy="229.5" rx="28.5" ry="1.5" fill="#3D3D3D" fill-opacity=".8"/>
    </g>
    <defs>
        <linearGradient id="nj48ct97ma" x1="213.912" y1="7.375" x2="213.912" y2="35.041" gradientUnits="userSpaceOnUse">
            <stop stop-color="#EDAD60"/>
            <stop offset="1" stop-color="#9C631D"/>
        </linearGradient>
        <linearGradient id="xbm85bz8bb" x1="213.916" y1="32.142" x2="213.916" y2="50.325" gradientUnits="userSpaceOnUse">
            <stop stop-color="#EDAD60"/>
            <stop offset="1" stop-color="#9C631D"/>
        </linearGradient>
        <linearGradient id="8lsibo9k4c" x1="213.916" y1="40.842" x2="213.916" y2="141.225" gradientUnits="userSpaceOnUse">
            <stop stop-color="#EDAD60"/>
            <stop offset="1" stop-color="#9C631D"/>
        </linearGradient>
        <linearGradient id="e9z4dfqd0e" x1="183.707" y1="90.895" x2="201.741" y2="90.895" gradientUnits="userSpaceOnUse">
            <stop stop-color="#AB712A"/>
            <stop offset="1" stop-color="#E1A256"/>
        </linearGradient>
        <linearGradient id="6749eg1zng" x1="224.389" y1="91.029" x2="242.424" y2="91.029" gradientUnits="userSpaceOnUse">
            <stop stop-color="#A56B24"/>
            <stop offset="1" stop-color="#E2A357"/>
        </linearGradient>
        <linearGradient id="rd3ojmpxhh" x1="213.912" y1=".129" x2="213.912" y2="10.938" gradientUnits="userSpaceOnUse">
            <stop stop-color="#EDAD60"/>
            <stop offset="1" stop-color="#9C631D"/>
        </linearGradient>
        <linearGradient id="a9e7vv64ri" x1="217.235" y1="144.563" x2="217.235" y2="211.917" gradientUnits="userSpaceOnUse">
            <stop stop-color="#EDAD60"/>
            <stop offset="1" stop-color="#9C631D"/>
        </linearGradient>
        <linearGradient id="ylz1z0ba7j" x1="195.167" y1="144.555" x2="195.167" y2="159.443" gradientUnits="userSpaceOnUse">
            <stop stop-color="#EDAD60"/>
            <stop offset="1" stop-color="#9C631D"/>
        </linearGradient>
        <linearGradient id="0a140f5b2k" x1="243.183" y1="154.219" x2="243.183" y2="200.121" gradientUnits="userSpaceOnUse">
            <stop stop-color="#EDAD60"/>
            <stop offset="1" stop-color="#9C631D"/>
        </linearGradient>
        <radialGradient id="bh64ucrsud" cx="0" cy="0" r="1" gradientUnits="userSpaceOnUse" gradientTransform="matrix(14.8031 0 0 14.7842 193.008 91.029)">
            <stop offset=".13" stop-color="#3280FC"/>
            <stop offset="1"/>
        </radialGradient>
        <radialGradient id="3nm3xeunlf" cx="0" cy="0" r="1" gradientUnits="userSpaceOnUse" gradientTransform="matrix(14.8031 0 0 14.7842 233.411 .43)">
            <stop offset=".13" stop-color="#3280FC"/>
            <stop offset="1"/>
        </radialGradient>
        <filter id="vxuade1wtl" x="180" y="220" width="73" height="19" filterUnits="userSpaceOnUse" color-interpolation-filters="sRGB">
            <feFlood flood-opacity="0" result="BackgroundImageFix"/>
            <feBlend in="SourceGraphic" in2="BackgroundImageFix" result="shape"/>
            <feGaussianBlur stdDeviation="4" result="effect1_foregroundBlur_341_19974"/>
        </filter>
    </defs>
</svg>
