<svg width="28" height="28" viewBox="0 0 28 28" fill="none" xmlns="http://www.w3.org/2000/svg">
    <path d="M2.188 14A8.321 8.321 0 0 1 10.5 5.688h10.828l-.385-.384a1.313 1.313 0 0 1 .93-2.244 1.315 1.315 0 0 1 .93.385l2.625 2.625a1.313 1.313 0 0 1 0 1.859l-2.625 2.625a1.315 1.315 0 1 1-1.86-1.86l.385-.381H10.5A5.694 5.694 0 0 0 4.813 14a1.312 1.312 0 1 1-2.625 0zM24.5 12.688A1.312 1.312 0 0 0 23.188 14a5.695 5.695 0 0 1-5.688 5.688H6.672l.385-.384a1.315 1.315 0 1 0-1.86-1.86L2.574 20.07a1.312 1.312 0 0 0 0 1.859l2.625 2.625a1.313 1.313 0 0 0 2.144-1.433 1.314 1.314 0 0 0-.285-.426l-.385-.382H17.5A8.321 8.321 0 0 0 25.813 14a1.312 1.312 0 0 0-1.313-1.312zm-9.625 5.25a1.312 1.312 0 0 0 1.313-1.313v-5.25a1.314 1.314 0 0 0-1.9-1.174l-1.75.875a1.312 1.312 0 0 0 1.025 2.406v3.143a1.312 1.312 0 0 0 1.312 1.313z" fill="#E5BA73"/>
</svg>
