<svg width="25" height="26" viewBox="0 0 25 26" fill="none" xmlns="http://www.w3.org/2000/svg">
    <path fill-rule="evenodd" clip-rule="evenodd" d="M16.612 6.32A3.48 3.48 0 0 1 20.1 2.85a3.48 3.48 0 0 1 3.488 3.472A3.481 3.481 0 0 1 20.1 9.793a3.485 3.485 0 0 1-2.484-1.035l-4.828 3.288c.135.67.069 1.364-.19 1.996l5.294 3.48a3.485 3.485 0 0 1 2.209-.785 3.48 3.48 0 0 1 3.487 3.473 3.481 3.481 0 0 1-3.488 3.472 3.48 3.48 0 0 1-3.488-3.472c0-.487.102-.968.301-1.412l-5.252-3.45a3.485 3.485 0 0 1-2.294.856A3.48 3.48 0 0 1 5.88 12.73a3.48 3.48 0 0 1 3.487-3.472c1.109 0 2.094.514 2.733 1.314l4.68-3.187a3.452 3.452 0 0 1-.168-1.065z" fill="#fff"/>
</svg>
