<svg width="28" height="30" viewBox="0 0 28 30" fill="none" xmlns="http://www.w3.org/2000/svg">
    <path d="M25.578 8.69a1.168 1.168 0 0 0-.253-.38l-3.5-3.517a1.167 1.167 0 0 0-1.281-.27 1.168 1.168 0 0 0-.725 1.095 1.175 1.175 0 0 0 .356.833l1.509 1.515h-3.875a5.812 5.812 0 0 0-2.874.761 5.847 5.847 0 0 0-2.129 2.085L8.526 17.98a3.488 3.488 0 0 1-3 1.708H3.5a1.175 1.175 0 0 0 0 2.344h2.024a5.813 5.813 0 0 0 2.875-.76 5.847 5.847 0 0 0 2.128-2.085l4.282-7.168a3.487 3.487 0 0 1 3-1.708h3.872l-1.507 1.515a1.175 1.175 0 0 0 .83 1.987c.305.002.6-.116.82-.33l3.5-3.516a1.168 1.168 0 0 0 .343-.828m-.089-.45c.058.142.088.293.089.446l-.089-.445z" fill="#E5BA73"/>
    <path d="m25.324 21.69-3.5 3.517a1.164 1.164 0 0 1-1.99-.83c0-.31.122-.609.341-.829l1.509-1.515h-3.875a5.811 5.811 0 0 1-2.874-.761 5.847 5.847 0 0 1-2.129-2.085l-4.281-7.168c-.31-.52-.75-.951-1.276-1.25a3.488 3.488 0 0 0-1.724-.458H3.5c-.31 0-.606-.123-.825-.343A1.175 1.175 0 0 1 3.5 7.967h2.024c1.008 0 1.998.262 2.875.76a5.847 5.847 0 0 1 2.128 2.086l4.282 7.168a3.487 3.487 0 0 0 3 1.708h3.872l-1.507-1.516a1.175 1.175 0 0 1 .83-1.987c.305-.002.6.116.82.33l3.5 3.516c.227.227.34.527.341.825v.004a1.172 1.172 0 0 1-.341.83z" fill="#E5BA73"/>
</svg>
