<svg width="26" height="27" viewBox="0 0 26 27" fill="none" xmlns="http://www.w3.org/2000/svg">
    <path d="m22.447 20.26-1.018-1.018c.53-.802.845-1.766.845-2.806a5.104 5.104 0 0 0-5.102-5.102 5.104 5.104 0 0 0-5.103 5.102 5.104 5.104 0 0 0 5.103 5.102c1.04 0 1.993-.314 2.805-.845l1.019 1.019c.206.206.466.303.736.303.271 0 .531-.097.737-.303.38-.39.38-1.04-.022-1.452z" fill="#835B2B"/>
    <path d="M21.212 4.855V7.26c0 .877-.542 1.972-1.084 2.524l-.195.173a.58.58 0 0 1-.574.109c-.217-.076-.433-.13-.65-.184a6.232 6.232 0 0 0-1.506-.174 6.773 6.773 0 0 0-6.77 6.771 6.67 6.67 0 0 0 .974 3.488 6.49 6.49 0 0 0 2.124 2.178c.249.162.346.509.13.704-.076.065-.152.12-.228.173l-1.516.986c-1.409.878-3.348-.108-3.348-1.863v-5.796c0-.77-.433-1.755-.867-2.297L3.597 9.676c-.542-.553-.975-1.539-.975-2.189V4.963c0-1.31.975-2.296 2.155-2.296h14.279c1.18 0 2.156.985 2.156 2.188z" fill="#835B2B"/>
</svg>
