<svg width="277" height="224" viewBox="0 0 277 224" fill="none" xmlns="http://www.w3.org/2000/svg">
    <path d="M135.583 64s1.612 21.742 10.674 26.866c0 0-29.079-5.015-36.234-15.894C102.868 64.093 135.583 64 135.583 64z" fill="#FAEAB1"/>
    <path d="M163.86 131.975c17.922 4.899 22.158 3.53 25.35 8.328.366.552 2.242 3.367 1.861 6.975-.296 2.877-1.908 5.101-2.912 6.073-6.135 5.934-23.03-1.321-32.707-9.269-2.11-1.734-7.77-6.376-6.626-9.673.467-1.353 1.915-2.022 2.959-2.488 4.601-2.053 9.373-.692 12.075.046v.008z" fill="#E5BA73"/>
    <path d="M219.192 11.664h-3.815v25h3.815v-25z" fill="url(#cqeem03kta)"/>
    <path d="M230.458 34.044h-26.339a3.517 3.517 0 0 0-3.519 3.514v9.402a3.517 3.517 0 0 0 3.519 3.514h26.339a3.517 3.517 0 0 0 3.519-3.514v-9.402a3.517 3.517 0 0 0-3.519-3.514z" fill="url(#5czcp7l6ib)"/>
    <path d="M206.556 41.905h21.457c27.04 0 48.987 21.92 48.987 48.927v14.285c0 15.179-12.34 27.496-27.53 27.496h-64.363c-15.198 0-27.53-12.325-27.53-27.496V90.832c0-27.006 21.948-48.927 48.987-48.927h-.008z" fill="url(#jlhfmbhl2c)"/>
    <path d="M258.214 102.512a11.563 11.563 0 0 1-5.092 1.174h-71.666c-1.783 0-3.535-.404-5.092-1.174-3.839-1.898-6.003-5.724-5.466-9.65l.039-.288c1.838-13.297 13.897-23.523 28.674-24.285a340.14 340.14 0 0 1 19.667-.45c5.364.03 10.549.186 15.54.442 14.839.763 26.985 10.95 28.83 24.293.015.093.023.194.039.288.545 3.927-1.627 7.752-5.466 9.65h-.007z" fill="#F3DCBA"/>
    <path style="mix-blend-mode:screen" d="M198.397 100.754c7.464 0 13.516-6.044 13.516-13.499 0-7.455-6.052-13.5-13.516-13.5-7.465 0-13.516 6.045-13.516 13.5 0 7.456 6.051 13.499 13.516 13.499z" fill="url(#ef64g0kbrd)"/>
    <path d="M198.397 96.944c5.357 0 9.701-4.338 9.701-9.689 0-5.35-4.344-9.689-9.701-9.689-5.358 0-9.701 4.338-9.701 9.69 0 5.35 4.343 9.688 9.701 9.688z" fill="#FAEAB1"/>
    <path d="M198.144 95.267c4.497 0 8.143-3.641 8.143-8.133 0-4.492-3.646-8.134-8.143-8.134-4.498 0-8.144 3.642-8.144 8.134 0 4.492 3.646 8.133 8.144 8.133z" fill="url(#ycafxuxnhe)"/>
    <path d="M203.613 85.148a3.021 3.021 0 0 1-6.041 0 3.021 3.021 0 0 1 6.041 0zM197.19 94.704a1.206 1.206 0 1 0 .002-2.411 1.206 1.206 0 0 0-.002 2.411zM194.208 91.695a.599.599 0 1 1-1.198 0 .599.599 0 0 1 1.198 0z" fill="#FAEAB1"/>
    <path style="mix-blend-mode:screen" d="M234.903 100.754c7.465 0 13.516-6.044 13.516-13.499 0-7.455-6.051-13.5-13.516-13.5-7.464 0-13.515 6.045-13.515 13.5 0 7.456 6.051 13.499 13.515 13.499z" fill="url(#ggmkat57qf)"/>
    <path d="M234.903 96.944c5.358 0 9.701-4.338 9.701-9.689 0-5.35-4.343-9.689-9.701-9.689-5.357 0-9.7 4.338-9.7 9.69 0 5.35 4.343 9.688 9.7 9.688z" fill="#FAEAB1"/>
    <path d="M234.903 95.389c4.498 0 8.144-3.642 8.144-8.134 0-4.492-3.646-8.134-8.144-8.134-4.497 0-8.143 3.642-8.143 8.134 0 4.492 3.646 8.134 8.143 8.134z" fill="url(#m03wxxuhyg)"/>
    <path d="M240.12 85.148a3.022 3.022 0 0 1-6.042 0 3.022 3.022 0 0 1 6.042 0zM233.697 94.704a1.207 1.207 0 1 0 .001-2.413 1.207 1.207 0 0 0-.001 2.413zM230.715 91.695a.6.6 0 0 1-1.199 0c0-.326.272-.599.599-.599.327 0 .6.273.6.6z" fill="#FAEAB1"/>
    <path d="M222.174 10a4.885 4.885 0 0 1-4.889 4.883 4.885 4.885 0 0 1-4.89-4.883 4.885 4.885 0 0 1 4.89-4.883A4.885 4.885 0 0 1 222.174 10z" fill="url(#il37wuisch)"/>
    <path d="M220.679 8.095c0 .824-.669 1.485-1.487 1.485a1.491 1.491 0 0 1-1.487-1.485c0-.817.67-1.485 1.487-1.485a1.49 1.49 0 0 1 1.487 1.485zM259.358 57.55c.062 2.279-1.799 5-3.932 5.234-2.001.218-3.597-1.82-5.24-3.927-1.619-2.076-5.169-7.403-3.76-8.911 1.861-1.991 12.784 2.224 12.932 7.597v.008zM241.093 48.865a1.696 1.696 0 1 0 .002-3.393 1.696 1.696 0 0 0-.002 3.393zM259.117 89.16c-.545.381-4.345-7.348-14.544-14.043-3.581-2.357-7.124-4.036-6.913-4.526.21-.498 4.196.428 7.388 1.905 10.168 4.712 14.715 16.213 14.061 16.664h.008zM233.004 38.911c-.125.016-.203-.692-.794-1.796 0 0-.281-.513-.6-.949-1.028-1.407-4.492-1.376-4.765-1.376-5.403.047-8.883-.295-8.883-.264 0 .03 2.538-.024 4.391-.063 5.24-.108 8.362-.388 9.701 1.011.553.584.833 1.338.833 1.338.381 1.026.249 2.076.109 2.092l.008.007z" fill="#fff"/>
    <path d="M231.883 109.479c-.133 1.291-1.207 2.286-2.507 2.411l-17.899 1.726c-1.293.124-2.546-.646-2.92-1.89a11.086 11.086 0 0 1-.381-1.71.603.603 0 0 1 .116-.459.586.586 0 0 1 .413-.226l22.586-2.177a.61.61 0 0 1 .444.14.59.59 0 0 1 .202.42c.023.591.008 1.182-.047 1.757l-.007.008z" fill="#FAEAB1"/>
    <path d="M231.883 109.479a11.948 11.948 0 0 1-10.752 10.653 11.924 11.924 0 0 1-12.504-8.188c.452 1.112 1.627 1.796 2.85 1.672l17.907-1.719c1.292-.132 2.366-1.119 2.499-2.41v-.008z" fill="#FAEAB1"/>
    <path d="M260.09 149.634v.475a10.99 10.99 0 0 1-.576 3.134c-4.929 15.031-7.879 22.962-12.021 29.377a45.99 45.99 0 0 1-2.274 3.212 58.748 58.748 0 0 1-3.503 4.152c-2.858 3.111-7.186 4.518-8.58 5-5.1 1.797-9.607 1.47-12.597 1.501h-.522c-3.005-.031-7.505.303-12.597-1.501-1.393-.482-5.73-1.889-8.579-5-7.864-8.545-10.892-15.653-17.798-36.741a10.969 10.969 0 0 1-.569-2.94 9.213 9.213 0 0 1 0-1.221c.148-2.519 1.176-4.992 2.99-7.247 3.114-3.872 7.918-5.995 12.885-6.011l23.949-.101 23.512-.093c5.076-.023 9.997 2.107 13.22 6.026 1.557 1.898 2.554 3.95 2.92 6.066.046.303.093.606.124.909.031.335.047.669.047 1.011l-.031-.008z" fill="url(#fwm7aix2wi)"/>
    <path d="m220.259 135.715-23.949.101c-4.967.024-9.778 2.147-12.885 6.011-1.814 2.255-2.842 4.728-2.989 7.248.124-2.582 1.183-5.125 3.083-7.427 3.215-3.919 8.143-6.049 13.22-6.026l23.52.093z" fill="url(#530qotw51j)"/>
    <path d="M244.059 170.957c-.35-18.554-2.865-22.224.841-26.641.428-.506 2.6-3.095 6.174-3.756 2.85-.529 5.434.381 6.657 1.081 7.435 4.207 5.224 22.441.334 33.95-1.066 2.512-3.931 9.246-7.419 9.082-1.433-.062-2.484-1.267-3.223-2.13-3.278-3.826-3.309-8.787-3.364-11.586z" fill="#E5BA73"/>
    <path d="M247.477 182.621a46.196 46.196 0 0 1-2.273 3.211c-.257-.264-.483-.529-.693-.77-3.278-3.826-3.309-8.787-3.364-11.586-.35-18.554-2.865-22.224.841-26.633a11.72 11.72 0 0 1 2.881-2.488c-3.659 4.401-1.168 8.102-.818 26.601.047 2.8.094 7.761 3.364 11.595.023.023.046.046.054.07h.008z" fill="url(#ntzmjm4xck)"/>
    <path d="M257.964 155.505c-.109-1.99-.482-3.46-1.23-6.391-.981-3.834-2.211-5.708-1.409-6.447.522-.482 1.542-.155 1.775-.085 3.511 1.119 4.601 7.698 4.446 11.819-.094 2.52-.709 5.342-1.635 5.467-.148.023-.506 0-.771-.226-1.035-.91-1.098-2.612-1.183-4.129l.007-.008zM260.378 162.543a.73.73 0 1 1-1.464 0 .73.73 0 0 1 .732-.731.73.73 0 0 1 .732.731z" fill="#fff"/>
    <path d="M106.754 0H44.246C19.809 0 0 16.566 0 37s19.81 37 44.246 37h62.508C131.191 74 151 57.434 151 37S131.191 0 106.754 0z" fill="#FAEAB1"/>
    <path d="M131.433 48.865a.8.8 0 0 1-.802.8.8.8 0 1 1 0-1.601.8.8 0 0 1 .802.8zM143.91 27.98c-.718.494-5.735-8.498-18.263-14.654-7.046-3.468-12.794-4.227-12.644-4.86.178-.74 8.393-1.013 15.843 2.436 11.189 5.182 15.85 16.54 15.071 17.078h-.007zM146.537 37.986a.972.972 0 1 0 .002-1.944.972.972 0 0 0-.002 1.944zM70.067 10.49c3.784 0 6.851-.696 6.851-1.555 0-.86-3.067-1.556-6.85-1.556-3.785 0-6.852.697-6.852 1.556 0 .859 3.067 1.555 6.851 1.555zM85.311 8.935c0 .466-.833.84-1.853.84s-1.852-.374-1.852-.84c0-.467.833-.84 1.852-.84 1.02 0 1.853.373 1.853.84zM136.929 83.48c1.657 2.874 3.134 4.462 2.895 4.671-.265.239-2.597-1.351-4.239-3.707-2.872-4.116-2.658-9.182-2.224-9.277.364-.083.73 3.392 3.559 8.306l.009.006z" fill="#fff"/>
    <g clip-path="url(#3pzw6oaa1l)" filter="url(#0nqxgfx5um)" fill="#FAF8F1">
        <path d="M215.178 157.124h-2.339v-3.933c-.032-.301-.112-.51-.242-.629a.793.793 0 0 0-.581-.242 2.33 2.33 0 0 0-.379.089.562.562 0 0 0-.218.186c-.161.193-.242.393-.242.596v2.262c0 .576-.467 1.042-1.042 1.042h-2.28v-3.305c0-.591.102-1.133.307-1.629.204-.494.506-.945.903-1.353.849-.805 1.833-1.208 2.951-1.208 1.119 0 2.165.409 2.976 1.225.813.817 1.218 1.806 1.218 2.967v2.902c0 .57-.462 1.031-1.032 1.031v-.001zM206 166.023h.839c.688 0 1.032-.35 1.032-1.048v-7.9h2.292c.578 0 1.047.469 1.047 1.047v7.9c0 .903-.336 1.687-1.008 2.353-.673.667-1.45 1-2.331 1h-.834a1.037 1.037 0 0 1-1.038-1.037v-2.316l.001.001zM220 170h-2.3a1.039 1.039 0 0 1-1.039-1.039v-3.024l-.823.097a4.14 4.14 0 0 1-1.63-.307 4.196 4.196 0 0 1-1.339-.918c-.817-.807-1.226-1.795-1.226-2.967 0-1.172.408-2.157 1.226-2.958.817-.801 1.807-1.201 2.969-1.201.591 0 1.13.102 1.613.307.484.204.925.505 1.323.902.817.828 1.226 1.812 1.226 2.95V170zm-3.339-8.157c-.032-.279-.108-.478-.226-.596a.847.847 0 0 0-.597-.226c-.301.032-.519.115-.653.249s-.202.326-.202.572c.032.258.107.468.226.628a.96.96 0 0 0 .63.226c.29-.032.489-.118.597-.258a.964.964 0 0 0 .226-.596l-.001.001z"/>
    </g>
    <path d="M19.13 25.544a1.23 1.23 0 0 1-.495-1.024c0-.341.122-.63.367-.864a1.22 1.22 0 0 1 .896-.368c.342 0 .625.117.849.352.234.235.352.533.352.896 0 .736-.433 1.243-1.297 1.52l-1.968.544-.271-.352v-.272l1.568-.432zm.753-.24c.34-.17.512-.427.512-.768 0-.416-.171-.624-.512-.624-.363 0-.544.208-.544.624 0 .405.18.661.544.768zm-1.956 2.24a7.498 7.498 0 0 1 1.233-.096c1.183 0 2.138.357 2.863 1.072.651.661.977 1.499.977 2.512v2.448c0 .139-.011.267-.032.384h.448V35h-.24l-.448-.56h-.049a1.833 1.833 0 0 1-.287.288 1.41 1.41 0 0 1-.832.272h-5.248v-1.136h4.735c.395 0 .593-.203.593-.608v-2.032c0-.757-.23-1.387-.689-1.888-.49-.512-1.248-.773-2.271-.784-.3 0-.55.021-.753.064v-1.072zm9.593.096v5.84c0 .395-.128.736-.384 1.024-.288.33-.646.496-1.072.496H23.28v-1.136h2.272c.181 0 .33-.064.448-.192a.563.563 0 0 0 .16-.416V27.64h1.36zm-2.88 9.024a.74.74 0 0 1 .544.224c.16.16.24.347.24.56 0 .224-.08.41-.24.56-.15.16-.33.24-.544.24a.786.786 0 0 1-.576-.24.76.76 0 0 1-.224-.56c0-.213.074-.4.224-.56a.815.815 0 0 1 .576-.224zm1.936 0a.76.76 0 0 1 .56.224c.15.16.224.347.224.56a.76.76 0 0 1-.224.56.734.734 0 0 1-.56.24c-.214 0-.4-.08-.56-.24a.76.76 0 0 1-.224-.56c0-.213.074-.4.224-.56a.795.795 0 0 1 .56-.224zm7.24 3.896-3.185.88-.272-.352v-.272l3.456-.96v.704zm.121-12.92v6.224h.816V35h-.816c-.032 1.333-.507 2.33-1.424 2.992-.736.544-1.69.816-2.864.816-.181 0-.41-.005-.688-.016l-.528-.656v-.512c.31.043.645.064 1.008.064 2.09 0 3.136-.96 3.136-2.88V27.64h1.36zm3.147-6.096a1.23 1.23 0 0 1-.496-1.024c0-.341.122-.63.368-.864a1.22 1.22 0 0 1 .896-.368c.341 0 .624.117.848.352.234.235.352.533.352.896 0 .736-.432 1.243-1.296 1.52l-1.968.544-.272-.352v-.272l1.568-.432zm.752-.24c.341-.17.512-.427.512-.768 0-.416-.171-.624-.512-.624-.363 0-.544.208-.544.624 0 .405.181.661.544.768zm-1.549 2.816c.224 0 .41.08.56.24.15.15.224.33.224.544a.814.814 0 0 1-.224.576.76.76 0 0 1-.56.224.795.795 0 0 1-.56-.224.815.815 0 0 1-.224-.576.74.74 0 0 1 .224-.544c.16-.16.347-.24.56-.24zm1.952 0c.214 0 .395.08.544.24.16.15.24.33.24.544 0 .224-.08.416-.24.576a.74.74 0 0 1-.544.224.815.815 0 0 1-.576-.224.815.815 0 0 1-.224-.576.74.74 0 0 1 .224-.544c.16-.16.352-.24.576-.24zm.64 3.52v5.84c0 .395-.128.736-.384 1.024-.288.33-.645.496-1.072.496H34.64v-1.136h2.272a.58.58 0 0 0 .448-.192.563.563 0 0 0 .16-.416V27.64h1.36zm6.648 4.576v2.608c0 1.056.277 1.797.831 2.224.555.427 1.52.64 2.897.64 1.322 0 2.245-.165 2.767-.496.672-.405 1.025-1.136 1.056-2.192h-1.216l-.56-.688v-.448h3.569V35h-.433c-.032 1.29-.474 2.272-1.328 2.944-.746.587-1.717.88-2.911.88h-1.776c-1.334 0-2.385-.357-3.153-1.072-.736-.693-1.104-1.659-1.104-2.896v-2.08l.689-.56h.672zm2.8 7.536a.74.74 0 0 1 .544.224c.16.16.24.352.24.576 0 .213-.08.395-.24.544-.15.16-.331.24-.544.24-.214 0-.4-.08-.56-.24a.74.74 0 0 1-.225-.544c0-.224.075-.416.224-.576a.795.795 0 0 1 .56-.224zm1.952 0a.74.74 0 0 1 .543.224c.16.16.24.352.24.576 0 .213-.08.395-.24.544-.149.16-.33.24-.544.24a.786.786 0 0 1-.575-.24.74.74 0 0 1-.225-.544c0-.224.075-.416.224-.576a.815.815 0 0 1 .577-.224zm7.646-2.192-3.184.88-.272-.352v-.272l3.456-.96v.704zM55.35 24.12c.224 0 .41.08.56.24.149.15.224.33.224.544a.814.814 0 0 1-.224.576.76.76 0 0 1-.56.224.795.795 0 0 1-.56-.224.815.815 0 0 1-.224-.576.74.74 0 0 1 .224-.544c.16-.16.346-.24.56-.24zm1.952 0c.213 0 .394.08.544.24.16.15.24.33.24.544 0 .224-.08.416-.24.576a.74.74 0 0 1-.544.224.815.815 0 0 1-.576-.224.815.815 0 0 1-.224-.576.74.74 0 0 1 .224-.544c.16-.16.352-.24.576-.24zm.64 3.52v5.84c0 .128-.016.256-.048.384h.848V35h-.624l-.464-.56h-.048c-.288.373-.662.56-1.12.56h-2.784v-1.136h2.272c.17 0 .309-.053.416-.16a.581.581 0 0 0 .192-.448V27.64h1.36zm5.972-11.128v.688l-3.184.88-.272-.336v-.272l3.456-.96zm.224 2.576v1.76a.785.785 0 0 1-.192.528c-.138.15-.325.224-.56.224h-.752l-.208-.224h-.016a.725.725 0 0 1-.128.128.564.564 0 0 1-.32.096h-.976a.708.708 0 0 1-.544-.224c-.138-.128-.208-.304-.208-.528V19.76l.352-.288h.336v1.344c0 .053.016.096.048.128a.242.242 0 0 0 .192.096h.448a.238.238 0 0 0 .176-.064.309.309 0 0 0 .048-.16v-1.344h.704v1.568h.688c.075 0 .128-.027.16-.08.043-.032.064-.08.064-.144v-1.728h.688zm-1.275 4.456v9.936c0 .416-.138.768-.416 1.056a1.37 1.37 0 0 1-1.04.464h-2.783v-1.136h2.271c.203 0 .358-.07.464-.208a.614.614 0 0 0 .145-.4v-9.712h1.36zm4.468-3.496-3.184.88-.272-.352v-.272l3.456-.96v.704zm-.898 3.496V34.84l-.688.56h-.672V23.544h1.36zm9.479-3a1.23 1.23 0 0 1-.496-1.024c0-.341.122-.63.368-.864a1.22 1.22 0 0 1 .896-.368c.341 0 .624.117.848.352.234.235.352.533.352.896 0 .736-.432 1.243-1.296 1.52l-1.968.544-.272-.352v-.272l1.568-.432zm.752-.24c.341-.17.512-.427.512-.768 0-.416-.17-.624-.512-.624-.363 0-.544.208-.544.624 0 .405.181.661.544.768zm-1.315 3.816c.213 0 .394.08.544.24.16.15.24.33.24.544 0 .224-.08.416-.24.576a.74.74 0 0 1-.544.224.795.795 0 0 1-.56-.224.814.814 0 0 1-.224-.576.74.74 0 0 1 .224-.544c.16-.16.346-.24.56-.24zm1.936 0c.224 0 .41.08.56.24.16.15.24.33.24.544 0 .224-.08.416-.24.576a.76.76 0 0 1-.56.224.795.795 0 0 1-.56-.224.814.814 0 0 1-.224-.576.74.74 0 0 1 .224-.544c.16-.16.346-.24.56-.24zm.8 3.088v6.048c0 .192.053.341.16.448.096.107.202.16.32.16h.32V35h-.672c-.49 0-.88-.187-1.168-.56-.694.49-1.44.736-2.24.736-1.12 0-2.006-.437-2.656-1.312-.534-.715-.8-1.568-.8-2.56 0-1.163.384-2.128 1.152-2.896.682-.693 1.52-1.04 2.512-1.04a4.19 4.19 0 0 1 1.712.384l.688-.544h.672zm-1.36 1.664a3.155 3.155 0 0 0-1.424-.352c-.81 0-1.467.32-1.968.96-.416.523-.624 1.141-.624 1.856 0 .853.202 1.525.608 2.016.394.448.928.672 1.6.672.576 0 1.178-.155 1.808-.464v-4.688zm7.278-3.824-3.184.88-.272-.352v-.272l3.456-.96v.704zm-.983 2.592v5.84c0 .395-.128.736-.384 1.024-.288.33-.646.496-1.072.496H78.78v-1.136h2.272c.181 0 .33-.064.448-.192a.563.563 0 0 0 .16-.416V27.64h1.36zm-2.88 9.024a.74.74 0 0 1 .544.224c.16.16.24.347.24.56 0 .224-.08.41-.24.56-.15.16-.33.24-.544.24a.786.786 0 0 1-.576-.24.76.76 0 0 1-.224-.56c0-.213.074-.4.224-.56a.815.815 0 0 1 .576-.224zm1.936 0a.76.76 0 0 1 .56.224c.15.16.224.347.224.56a.76.76 0 0 1-.224.56.734.734 0 0 1-.56.24c-.214 0-.4-.08-.56-.24a.76.76 0 0 1-.224-.56c0-.213.074-.4.224-.56a.795.795 0 0 1 .56-.224zm4.437-17.88c.352 0 .646.123.88.368.235.245.352.544.352.896s-.112.635-.336.848c-.213.213-.512.32-.896.32-.373 0-.672-.107-.896-.32-.224-.213-.336-.496-.336-.848s.118-.65.352-.896a1.2 1.2 0 0 1 .88-.368zm0 1.84c.374 0 .56-.208.56-.624a.619.619 0 0 0-.16-.432.518.518 0 0 0-.4-.176.551.551 0 0 0-.4.176.618.618 0 0 0-.16.432c0 .416.187.624.56.624zm-1.796 3.48c.384-.65.832-.976 1.344-.976.288 0 .65.107 1.088.32.139.075.256.128.352.16.224.085.416.128.576.128.299 0 .576-.144.832-.432l.368.288c-.448.608-.907.912-1.376.912-.213 0-.453-.048-.72-.144-.085-.043-.25-.123-.496-.24-.288-.15-.517-.224-.688-.224-.256 0-.56.16-.912.48l-.368-.272zm8.96-.56v9.936c0 .363-.112.683-.336.96-.299.373-.672.56-1.12.56h-6.992l-.56-.688v-.448h4.288l-2.752-8.352h1.36l2.768 8.352h1.376c.192 0 .347-.07.464-.208a.663.663 0 0 0 .128-.4v-9.712h1.376zm4.466-3.496-3.183.88-.272-.352v-.272l3.456-.96v.704zm-.898 3.496V34.84l-.688.56h-.672V23.544h1.36zm11.667 3a1.229 1.229 0 0 1-.496-1.024c0-.341.122-.63.368-.864.245-.245.544-.368.896-.368.341 0 .624.117.848.352.234.235.352.533.352.896 0 .736-.432 1.243-1.296 1.52l-1.968.544-.272-.352v-.272l1.568-.432zm.752-.24c.341-.17.512-.427.512-.768 0-.416-.171-.624-.512-.624-.363 0-.544.208-.544.624 0 .405.181.661.544.768zm5.825 1.336v5.84c0 .139-.016.267-.048.384h.864V35h-.576l-.528-.56h-.032c-.298.373-.672.56-1.12.56h-9.152a2.358 2.358 0 0 1-1.584-.592c-.618-.512-.928-1.195-.928-2.048v-3.008l.688-.56h.672v3.568c0 .416.144.768.432 1.056.31.299.678.448 1.104.448h8.24a.631.631 0 0 0 .464-.192.598.598 0 0 0 .144-.416V27.64h1.36zm-6.544 9.024a.74.74 0 0 1 .544.224c.16.16.24.347.24.56 0 .224-.08.41-.24.56a.715.715 0 0 1-.544.24.786.786 0 0 1-.576-.24.761.761 0 0 1-.224-.56c0-.213.075-.4.224-.56a.815.815 0 0 1 .576-.224zm9.576-15.12a1.229 1.229 0 0 1-.496-1.024c0-.341.123-.63.368-.864.245-.245.544-.368.896-.368.341 0 .624.117.848.352.235.235.352.533.352.896 0 .736-.432 1.243-1.296 1.52l-1.968.544-.272-.352v-.272l1.568-.432zm.752-.24c.341-.17.512-.427.512-.768 0-.416-.171-.624-.512-.624-.363 0-.544.208-.544.624 0 .405.181.661.544.768zm-1.455 2.816c.224 0 .411.08.56.24.15.15.224.33.224.544a.812.812 0 0 1-.224.576.76.76 0 0 1-.56.224.796.796 0 0 1-.56-.224.816.816 0 0 1-.224-.576c0-.213.075-.395.224-.544.16-.16.347-.24.56-.24zm1.952 0c.214 0 .395.08.544.24.16.15.24.33.24.544 0 .224-.08.416-.24.576a.74.74 0 0 1-.544.224.815.815 0 0 1-.576-.224.816.816 0 0 1-.224-.576c0-.213.075-.395.224-.544.16-.16.352-.24.576-.24zm.64 3.52v5.84c0 .128-.016.256-.048.384h.848V35h-.624l-.464-.56h-.048c-.288.373-.661.56-1.12.56h-2.784v-1.136h2.272c.171 0 .31-.053.416-.16a.581.581 0 0 0 .192-.448V27.64h1.36zm4.666-7.856c.352 0 .645.123.88.368.234.245.352.544.352.896s-.112.635-.336.848c-.214.213-.512.32-.896.32-.374 0-.672-.107-.896-.32-.224-.213-.336-.496-.336-.848s.117-.65.352-.896a1.2 1.2 0 0 1 .88-.368zm0 1.84c.373 0 .56-.208.56-.624a.622.622 0 0 0-.16-.432.519.519 0 0 0-.4-.176.55.55 0 0 0-.4.176.617.617 0 0 0-.16.432c0 .416.186.624.56.624zm3.248 1.68v1.248l-4.016 2.384c1.664.448 2.976 1.28 3.936 2.496.875 1.11 1.312 2.39 1.312 3.84 0 .512-.133.928-.4 1.248-.266.32-.613.48-1.04.48h-7.024v-1.136h6.496c.416 0 .624-.213.624-.64-.053-1.11-.378-2.085-.976-2.928-.853-1.237-2.218-1.984-4.096-2.24-.064 0-.096-.037-.096-.112V26.36l5.28-3.056zm5.585-6.256-3.184.88-.272-.352v-.272l3.456-.96v.704zm-2.655 4.64c-.224-.288-.336-.64-.336-1.056 0-.416.122-.747.368-.992.245-.256.57-.384.976-.384.256 0 .512.043.768.128v.656a2.091 2.091 0 0 0-.56-.08c-.555 0-.832.283-.832.848 0 .203.069.39.208.56.17.213.4.32.688.32h1.024v.272l-.32.384h-2.688v-.656h.704zm1.648 1.856V34.84l-.688.56h-.672V23.544h1.36zM73.557 52.056c.021-.33.032-.619.032-.864 0-.661-.102-1.163-.304-1.504-.192-.341-.667-.827-1.424-1.456-.534-.448-.907-.848-1.12-1.2a2.36 2.36 0 0 1-.304-1.2c0-.8.32-1.413.96-1.84.512-.352 1.12-.528 1.824-.528 1.365 0 2.208.8 2.528 2.4l-.944.32c-.181-.981-.672-1.472-1.472-1.472-.427 0-.795.112-1.104.336-.31.224-.464.49-.464.8 0 .31.08.587.24.832.17.235.517.576 1.04 1.024.043.043.085.08.128.112.63.555 1.05 1.035 1.264 1.44.213.405.32.939.32 1.6 0 .213-.01.448-.032.704l-.624.496h-.544zm.576 1.456a.76.76 0 0 1 .56.224.76.76 0 0 1 .224.56c0 .213-.075.4-.224.56a.76.76 0 0 1-.56.224.795.795 0 0 1-.56-.224.795.795 0 0 1-.224-.56.76.76 0 0 1 .224-.56.795.795 0 0 1 .56-.224zm4.612-9.968v9.712c0 .17.054.315.16.432a.607.607 0 0 0 .448.176h.208V55h-.736c-.341 0-.64-.112-.896-.336a1.487 1.487 0 0 1-.544-1.184v-9.936h1.36zm7.18.504-3.184.88-.272-.352v-.272l3.456-.96v.704zm-2.521 3.768a8.335 8.335 0 0 1 3.536-.8c1.248 0 2.218.31 2.912.928.864.79 1.296 2.08 1.296 3.872v1.664c0 .373-.118.704-.352.992-.288.352-.646.528-1.072.528h-3.856c-.608 0-1.024-.037-1.248-.112h-.064c-.214.075-.635.112-1.264.112h-3.84v-1.136h3.104a2.825 2.825 0 0 1-.56-.992 3.854 3.854 0 0 1-.224-1.312c0-.757.16-1.392.48-1.904a2.433 2.433 0 0 1 1.152-.944v-.896zm6.384 4.224c0-1.376-.235-2.352-.704-2.928-.48-.597-1.286-.896-2.416-.896-.747 0-1.43.096-2.048.288.832.01 1.488.261 1.968.752.544.544.816 1.312.816 2.304 0 .416-.064.816-.192 1.2-.139.448-.342.816-.608 1.104h2.592a.572.572 0 0 0 .368-.128.577.577 0 0 0 .224-.48V52.04zm-3.584-.496c0-.63-.15-1.13-.448-1.504-.288-.373-.688-.56-1.2-.56-.555 0-.976.208-1.264.624-.246.363-.368.859-.368 1.488.01.565.144 1.045.4 1.44.298.47.709.715 1.232.736.48-.021.874-.24 1.184-.656.309-.427.464-.95.464-1.568zm12.111-6.496-3.184.88-.272-.352v-.272l3.456-.96v.704zm-.956 2.592v6.224h.816V55h-.816c-.032 1.333-.507 2.33-1.424 2.992-.736.544-1.69.816-2.864.816-.181 0-.41-.005-.688-.016l-.528-.656v-.512c.31.043.645.064 1.008.064 2.09 0 3.136-.96 3.136-2.88V47.64h1.36zm4.942 0v5.84c0 .128-.016.256-.048.384h.848V55h-.624l-.464-.56h-.048c-.288.373-.661.56-1.12.56h-2.784v-1.136h2.272a.563.563 0 0 0 .416-.16.581.581 0 0 0 .192-.448V47.64h1.36zm-2.736 9.024a.74.74 0 0 1 .544.224c.16.16.24.347.24.56 0 .224-.08.41-.24.56-.15.16-.33.24-.544.24-.213 0-.4-.08-.56-.24a.76.76 0 0 1-.224-.56c0-.213.075-.4.224-.56a.795.795 0 0 1 .56-.224zm1.936 0a.76.76 0 0 1 .56.224c.16.16.24.347.24.56 0 .224-.08.41-.24.56a.734.734 0 0 1-.56.24c-.213 0-.4-.08-.56-.24a.761.761 0 0 1-.224-.56c0-.213.075-.4.224-.56a.796.796 0 0 1 .56-.224zm13.002.896-3.184.88-.272-.352v-.272l3.456-.96v.704zm3.696-9.92v5.84c0 .139-.016.267-.048.384h.864V55h-.64l-.448-.56h-.048c-.299.373-.672.56-1.12.56h-3.152l-.448-.56h-.048c-.299.373-.672.56-1.12.56h-3.152l-.448-.56h-.048c-.299.373-.672.56-1.12.56h-4.24v-1.136h3.712c.405 0 .608-.203.608-.608V49.48h1.36v4c0 .139-.011.267-.032.384h2.832c.405 0 .608-.203.608-.608v-4.704h1.36v4.928c0 .139-.016.267-.048.384h2.848c.405 0 .608-.203.608-.608V47.64h1.36zm6.517-7.856c.352 0 .646.123.88.368.235.245.352.544.352.896s-.112.635-.336.848c-.213.213-.512.32-.896.32-.373 0-.672-.107-.896-.32-.224-.213-.336-.496-.336-.848s.118-.65.352-.896c.246-.245.539-.368.88-.368zm0 1.84c.374 0 .56-.208.56-.624a.617.617 0 0 0-.16-.432.517.517 0 0 0-.4-.176.553.553 0 0 0-.4.176.622.622 0 0 0-.16.432c0 .416.187.624.56.624zm.157 2.496c.213 0 .395.08.544.24.16.15.24.33.24.544 0 .224-.08.416-.24.576a.74.74 0 0 1-.544.224.76.76 0 0 1-.56-.224.816.816 0 0 1-.224-.576c0-.213.075-.395.224-.544a.734.734 0 0 1 .56-.24zm-2.512 9.744c-.672-.736-1.008-1.643-1.008-2.72 0-1.035.283-1.883.848-2.544.651-.768 1.515-1.152 2.592-1.152.864 0 1.6.256 2.208.768.832.693 1.248 1.67 1.248 2.928 0 1.067-.336 1.973-1.008 2.72h1.392V55h-2.48c-.629 0-1.072-.043-1.328-.128h-.064c-.256.085-.699.128-1.328.128H118.889v-1.136h3.472zm2.432-5.264c-.651 0-1.163.23-1.536.688-.363.459-.544 1.093-.544 1.904 0 .736.197 1.36.592 1.872.405.512.901.779 1.488.8.587-.021 1.077-.288 1.472-.8.405-.512.608-1.136.608-1.872 0-.81-.187-1.445-.56-1.904-.363-.459-.869-.688-1.52-.688zm7.913-7.552-3.184.88-.272-.352v-.272l3.456-.96v.704zm-2.544 3.072c.224 0 .411.08.56.24.149.15.224.33.224.544a.816.816 0 0 1-.224.576.76.76 0 0 1-.56.224.796.796 0 0 1-.56-.224.816.816 0 0 1-.224-.576c0-.213.075-.395.224-.544.16-.16.347-.24.56-.24zm1.952 0c.213 0 .395.08.544.24.16.15.24.33.24.544 0 .224-.08.416-.24.576a.74.74 0 0 1-.544.224.815.815 0 0 1-.576-.224.816.816 0 0 1-.224-.576c0-.213.075-.395.224-.544.16-.16.352-.24.576-.24zm.64 3.52v5.84c0 .395-.128.736-.384 1.024-.288.33-.645.496-1.072.496h-2.784v-1.136h2.272a.581.581 0 0 0 .448-.192.561.561 0 0 0 .16-.416V47.64h1.36z" fill="#835B2B"/>
    <g filter="url(#69hs1swufn)">
        <ellipse cx="220.5" cy="214.5" rx="25.5" ry="1.5" fill="#3D3D3D" fill-opacity=".8"/>
    </g>
    <defs>
        <linearGradient id="cqeem03kta" x1="217.285" y1="11.664" x2="217.285" y2="36.664" gradientUnits="userSpaceOnUse">
            <stop stop-color="#EDAD60"/>
            <stop offset="1" stop-color="#9C631D"/>
        </linearGradient>
        <linearGradient id="5czcp7l6ib" x1="217.288" y1="34.044" x2="217.288" y2="50.474" gradientUnits="userSpaceOnUse">
            <stop stop-color="#EDAD60"/>
            <stop offset="1" stop-color="#9C631D"/>
        </linearGradient>
        <linearGradient id="jlhfmbhl2c" x1="217.289" y1="41.905" x2="217.289" y2="132.613" gradientUnits="userSpaceOnUse">
            <stop stop-color="#EDAD60"/>
            <stop offset="1" stop-color="#9C631D"/>
        </linearGradient>
        <linearGradient id="ycafxuxnhe" x1="189.992" y1="87.134" x2="206.287" y2="87.134" gradientUnits="userSpaceOnUse">
            <stop stop-color="#AB712A"/>
            <stop offset="1" stop-color="#E1A256"/>
        </linearGradient>
        <linearGradient id="m03wxxuhyg" x1="226.752" y1="87.255" x2="243.047" y2="87.255" gradientUnits="userSpaceOnUse">
            <stop stop-color="#A56B24"/>
            <stop offset="1" stop-color="#E2A357"/>
        </linearGradient>
        <linearGradient id="il37wuisch" x1="217.285" y1="5.117" x2="217.285" y2="14.883" gradientUnits="userSpaceOnUse">
            <stop stop-color="#EDAD60"/>
            <stop offset="1" stop-color="#9C631D"/>
        </linearGradient>
        <linearGradient id="fwm7aix2wi" x1="220.287" y1="135.63" x2="220.287" y2="196.491" gradientUnits="userSpaceOnUse">
            <stop stop-color="#EDAD60"/>
            <stop offset="1" stop-color="#9C631D"/>
        </linearGradient>
        <linearGradient id="530qotw51j" x1="200.347" y1="135.622" x2="200.347" y2="149.075" gradientUnits="userSpaceOnUse">
            <stop stop-color="#EDAD60"/>
            <stop offset="1" stop-color="#9C631D"/>
        </linearGradient>
        <linearGradient id="ntzmjm4xck" x1="243.733" y1="144.355" x2="243.733" y2="185.832" gradientUnits="userSpaceOnUse">
            <stop stop-color="#EDAD60"/>
            <stop offset="1" stop-color="#9C631D"/>
        </linearGradient>
        <radialGradient id="ef64g0kbrd" cx="0" cy="0" r="1" gradientUnits="userSpaceOnUse" gradientTransform="matrix(13.3756 0 0 13.3593 198.397 87.255)">
            <stop offset=".13" stop-color="#3280FC"/>
            <stop offset="1"/>
        </radialGradient>
        <radialGradient id="ggmkat57qf" cx="0" cy="0" r="1" gradientUnits="userSpaceOnUse" gradientTransform="matrix(13.3756 0 0 13.3593 234.903 5.389)">
            <stop offset=".13" stop-color="#3280FC"/>
            <stop offset="1"/>
        </radialGradient>
        <filter id="0nqxgfx5um" x="186" y="129" width="54" height="61" filterUnits="userSpaceOnUse" color-interpolation-filters="sRGB">
            <feFlood flood-opacity="0" result="BackgroundImageFix"/>
            <feGaussianBlur in="BackgroundImageFix" stdDeviation="10"/>
            <feComposite in2="SourceAlpha" operator="in" result="effect1_backgroundBlur_338_19316"/>
            <feBlend in="SourceGraphic" in2="effect1_backgroundBlur_338_19316" result="shape"/>
        </filter>
        <filter id="69hs1swufn" x="187" y="205" width="67" height="19" filterUnits="userSpaceOnUse" color-interpolation-filters="sRGB">
            <feFlood flood-opacity="0" result="BackgroundImageFix"/>
            <feBlend in="SourceGraphic" in2="BackgroundImageFix" result="shape"/>
            <feGaussianBlur stdDeviation="4" result="effect1_foregroundBlur_338_19316"/>
        </filter>
        <clipPath id="3pzw6oaa1l">
            <path fill="#fff" transform="translate(206 149)" d="M0 0h14v21H0z"/>
        </clipPath>
    </defs>
</svg>
