<svg width="40" height="29" viewBox="0 0 40 29" fill="none" xmlns="http://www.w3.org/2000/svg">
    <path d="M38.626 9.829c-.152-.023-.246-.081-.397-.019-.176.073-.346.165-.52.244-.29.13-.583.258-.873.39-.587.27-1.188.502-1.798.715-1.403.49-2.872 1.058-4.378 1.013-.857-.026-1.67-.312-2.312-.895l.106.098a4.528 4.528 0 0 1-.968-1.38 5.855 5.855 0 0 1-.166-.409c-.082-.218.031.134-.03-.091a4.914 4.914 0 0 1-.157-.836c-.003-.03-.024-.28-.012-.126.01.154 0-.081 0-.11 0-.092.002-.185.004-.277.002-.092.004-.177.01-.266a1.978 1.978 0 0 0-.001-.05c.003-.173.05-.36.082-.532.007-.04.05-.293.017-.102-.033.192.027-.112.037-.15.04-.162.08-.323.125-.483.024-.086.047-.175.076-.26a8.42 8.42 0 0 0 .026-.073c.077-.23.171-.459.232-.694.022-.085.038-.172.056-.259l.012-.055.034-.155c.01-.047.093-.703-.143-.442-.574.63-.907 1.455-1.216 2.245a11.093 11.093 0 0 0-.714 3.016c-.123 1.306.154 2.895 1.06 3.89 2.135 2.345 5.434.604 7.75-.489a23.647 23.647 0 0 0 1.79-.932c.343-.199.67-.419.993-.647.173-.122.349-.242.516-.372.226-.175.385-.407.567-.625.071-.085.418-.849.193-.882z" fill="#FAF8F1"/>
    <path d="M27.402 5.464c.323.171.638.347.999.422.39.081.784.142 1.174.222.752.155 1.5.339 2.24.54 1.289.35 2.56.859 3.65 1.647a6.887 6.887 0 0 1 2.519 3.43c.006.018.062.2.018.054a8.595 8.595 0 0 1 .13.495c.052.222.093.448.125.675.032.227.055.459.069.69l.002.058c.006.099.005.078-.002-.063-.016.034.004.136.005.175a9.992 9.992 0 0 1-.046 1.119c-.02.236.036-.29.007-.062l-.022.177a11.294 11.294 0 0 1-.124.743l-.029.148c-.048.242.08-.352.024-.112-.06.257-.125.512-.199.765l-.053.175.082-.26a10.498 10.498 0 0 1-.156.465c-.041.115-.085.232-.129.346l-.068.172c-.092.234.175-.417.033-.083-.097.228-.199.453-.307.675-.054.112-.111.222-.167.332.234-.467.024-.05-.036.06a15.319 15.319 0 0 1-.57.95c-.048.075-.189.262.04-.059-.047.067-.092.135-.138.202-.289.415-.598.813-.927 1.195-.054.063-.34.35-.101.118-.07.068-.134.145-.202.216a15.038 15.038 0 0 1-2.337 1.975c-.228.156-.5.327-.828.515-.294.168-.595.326-.901.473-1.294.618-2.692 1.03-4.126 1.101l.15-.007c-1.897.079-3.796-.501-5.21-1.808l.114.106c-.96-.905-1.686-1.963-2.121-3.22-.027-.082-.028-.086-.005-.01l-.056-.184c.044.151-.029-.112-.035-.138a5.777 5.777 0 0 1-.17-1.108c.014.242.002-.055.002-.102 0-.054.014-.463.025-.462.002 0-.033.254.006-.002.013-.089.031-.177.047-.265.01-.057.036-.13.033-.186a2.8 2.8 0 0 0-.017.08c.016-.064.031-.129.044-.195.03-.118.048-.237.052-.36a1.145 1.145 0 0 0-.01.082c-.01-.052.022-.142.032-.194.019-.099.059-.341-.044-.416-.104-.074-.203.055-.27.131-.414.467-.641 1.103-.806 1.699a9.209 9.209 0 0 0-.293 1.72 7.874 7.874 0 0 0 .26 2.768c.498 1.742 1.522 3.303 3.104 4.218 3.396 1.965 7.507.636 10.508-1.447 2.875-1.995 4.949-4.948 6.187-8.215 1.069-2.82 1.623-6.296.141-9.08-.678-1.272-1.782-2.277-3.04-2.946-.916-.486-1.91-.812-2.917-1.042-1.089-.249-2.2-.328-3.314-.382-.268-.013-.533-.032-.8.001-.308.04-.599.107-.901.18-.223.053-.593.96-.342 1.093h-.003z" fill="#FAF8F1"/>
    <path d="M28.744 18.73a7.986 7.986 0 0 0-.39-1.509c-.08-.212-.15-.431-.28-.618a5.021 5.021 0 0 0-.385-.488 4.825 4.825 0 0 0-1.842-1.297c-1.383-.53-3.068-.288-4.343.417-1.538.85-2.709 2.24-3.795 3.597-.275.344-.549.69-.829 1.03a30.973 30.973 0 0 1-.604.712l-.099.111c-.17.191.156-.164-.019.02a19.264 19.264 0 0 1-2.102 1.93 15.938 15.938 0 0 1-.985.712c.095-.062-.021.013-.033.021l-.21.131c-.454.276-.924.524-1.41.734-.98.423-2.009.701-3.076.765l.157-.008c-1.726.085-3.377-.563-4.647-1.735l.116.108c-.862-.812-1.543-1.822-2.024-2.905a8.204 8.204 0 0 1-.438-1.244 5.667 5.667 0 0 1-.13-.56c-.064-.375-.099-.752-.136-1.13a7.76 7.76 0 0 1-.052-1.008c.008-.839.06-1.567.225-2.388.022-.11.058-.408-.124-.38-.182.028-.33.427-.374.566C.3 16.262-.07 18.307.08 20.356c.118 1.598.46 3.18 1.28 4.57a7.036 7.036 0 0 0 2.772 2.602c1.147.594 2.41.78 3.687.65 3.205-.327 5.952-2.565 8.043-4.892.953-1.06 1.774-2.23 2.67-3.337a22.429 22.429 0 0 1 .494-.59c.043-.049.226-.253.09-.104.238-.26.484-.511.743-.75.505-.462.973-.813 1.556-1.103 1.086-.54 2.326-.748 3.516-.492.561.121 1.096.307 1.585.617.244.154.476.333.68.537.113.112.211.235.335.334.11.088.219.173.317.275.206.213.403.433.576.675.12.168.338-.52.322-.618z" fill="#FAF8F1"/>
    <path d="M9.61 5.39c.22-.407.45-.723.769-1.043a6.935 6.935 0 0 1 1.17-.918c.886-.57 1.893-.948 2.92-1.162 2.022-.421 4.305-.223 6.086.899.521.329.965.75 1.303 1.272.328.505.51.992.6 1.559.023.15.035.3.048.453-.013-.146 0 .002 0 .064 0 .083 0 .166-.004.25-.003.07-.01.142-.014.214-.005.115.01-.088.011-.091-.01.032-.009.074-.014.107a5.19 5.19 0 0 1-.034.215c-.048.276.06-.231-.008.048a6.405 6.405 0 0 1-.056.215c-.01.035-.023.07-.032.106-.004.017.1-.296.049-.16l-.076.212c-.105.278.098-.216.006-.015-.066.144-.131.289-.201.43-.011.022-.069.11-.071.142 0 .004.125-.234.059-.114-.044.08-.087.161-.132.241-.077.137-.157.272-.24.405-.04.067-.083.133-.125.199-.015.024-.09.137-.006.011l-.051.075a12.466 12.466 0 0 1-.887 1.135c-.017.02-.127.144-.049.057.072-.082-.014.015-.024.026-.062.066-.124.133-.187.197-.224.233-.458.457-.698.671-.502.45-1.036.863-1.594 1.24-.161.11-.159.107-.296.194a16.593 16.593 0 0 1-1.316.743 17.423 17.423 0 0 1-5.951 1.777c-.26.028-.522.048-.784.062l.16-.008c-1.934.09-3.988-.257-5.464-1.617l.127.118a6.085 6.085 0 0 1-1.553-2.398l-.035-.105c.003.01.04.152.017.05-.023-.096-.05-.19-.072-.287a6.253 6.253 0 0 1-.114-.682c-.005-.052-.02-.33-.015-.133.005.21 0-.086 0-.134a12.811 12.811 0 0 1 .034-.704c.019-.23-.056.322-.002.087.01-.043.024-.099.027-.142.003-.034-.091.39-.049.23.02-.071.035-.142.055-.213.092-.333-.137.418-.025.078.05-.153.096-.307.145-.46.014-.044-.138.417-.078.247l.074-.209c.061-.178-.155.342-.068.173l.049-.103c.095-.2-.156.28-.005.015.097-.172.21-.333.31-.502.059-.1.117-.2.178-.3.005-.008.084-.128.025-.04-.059.087.047-.064.058-.079.302-.414.661-.768 1.058-1.097.216-.18.335-.542.39-.806.02-.098.106-.543-.112-.48-.241.069-.48.155-.701.278-.112.062-.153.078-.247.132-.044.025-.342.215-.223.139-.516.332-.85.81-1.161 1.337a10.088 10.088 0 0 0-1.084 2.643l-.033.147c-.302 1.349.154-.801-.122.565-.072.353-.116.71-.138 1.07-.12 1.977.58 3.974 2.143 5.218 1.199.954 2.75 1.286 4.248 1.296 1.656.01 3.301-.308 4.873-.82 3.891-1.266 7.44-3.789 9.557-7.363 1.2-2.023 2.177-4.605 1.374-6.952C22.785 1.551 21.11.57 19.403.204c-3.3-.706-7.223.431-9.25 3.248-.288.4-.536.822-.749 1.267-.1.21-.268.62-.166.854.103.236.309-.063.373-.18L9.61 5.39zM20.825 25.329c-.188-.33-.412-.711-.707-.956-.27-.223-.634-.379-.969-.466-.697-.182-1.468-.059-2.037.398-1.112.893-1.63 3.242-.103 3.995.86.424 1.705-.18 2.09-.953.032-.064.182-.462.018-.452-.281.018-.537.191-.83.196-.345.005-.688-.048-.986-.233a1.388 1.388 0 0 1-.584-.721 1.199 1.199 0 0 1-.055-.386c0-.11.018-.076-.003-.024-.022.052.02-.042.037-.065.405-.598 1.27-.78 1.938-.679.375.057.711.205 1.04.389.312.173.631.298.923.512.104.076.282-.461.228-.556z" fill="#FAF8F1"/>
</svg>
