<svg width="143" height="140" viewBox="0 0 143 140" fill="none" xmlns="http://www.w3.org/2000/svg">
    <g clip-path="url(#5dnt83qxha)">
        <path style="mix-blend-mode:multiply" opacity=".6" d="M142.379 91.067a.009.009 0 0 0-.009-.009h-1.207c-.925 0-1.521-1.001-1.188-1.865.475-1.23.772-2.49.883-3.747.244-2.824-.807-5.358-1.736-6.761-3.394-5.112-9.514-7.612-13.06-9.641-.379-.217-.458-.72-.458-1.157 0-.94-.739-1.811-.78-2.75L124.64 61c-.02-.44.269-.865.269-1.305 0-.482-.369-.925-.39-1.407l-.306-6.937c-.021-.465.461-.912.461-1.377a.594.594 0 0 0-.6-.58.594.594 0 0 0-.601.58c0 .468.482.907.461 1.375l-.305 6.94c-.022.481-.391.924-.391 1.406 0 .44.289.866.27 1.305l-.184 4.134c-.042.94-.781 1.812-.781 2.752 0 .42-.081.892-.445 1.102-3.526 2.04-9.752 4.533-13.176 9.697-.228.34-.882.2-.882-.21v-4.917c0-.708-.574-1.282-1.282-1.282h-.888c-1.309 0-2.311-1.15-2.247-2.456.022-.443.033-.888.033-1.336 0-15.47-11.643-28.31-26.934-30.838-.184-.03-.29-.212-.29-.399 0-.733-.61-1.322-1.37-1.322h-.209c-.377 0-.645-.554-.645-.932 0-.733-.61-1.321-1.37-1.321-.717 0-1.307-.56-1.345-1.275l-.127-2.372c-.128-2.411 2.014-4.311 4.38-4.794 1.62-.33 3.2-.96 4.657-1.914a12.965 12.965 0 0 0 3.648-3.57c.47-.69-.564-1.358-1.263-.902-5.135 3.35-12.11 2.055-15.583-2.887C63.73 11.007 65.074 4.28 70.199.923c.313-.2.153-.718-.21-.637a13.367 13.367 0 0 0-4.446 1.877c-6.055 3.956-7.641 11.903-3.539 17.75a12.941 12.941 0 0 0 4.374 3.913c2.028 1.116 3.665 3.094 3.542 5.405l-.17 3.175a1.346 1.346 0 0 1-1.344 1.275c-.76 0-1.37.588-1.37 1.321 0 .384-.261.933-.645.933h-.21c-.76 0-1.37.588-1.37 1.321 0 .28-.146.585-.42.642-14.647 3.025-25.64 15.573-25.64 30.604 0 .448.012.893.033 1.336.064 1.307-.938 2.457-2.246 2.457h-.991a1.18 1.18 0 0 0-1.18 1.179v3.992c0 .452-.722.616-.976.241-3.393-5.111-9.52-7.61-13.06-9.64-.38-.217-.458-.721-.458-1.158 0-.934-.738-1.801-.78-2.734l-.184-4.143c-.02-.44.27-.866.27-1.306 0-.482-.37-.925-.39-1.406l-.307-6.937c-.02-.466.462-.912.462-1.378a.594.594 0 0 0-.601-.58c-.328 0-.6.263-.6.58 0 .466.481.912.46 1.378l-.305 6.937c-.021.481-.39.924-.39 1.406 0 .44.288.866.269 1.306l-.184 4.124c-.042.94-.78 1.812-.78 2.753 0 .42-.081.891-.445 1.101-3.527 2.04-9.753 4.533-13.176 9.697-.845 1.277-1.943 4.056-1.624 7.178.11 1.058.405 2.193.854 3.34.338.863-.263 1.856-1.19 1.856-.68 0-1.232.551-1.232 1.231v38.697c0 5.523 4.477 10 10 10h125.94a6.345 6.345 0 0 0 6.345-6.345v-6.298c0-.026.021-.047.047-.047a.047.047 0 0 0 .047-.047V91.067z" fill="url(#g3vjio9tyb)"/>
    </g>
    <defs>
        <linearGradient id="g3vjio9tyb" x1="-70.377" y1="-14.501" x2="208.917" y2="-14.501" gradientUnits="userSpaceOnUse">
            <stop offset=".099" stop-color="#151515"/>
            <stop offset=".755" stop-color="#fff"/>
            <stop offset="1" stop-color="#F2F6FA"/>
        </linearGradient>
        <clipPath id="5dnt83qxha">
            <path d="M0 8a8 8 0 0 1 8-8h134.379v140H0V8z" fill="#fff"/>
        </clipPath>
    </defs>
</svg>
