<svg width="253" height="225" viewBox="0 0 253 225" fill="none" xmlns="http://www.w3.org/2000/svg">
    <g clip-path="url(#3bisv6em4a)">
        <path d="M110.898 62.83s1.611 21.742 10.674 26.867c0 0-29.08-5.016-36.234-15.895-7.155-10.878 25.56-10.972 25.56-10.972z" fill="#FAEAB1"/>
        <path d="M139.86 126.975c17.922 4.899 22.158 3.53 25.35 8.328.366.552 2.242 3.367 1.861 6.975-.296 2.878-1.908 5.101-2.912 6.073-6.135 5.934-23.03-1.321-32.707-9.269-2.11-1.734-7.77-6.376-6.626-9.673.467-1.353 1.915-2.022 2.959-2.488 4.601-2.053 9.373-.692 12.075.046v.008z" fill="#E5BA73"/>
        <path d="M195.192 6.664h-3.815v25h3.815v-25z" fill="url(#595osdj4vb)"/>
        <path d="M206.458 29.044h-26.339a3.517 3.517 0 0 0-3.519 3.514v9.402a3.517 3.517 0 0 0 3.519 3.514h26.339a3.517 3.517 0 0 0 3.519-3.514v-9.402a3.517 3.517 0 0 0-3.519-3.514z" fill="url(#hjqpw9v7rc)"/>
        <path d="M182.556 36.905h21.457c27.039 0 48.987 21.92 48.987 48.927v14.285c0 15.178-12.34 27.496-27.53 27.496h-64.363c-15.198 0-27.53-12.325-27.53-27.496V85.832c0-27.006 21.948-48.927 48.987-48.927h-.008z" fill="url(#u7qdhc5qrd)"/>
        <path d="M234.213 97.512a11.558 11.558 0 0 1-5.091 1.174h-71.667c-1.782 0-3.534-.405-5.091-1.174-3.839-1.898-6.003-5.724-5.466-9.65l.039-.288c1.838-13.297 13.897-23.523 28.674-24.285a340.12 340.12 0 0 1 19.667-.45c5.364.03 10.549.186 15.54.443 14.839.761 26.985 10.948 28.83 24.292.015.093.023.194.039.288.545 3.927-1.628 7.752-5.466 9.65h-.008z" fill="#F3DCBA"/>
        <path style="mix-blend-mode:screen" d="M174.397 95.754c7.464 0 13.516-6.044 13.516-13.499 0-7.455-6.052-13.5-13.516-13.5-7.465 0-13.516 6.045-13.516 13.5 0 7.456 6.051 13.5 13.516 13.5z" fill="url(#e6ow9584ne)"/>
        <path d="M174.397 91.944c5.357 0 9.701-4.338 9.701-9.689s-4.344-9.689-9.701-9.689c-5.358 0-9.701 4.338-9.701 9.69 0 5.35 4.343 9.688 9.701 9.688z" fill="#FAEAB1"/>
        <path d="M174.144 90.267c4.497 0 8.143-3.641 8.143-8.133 0-4.492-3.646-8.134-8.143-8.134-4.498 0-8.144 3.642-8.144 8.134 0 4.492 3.646 8.133 8.144 8.133z" fill="url(#4ix6glvh0f)"/>
        <path d="M179.613 80.148a3.021 3.021 0 0 1-6.041 0 3.021 3.021 0 0 1 6.041 0zM173.19 89.704a1.206 1.206 0 1 0 .002-2.411 1.206 1.206 0 0 0-.002 2.411zM170.208 86.695a.599.599 0 1 1-1.198 0 .599.599 0 0 1 1.198 0z" fill="#FAEAB1"/>
        <path style="mix-blend-mode:screen" d="M210.903 95.754c7.465 0 13.516-6.044 13.516-13.499 0-7.455-6.051-13.5-13.516-13.5-7.464 0-13.515 6.045-13.515 13.5 0 7.456 6.051 13.5 13.515 13.5z" fill="url(#j0t0cpciqg)"/>
        <path d="M210.903 91.944c5.358 0 9.701-4.338 9.701-9.689s-4.343-9.689-9.701-9.689c-5.357 0-9.7 4.338-9.7 9.69 0 5.35 4.343 9.688 9.7 9.688z" fill="#FAEAB1"/>
        <path d="M210.903 90.389c4.498 0 8.144-3.642 8.144-8.134 0-4.492-3.646-8.134-8.144-8.134-4.497 0-8.143 3.642-8.143 8.134 0 4.492 3.646 8.134 8.143 8.134z" fill="url(#8y2ybdh28h)"/>
        <path d="M216.12 80.148a3.022 3.022 0 0 1-6.042 0 3.022 3.022 0 0 1 6.042 0zM209.697 89.704a1.206 1.206 0 1 0 0-2.41 1.206 1.206 0 0 0 0 2.41zM206.715 86.695a.6.6 0 0 1-1.199 0c0-.326.272-.599.599-.599.327 0 .6.273.6.6z" fill="#FAEAB1"/>
        <path d="M198.174 5a4.885 4.885 0 0 1-4.889 4.883A4.885 4.885 0 0 1 188.395 5a4.885 4.885 0 0 1 4.89-4.883A4.885 4.885 0 0 1 198.174 5z" fill="url(#t785i173zi)"/>
        <path d="M196.679 3.095c0 .824-.669 1.485-1.487 1.485a1.491 1.491 0 0 1-1.487-1.485c0-.817.67-1.485 1.487-1.485a1.49 1.49 0 0 1 1.487 1.485zM235.358 52.55c.062 2.279-1.799 5-3.932 5.234-2.001.218-3.597-1.82-5.24-3.927-1.619-2.076-5.169-7.403-3.76-8.911 1.861-1.991 12.784 2.224 12.932 7.597v.008zM217.093 43.865a1.696 1.696 0 1 0 .001-3.393 1.696 1.696 0 0 0-.001 3.393zM235.117 84.16c-.545.381-4.345-7.348-14.544-14.043-3.581-2.357-7.124-4.036-6.913-4.526.21-.498 4.196.428 7.388 1.905 10.168 4.712 14.715 16.213 14.061 16.664h.008zM209.004 33.911c-.125.016-.203-.692-.794-1.796 0 0-.281-.513-.6-.949-1.028-1.407-4.492-1.376-4.765-1.376-5.403.047-8.883-.295-8.883-.264 0 .03 2.538-.024 4.391-.063 5.24-.108 8.362-.388 9.701 1.011.553.584.833 1.338.833 1.338.381 1.026.249 2.076.109 2.092l.008.007z" fill="#fff"/>
        <path d="M207.883 104.479c-.133 1.291-1.207 2.286-2.507 2.411l-17.899 1.726c-1.293.124-2.546-.646-2.92-1.89a11.086 11.086 0 0 1-.381-1.71.603.603 0 0 1 .116-.459.586.586 0 0 1 .413-.226l22.586-2.177a.61.61 0 0 1 .444.14.59.59 0 0 1 .202.42c.023.591.008 1.182-.047 1.757l-.007.008z" fill="#FAEAB1"/>
        <path d="M207.883 104.479a11.948 11.948 0 0 1-10.752 10.653 11.924 11.924 0 0 1-12.504-8.188c.452 1.112 1.627 1.796 2.85 1.672l17.906-1.719c1.293-.132 2.367-1.119 2.5-2.41v-.008z" fill="#FAEAB1"/>
        <path d="M236.09 144.635v.474a10.99 10.99 0 0 1-.576 3.134c-4.929 15.031-7.879 22.962-12.021 29.378a46.21 46.21 0 0 1-2.274 3.211 58.748 58.748 0 0 1-3.503 4.152c-2.858 3.111-7.186 4.518-8.58 5-5.099 1.797-9.607 1.47-12.597 1.501h-.522c-3.005-.031-7.505.303-12.597-1.501-1.393-.482-5.73-1.889-8.579-5-7.864-8.545-10.892-15.653-17.798-36.741a10.969 10.969 0 0 1-.569-2.94 9.213 9.213 0 0 1 0-1.221c.148-2.519 1.176-4.992 2.99-7.247 3.114-3.872 7.918-5.995 12.885-6.011l23.949-.101 23.512-.093c5.076-.023 9.997 2.107 13.22 6.026 1.557 1.898 2.554 3.951 2.92 6.066.046.303.093.606.124.909.031.335.047.669.047 1.011l-.031-.007z" fill="url(#2ztlsb0m4j)"/>
        <path d="m196.259 130.715-23.949.101c-4.967.024-9.778 2.147-12.885 6.011-1.814 2.255-2.842 4.728-2.989 7.248.124-2.582 1.183-5.125 3.083-7.426 3.215-3.92 8.143-6.05 13.22-6.027l23.52.093z" fill="url(#vssi0ogtak)"/>
        <path d="M220.059 165.956c-.35-18.553-2.865-22.223.841-26.64.428-.506 2.6-3.095 6.174-3.756 2.85-.529 5.434.381 6.657 1.081 7.435 4.207 5.224 22.441.335 33.95-1.067 2.512-3.932 9.246-7.42 9.082-1.433-.062-2.484-1.267-3.223-2.13-3.278-3.826-3.309-8.787-3.364-11.587z" fill="#E5BA73"/>
        <path d="M223.477 177.621a46.196 46.196 0 0 1-2.273 3.211c-.257-.264-.483-.529-.693-.77-3.278-3.826-3.309-8.787-3.364-11.586-.35-18.554-2.865-22.224.841-26.633a11.72 11.72 0 0 1 2.881-2.488c-3.659 4.401-1.168 8.102-.818 26.601.047 2.8.094 7.761 3.364 11.595.023.023.047.046.054.07h.008z" fill="url(#4vudswxndl)"/>
        <path d="M233.964 150.505c-.109-1.99-.482-3.46-1.23-6.391-.981-3.834-2.211-5.708-1.409-6.447.522-.482 1.542-.155 1.775-.085 3.511 1.119 4.601 7.698 4.446 11.819-.094 2.52-.709 5.342-1.635 5.467-.148.023-.506 0-.771-.226-1.036-.91-1.098-2.612-1.184-4.129l.008-.008zM236.378 157.543a.73.73 0 1 1-1.464 0 .73.73 0 0 1 .732-.731.73.73 0 0 1 .732.731z" fill="#fff"/>
        <path d="M195.192 225c21.1 0 38.204-6.994 38.204-15.622s-17.104-15.622-38.204-15.622c-21.099 0-38.204 6.994-38.204 15.622S174.093 225 195.192 225z" fill="#D9D9D9" style="mix-blend-mode:soft-light"/>
        <path d="M89.153 0H36.95C16.543 0 0 16.521 0 36.901c0 20.38 16.543 36.901 36.95 36.901h52.203c20.407 0 36.95-16.52 36.95-36.9S109.56 0 89.153 0z" fill="#FAEAB1"/>
        <path d="M105.969 37.115s-1.479-13.375-.739-13.74c.732-.366 1.082 6.944.739 13.74zM107.433 43.865a.8.8 0 0 1-.802.8.8.8 0 1 1 0-1.601.8.8 0 0 1 .802.8zM96.9 38.01c0-.747-.086-2.87-1.628-4.596-1.331-1.478-3.106-1.968-3.916-1.874-.156.015-.677.108-.709.326-.07.451 2.064.77 3.667 1.968.896.668 1.955 1.866 2.593 4.175h-.008zM76.096 24.16c.825-.008 1.137 14.992.895 17.706-.24 2.714-1.222-17.698-.895-17.706zM57.52 36.998c-.358-2.03-2.678-4.307-4.127-3.95-1.448.358 1.713 1.454 2.85 2.434 1.137.98 1.277 1.516 1.277 1.516zM44.814 48.554c1.681 1.858 4.08 2.224 4.118 2.138.04-.086-2.631-.443-4.033-2.574-.661-1.003-1.315-2.823-1.744-2.823-.007 0-.03 0-.038.016-.226.163.63 2.053 1.705 3.243h-.008zM38.655 48.173c-.537.738-.607-18.189-.95-20.04v-.124c0-.124-.015-.365-.023-.847 0-.11-.101-.482-.187-.56-.7-.638-3.791-.319-2.475-.49 1.16-.148 2.506-.039 2.841.086.148.054.156.342.195.45.67 3.749 1.308 20.553.592 21.525h.007zM121.471 27.753c-.818.606-6.533-10.444-20.804-18.01-8.026-4.26-14.574-5.194-14.403-5.972.203-.91 9.56-1.244 18.047 2.994 12.745 6.369 18.055 20.327 17.167 20.988h-.007zM122.537 32.986a.972.972 0 1 0 .002-1.944.972.972 0 0 0-.002 1.944zM46.067 5.49c3.784 0 6.852-.696 6.852-1.555 0-.86-3.068-1.556-6.852-1.556-3.784 0-6.851.697-6.851 1.556 0 .859 3.067 1.555 6.851 1.555zM61.311 3.935c0 .466-.833.84-1.853.84s-1.852-.374-1.852-.84c0-.467.832-.84 1.852-.84s1.853.373 1.853.84zM25.373 31.392c.133 2.387.117 4.323-.047 4.331-.163.008-.397-1.92-.537-4.3-.132-2.387-.117-4.323.047-4.331.164-.008.397 1.92.537 4.3zM112.603 78.57c1.113 3.125 2.281 4.953 2.008 5.116-.303.186-2.312-1.796-3.503-4.41-2.087-4.564-.965-9.51-.522-9.525.374-.015.109 3.468 2.009 8.81l.008.008z" fill="#fff"/>
        <path d="m42.04 18.7-5.15 1.425-.475-.575v-.625l5.625-1.55V18.7zm0 2.525-5.15 1.45-.475-.6v-.6l5.625-1.55v1.3zM40.775 26.1v14.725c0 .167.05.3.15.4.1.15.258.225.475.225h.65V44h-1.625c-.683 0-1.283-.242-1.8-.725-.6-.55-.9-1.225-.9-2.025V26.1h3.05zm8.632 6.4v8.95h1.275V44h-.875l-.925-1.025h-.05c-.567.683-1.275 1.025-2.125 1.025h-4.825v-2.55h3.775c.233 0 .4-.067.5-.2.15-.133.225-.3.225-.5V32.5h3.025zm-1.6 13.325c.433 0 .808.158 1.125.475.317.317.475.7.475 1.15 0 .45-.158.833-.475 1.15a1.537 1.537 0 0 1-1.125.475c-.45 0-.833-.158-1.15-.475a1.567 1.567 0 0 1-.475-1.15c0-.45.158-.833.475-1.15.317-.317.7-.475 1.15-.475zm6.018-12.9c1.65-.483 3.092-.725 4.325-.725 2.017 0 3.642.633 4.875 1.9 1.117 1.15 1.675 2.583 1.675 4.3v2.85c0 .683-.233 1.3-.7 1.85-.55.6-1.217.9-2 .9H50.5v-2.55h10.525c.417 0 .625-.208.625-.625v-2.25c0-1.167-.383-2.083-1.15-2.75-.75-.667-1.791-1-3.125-1-.767 0-1.95.175-3.55.525v-2.425zm19.83-.425v8.95h1.276V44h-1.3c-.134 2-.925 3.533-2.375 4.6-1.2.883-2.675 1.325-4.425 1.325-.3 0-.625-.008-.975-.025l-1.225-1.525V47.3c.533.083 1.05.125 1.55.125 2.95 0 4.425-1.433 4.425-4.3V32.5h3.05zm5.588 4.325c0-1.583.55-2.783 1.65-3.6.866-.667 2.05-1 3.55-1 1.466 0 2.708.433 3.725 1.3 1.283 1.1 1.925 2.658 1.925 4.675 0 1.9-.509 3.475-1.525 4.725-.984 1.217-2.259 1.825-3.825 1.825-1.384 0-2.475-.517-3.275-1.55-.534.533-1.184.8-1.95.8h-4.775v-2.55h3.85a.65.65 0 0 0 .475-.2.579.579 0 0 0 .175-.425v-4zm3.025 4.35c.616.667 1.325 1 2.125 1 .783 0 1.425-.342 1.925-1.025.5-.7.75-1.6.75-2.7 0-1.2-.275-2.142-.825-2.825-.5-.583-1.15-.875-1.95-.875-.6 0-1.075.192-1.425.575-.4.367-.6.867-.6 1.5v4.35z" fill="#835B2B"/>
        <g filter="url(#nixngwrwtm)">
            <ellipse cx="201.5" cy="207.5" rx="28.5" ry="1.5" fill="#3D3D3D" fill-opacity=".8"/>
        </g>
    </g>
    <defs>
        <linearGradient id="595osdj4vb" x1="193.285" y1="6.664" x2="193.285" y2="31.664" gradientUnits="userSpaceOnUse">
            <stop stop-color="#EDAD60"/>
            <stop offset="1" stop-color="#9C631D"/>
        </linearGradient>
        <linearGradient id="hjqpw9v7rc" x1="193.289" y1="29.044" x2="193.289" y2="45.474" gradientUnits="userSpaceOnUse">
            <stop stop-color="#EDAD60"/>
            <stop offset="1" stop-color="#9C631D"/>
        </linearGradient>
        <linearGradient id="u7qdhc5qrd" x1="193.289" y1="36.905" x2="193.289" y2="127.613" gradientUnits="userSpaceOnUse">
            <stop stop-color="#EDAD60"/>
            <stop offset="1" stop-color="#9C631D"/>
        </linearGradient>
        <linearGradient id="4ix6glvh0f" x1="165.992" y1="82.134" x2="182.287" y2="82.134" gradientUnits="userSpaceOnUse">
            <stop stop-color="#AB712A"/>
            <stop offset="1" stop-color="#E1A256"/>
        </linearGradient>
        <linearGradient id="8y2ybdh28h" x1="202.752" y1="82.255" x2="219.047" y2="82.255" gradientUnits="userSpaceOnUse">
            <stop stop-color="#A56B24"/>
            <stop offset="1" stop-color="#E2A357"/>
        </linearGradient>
        <linearGradient id="t785i173zi" x1="193.285" y1=".117" x2="193.285" y2="9.883" gradientUnits="userSpaceOnUse">
            <stop stop-color="#EDAD60"/>
            <stop offset="1" stop-color="#9C631D"/>
        </linearGradient>
        <linearGradient id="2ztlsb0m4j" x1="196.287" y1="130.63" x2="196.287" y2="191.491" gradientUnits="userSpaceOnUse">
            <stop stop-color="#EDAD60"/>
            <stop offset="1" stop-color="#9C631D"/>
        </linearGradient>
        <linearGradient id="vssi0ogtak" x1="176.347" y1="130.622" x2="176.347" y2="144.075" gradientUnits="userSpaceOnUse">
            <stop stop-color="#EDAD60"/>
            <stop offset="1" stop-color="#9C631D"/>
        </linearGradient>
        <linearGradient id="4vudswxndl" x1="219.733" y1="139.355" x2="219.733" y2="180.832" gradientUnits="userSpaceOnUse">
            <stop stop-color="#EDAD60"/>
            <stop offset="1" stop-color="#9C631D"/>
        </linearGradient>
        <radialGradient id="e6ow9584ne" cx="0" cy="0" r="1" gradientUnits="userSpaceOnUse" gradientTransform="matrix(13.3756 0 0 13.3593 174.397 82.255)">
            <stop offset=".13" stop-color="#3280FC"/>
            <stop offset="1"/>
        </radialGradient>
        <radialGradient id="j0t0cpciqg" cx="0" cy="0" r="1" gradientUnits="userSpaceOnUse" gradientTransform="matrix(13.3756 0 0 13.3593 210.903 .389)">
            <stop offset=".13" stop-color="#3280FC"/>
            <stop offset="1"/>
        </radialGradient>
        <clipPath id="3bisv6em4a">
            <path fill="#fff" d="M0 0h253v225H0z"/>
        </clipPath>
        <filter id="nixngwrwtm" x="165" y="198" width="73" height="19" filterUnits="userSpaceOnUse" color-interpolation-filters="sRGB">
            <feFlood flood-opacity="0" result="BackgroundImageFix"/>
            <feBlend in="SourceGraphic" in2="BackgroundImageFix" result="shape"/>
            <feGaussianBlur stdDeviation="4" result="effect1_foregroundBlur_257_22412"/>
        </filter>
    </defs>
</svg>
