<svg width="304" height="276" viewBox="0 0 304 276" fill="none" xmlns="http://www.w3.org/2000/svg">
    <path d="M286.85 229.266s29.133-40.206 10.002-83.97c-13.602-31.123-43.679-41.852-45.942-58.06-2.262-16.2 14.886-41.053 3.227-66.362C242.472-4.434 209.68-4.51 198.56 8.847c-11.119 13.357-33.837 7.15-56.981 12.028-23.144 4.876-21.913 26.448-27.576 57.926-5.67 31.477-44.139 15.187-58.24 44.758-8.177 17.152 9.39 30.857-19.816 43.803-29.206 12.946-57.567 53.347-9.988 80.537 47.579 27.196 210.884 51.206 260.891-18.64v.007z" fill="#F4EDBE"/>
    <path d="M286.85 229.266s29.133-40.206 10.002-83.97c-13.602-31.123-43.679-41.852-45.942-58.06-2.262-16.2 14.886-41.053 3.227-66.362C242.472-4.434 209.68-4.51 198.56 8.847c-11.119 13.357-33.837 7.15-56.981 12.028-23.144 4.876-21.913 26.448-27.576 57.926-5.67 31.477-44.139 15.187-58.24 44.758-8.177 17.152 9.39 30.857-19.816 43.803-29.206 12.946-57.567 53.347-9.988 80.537 47.579 27.196 210.884 51.206 260.891-18.64v.007z" fill="#F4EDBE"/>
    <path d="M108.846 50.775s2.182 22.585-4.359 32.136c-6.541 9.557-15.092 15.213-30.437 12.984-15.345-2.23-12.83-13.003-1.258-19.47 11.572-6.466 10.215-18.018 16.683-25.65 6.468-7.632 19.158-13.712 19.371 0z" fill="#F4EDBE"/>
    <path d="M151.92 178.319c-57.714 0-109.778 6.371-146.603 16.581-9.023 16.784-7.12 37.14 20.635 53.005 47.579 27.196 210.884 51.206 260.892-18.639 0 0 9.855-13.611 14.34-33.612-36.958-10.653-90.147-17.335-149.264-17.335z" fill="#EACF9B"/>
    <path d="M190.049 222.767s31.369-1.862 48.178 7.588c16.809 9.45-4.059 27.817-19.97 30.426 15.851-13.256 34.437-22.775-28.208-38.014zM10.627 207.953s28.394-12.825 47.692-10c19.298 2.824 7.1 27.259-6.654 35.309 9.535-17.917 23.07-33.327-41.038-25.309zM77.523 191.1s16.05 5.89 5.131 20.926c13.369-9.665 17.954-22.37-5.13-20.926z" fill="#E5C48F"/>
    <path d="M13.974 224.287s25.42-.842 19.724 25.638c12.304-20.52 10.806-40.331-19.724-25.638zM211.25 186.97s27.336 3.402 15.085 18.222c13.369-5.536 7.999-19.051-15.085-18.222zM198.52 198.434s27.336 3.401 15.086 18.222c13.368-5.536 7.998-19.052-15.086-18.222zM103.981 181.188s11.286 1.406 6.229 7.524c5.523-2.286 3.3-7.866-6.229-7.524zM56.396 236.182s29.24 3.635 16.137 19.494c14.3-5.922 8.557-20.375-16.137-19.494zM190.116 184.893s14.619 1.818 8.071 9.747c7.154-2.964 4.279-10.19-8.071-9.747zM268.624 199.061s22.226 6.118 10.088 16.942c11.832-2.983 9.177-14.839-10.088-16.942z" fill="#E5C48F"/>
    <path d="M241.707 193.025s34.809 8.595 11.146 42.105c28.168-16.302 11.945-43.549-11.146-42.105zM197.668 179.687l48.744-25.353 33.717 36.766s-71.088-5.27-82.461-11.413z" fill="#E5C48F"/>
    <path d="m246.412 154.334-48.744 25.353c4.452 2.407 18.074 4.68 32.999 6.555l15.745-31.908z" fill="#F7CF9A"/>
    <path d="m29.758 188.902 24.249-29.736 31.562 22.231s-46.867 10.07-55.81 7.505z" fill="#E5C48F"/>
    <path d="m54.007 159.173-24.581 30.154c3.5 1.007 13.162-.349 23.21-1.856l1.371-28.298z" fill="#F7CF9A"/>
    <path d="M278.08 192.975s1.597-18.773 5.257-32.548c-1.664-.95-2.662-.792-2.662-.792s-5.656 21.692-6.488 32.934c1.95 1.451 3.893.406 3.893.406z" fill="#CEA467"/>
    <path d="M282.066 161.427s.22 6.017 0 9.133c.446-.177.832-1.057.832-1.057s-.333 4.686-.832 5.801c.612-.26.832-1.102.832-1.102l-.832 4.275c2.608-1.583 3.939-7.017 3.713-8.075.499 1.108.612 2.742.612 2.742s1.052-4.959-1.497-7.866c.832.108 1.71 1.216 1.71 1.216s-.825-3.8-4.538-5.067z" fill="#CEA467"/>
    <path d="M281.347 160.452s3.753 4.845 5.417 7.537c.259-.386.06-1.317.06-1.317s2.502 4.047 2.755 5.231c.352-.538.033-1.355.033-1.355l1.85 3.977c1.211-2.704-.912-7.91-1.724-8.664 1.072.646 2.13 1.938 2.13 1.938s-2.076-4.662-5.903-5.688c.752-.361 2.136.083 2.136.083s-2.934-2.692-6.754-1.742z" fill="#CEA467"/>
    <path d="M281.347 160.097s6.149 1.413 9.243 2.451c-.06-.456-.845-1.045-.845-1.045s4.651 1.565 5.65 2.319c-.1-.627-.892-1.058-.892-1.058l4.106 1.913c-.905-2.813-6.049-5.492-7.174-5.574 1.258-.158 2.942.177 2.942.177s-4.738-2.299-8.358-.734c.332-.735 1.69-1.248 1.69-1.248s-4.066-.26-6.348 2.806l-.014-.007z" fill="#CEA467"/>
    <path d="M281.347 160.249s5.869-2.242 9.024-3.103c-.326-.336-1.325-.386-1.325-.386s4.745-1.299 6.016-1.229c-.459-.456-1.371-.367-1.371-.367l4.505-.71c-2.449-1.792-8.271-1.133-9.243-.576.925-.823 2.502-1.482 2.502-1.482s-5.257.741-7.26 4.015c-.179-.779.619-1.944.619-1.944s-3.473 2.033-3.46 5.789l-.007-.007zM281.294 161.307s-2.921 5.339-4.132 8.24c-.32-.342-.273-1.292-.273-1.292s-1.823 4.364-1.877 5.573c-.432-.481-.253-1.336-.253-1.336l-1.184 4.199c-1.637-2.495-.373-7.948.299-8.81-.951.798-1.79 2.23-1.79 2.23s1.298-4.909 4.911-6.486c-.798-.247-2.096.393-2.096.393s2.462-3.091 6.388-2.711h.007z" fill="#CEA467"/>
    <path d="M282.385 160.724s-5.583 2.838-8.298 4.58c-.06-.456.539-1.216.539-1.216s-4.092 2.622-4.851 3.597c-.073-.633.586-1.235.586-1.235l-3.467 2.831c.133-2.939 4.405-6.764 5.476-7.113-1.257.146-2.801.874-2.801.874s3.979-3.356 7.899-2.71c-.513-.634-1.963-.805-1.963-.805s3.866-1.228 6.88 1.197z" fill="#CEA467"/>
    <path d="M282.545 160.401s-6.189-1.247-9.449-1.577c.259-.386 1.238-.595 1.238-.595s-4.905-.5-6.149-.222c.373-.525 1.284-.589 1.284-.589l-4.565.038c2.09-2.172 7.946-2.476 8.997-2.09-1.058-.658-2.735-1.045-2.735-1.045s5.317-.133 7.879 2.762c.033-.798-.958-1.818-.958-1.818s3.793 1.431 4.458 5.13v.006z" fill="#CEA467"/>
    <path d="M282.478 160.541s-4.278-4.434-6.734-6.498c.446-.171 1.371.196 1.371.196s-3.693-3.116-4.871-3.572c.626-.222 1.404.228 1.404.228l-3.746-2.489c3.021-.615 7.985 2.369 8.604 3.268-.459-1.121-1.591-2.363-1.591-2.363s4.412 2.832 4.738 6.6c.513-.633.326-2.008.326-2.008s2.216 3.256.506 6.644l-.007-.006z" fill="#CEA467"/>
    <path d="M281.52 160.978s3.028-5.289 4.885-7.86c-.48-.063-1.278.507-1.278.507s2.795-3.87 3.82-4.586c-.666-.076-1.305.545-1.305.545l3.001-3.275c-3.087.102-7.146 4.136-7.519 5.15.166-1.197.945-2.661.945-2.661s-3.56 3.763-2.921 7.493c-.659-.494-.826-1.875-.826-1.875s-1.324 3.674 1.198 6.562zM203.81 183.506s.746-8.747 2.449-15.169c-.778-.443-1.238-.367-1.238-.367s-2.635 10.108-3.021 15.346c.905.678 1.81.19 1.81.19z" fill="#CEA467"/>
    <path d="M205.667 168.8s.106 2.805 0 4.256c.206-.083.386-.494.386-.494s-.153 2.185-.386 2.704c.286-.12.386-.513.386-.513l-.386 1.995c1.218-.741 1.837-3.274 1.73-3.762.233.519.286 1.279.286 1.279s.493-2.311-.698-3.667c.385.051.798.564.798.564s-.386-1.773-2.116-2.362z" fill="#CEA467"/>
    <path d="M205.334 168.35s1.75 2.261 2.522 3.515c.12-.177.027-.614.027-.614s1.164 1.887 1.284 2.438c.167-.253.013-.633.013-.633l.866 1.855c.565-1.26-.426-3.686-.806-4.034.499.304.992.906.992.906s-.965-2.173-2.748-2.648c.346-.164.991.038.991.038s-1.371-1.254-3.147-.81l.006-.013z" fill="#CEA467"/>
    <path d="M205.334 168.185s2.868.659 4.306 1.14c-.027-.215-.393-.487-.393-.487s2.169.728 2.628 1.083c-.046-.292-.419-.494-.419-.494l1.91.893c-.419-1.311-2.821-2.559-3.347-2.597.586-.076 1.371.082 1.371.082s-2.21-1.07-3.9-.342c.153-.342.785-.582.785-.582s-1.896-.121-2.954 1.304h.013z" fill="#CEA467"/>
    <path d="M205.335 168.255s2.735-1.045 4.205-1.444c-.153-.158-.619-.177-.619-.177s2.21-.602 2.802-.57c-.213-.216-.639-.171-.639-.171l2.103-.33c-1.145-.836-3.86-.532-4.306-.272.433-.386 1.165-.69 1.165-.69s-2.449.348-3.387 1.868c-.087-.361.286-.906.286-.906s-1.617.944-1.61 2.698v-.006zM205.308 168.749s-1.364 2.489-1.923 3.838c-.147-.158-.127-.602-.127-.602s-.845 2.033-.872 2.597c-.199-.228-.119-.621-.119-.621l-.553 1.957c-.765-1.165-.173-3.705.14-4.104-.446.374-.838 1.039-.838 1.039s.605-2.286 2.289-3.021c-.373-.114-.979.184-.979.184s1.152-1.438 2.982-1.261v-.006z" fill="#CEA467"/>
    <path d="M205.82 168.477s-2.602 1.323-3.866 2.134c-.027-.215.253-.564.253-.564s-1.91 1.223-2.263 1.672c-.033-.291.273-.576.273-.576l-1.617 1.317c.06-1.368 2.056-3.154 2.549-3.312-.586.07-1.305.405-1.305.405s1.857-1.564 3.68-1.266c-.239-.298-.911-.374-.911-.374s1.803-.57 3.207.557v.007z" fill="#CEA467"/>
    <path d="M205.893 168.325s-2.881-.583-4.405-.735c.12-.177.579-.279.579-.279s-2.289-.234-2.861-.101c.173-.247.598-.272.598-.272l-2.129.019c.972-1.014 3.7-1.153 4.192-.976-.492-.31-1.277-.487-1.277-.487s2.475-.064 3.673 1.285c.013-.373-.446-.848-.446-.848s1.763.665 2.076 2.394z" fill="#CEA467"/>
    <path d="M205.86 168.388s-1.996-2.065-3.141-3.027c.206-.076.639.088.639.088s-1.724-1.45-2.269-1.665c.293-.102.652.107.652.107l-1.744-1.159c1.411-.285 3.72 1.102 4.013 1.52-.213-.526-.739-1.102-.739-1.102s2.057 1.318 2.21 3.078c.239-.291.153-.937.153-.937s1.031 1.52.233 3.097h-.007z" fill="#CEA467"/>
    <path d="M205.414 168.597s1.411-2.464 2.276-3.661c-.22-.025-.599.235-.599.235s1.304-1.806 1.777-2.141c-.306-.032-.606.253-.606.253l1.398-1.526c-1.438.044-3.328 1.925-3.507 2.4.073-.557.439-1.241.439-1.241s-1.657 1.754-1.358 3.49c-.306-.228-.386-.874-.386-.874s-.618 1.71.559 3.059l.007.006zM94.792 182.575s-2.09-12.54-1.99-22.117c-1.251-.373-1.877-.114-1.877-.114s-.08 15.068 1.252 22.554c1.517.659 2.615-.323 2.615-.323z" fill="#CEA467"/>
    <path d="M92.136 161.307s1.152 3.908 1.524 5.979c.26-.184.366-.817.366-.817s.566 3.122.426 3.927c.36-.26.36-.849.36-.849l.166 2.926c1.444-1.431 1.404-5.193 1.085-5.852.512.652.858 1.704.858 1.704s-.14-3.408-2.296-4.928c.566-.057 1.325.539 1.325.539s-1.178-2.363-3.82-2.635l.007.006z" fill="#CEA467"/>
    <path d="M91.504 160.775s3.268 2.609 4.805 4.117c.106-.291-.18-.874-.18-.874s2.316 2.274 2.675 3.015c.14-.406-.206-.893-.206-.893l1.876 2.324c.34-1.957-1.916-5.042-2.575-5.415.812.259 1.717.944 1.717.944s-2.136-2.743-4.818-2.832c.433-.348 1.411-.272 1.411-.272s-2.376-1.317-4.718-.12l.013.006z" fill="#CEA467"/>
    <path d="M91.445 160.547s4.265 0 6.46.209c-.119-.291-.724-.557-.724-.557s3.307.316 4.085.665c-.166-.399-.758-.558-.758-.558l3.008.634c-1.065-1.71-4.878-2.686-5.63-2.565.799-.298 1.956-.33 1.956-.33s-3.487-.785-5.603.779c.093-.532.899-1.07.899-1.07s-2.709.443-3.687 2.799l-.006-.006z" fill="#CEA467"/>
    <path d="M91.465 160.642s3.466-2.356 5.39-3.401c-.273-.171-.932-.051-.932-.051s2.888-1.564 3.733-1.716c-.38-.228-.958-.032-.958-.032l2.835-1.146c-1.904-.804-5.61.507-6.15 1.02.467-.678 1.392-1.349 1.392-1.349s-3.32 1.285-4.086 3.73c-.246-.481.08-1.368.08-1.368s-1.937 1.856-1.305 4.313zM91.61 161.345s-1.024 3.94-1.33 6.023c-.266-.177-.393-.804-.393-.804s-.465 3.135-.3 3.933c-.365-.253-.385-.836-.385-.836l-.073 2.932c-1.49-1.387-1.57-5.149-1.271-5.82-.493.665-.805 1.729-.805 1.729s.026-3.414 2.136-4.991c-.566-.038-1.305.577-1.305.577s1.098-2.401 3.734-2.743h-.007z" fill="#CEA467"/>
    <path d="M92.23 160.8s-3.181 2.705-4.672 4.257c-.113-.292.153-.881.153-.881s-2.242 2.337-2.582 3.091c-.153-.405.173-.899.173-.899l-1.796 2.381c-.406-1.944 1.757-5.098 2.402-5.485-.799.285-1.69.995-1.69.995s2.05-2.8 4.724-2.971c-.439-.336-1.417-.228-1.417-.228s2.33-1.387 4.711-.26h-.006z" fill="#CEA467"/>
    <path d="M92.283 160.566s-4.266.12-6.455.393c.107-.292.712-.577.712-.577s-3.294.418-4.066.786c.153-.399.746-.583.746-.583l-2.988.716c1.005-1.736 4.791-2.825 5.55-2.73-.806-.272-1.963-.272-1.963-.272s3.46-.887 5.623.62c-.114-.525-.932-1.045-.932-1.045s2.722.361 3.78 2.686l-.007.006z" fill="#CEA467"/>
    <path d="M92.256 160.661s-3.546-2.255-5.496-3.243c.266-.177.931-.076.931-.076s-2.94-1.482-3.786-1.602c.373-.241.958-.063.958-.063l-2.868-1.064c1.877-.862 5.623.342 6.182.836-.492-.665-1.437-1.305-1.437-1.305s3.36 1.184 4.205 3.61c.233-.494-.126-1.368-.126-1.368s1.996 1.799 1.437 4.275z" fill="#CEA467"/>
    <path d="M91.704 161.098s1.105-3.92 1.89-5.884c-.326.032-.752.526-.752.526s1.184-2.958 1.737-3.585c-.446.051-.765.558-.765.558l1.417-2.604c-2.01.533-3.993 3.788-4.066 4.51-.093-.811.173-1.881.173-1.881s-1.703 3.002-.659 5.352c-.512-.222-.852-1.102-.852-1.102s-.252 2.603 1.877 4.116v-.006zM35.887 194.818s.745-26.576-8.185-58.338c2.968-1.698 3.58-.817 3.58-.817s10.095 38.71 11.579 58.775c-3.72 2.191-6.974.38-6.974.38z" fill="#CEA467"/>
    <path d="M29.506 138.545s-.4 10.735 0 16.296c-.792-.323-1.484-1.881-1.484-1.881s.592 8.36 1.484 10.349c-1.092-.463-1.484-1.97-1.484-1.97l1.484 7.632c-4.652-2.825-7.027-12.528-6.628-14.409-.892 1.976-1.091 4.896-1.091 4.896s-1.884-8.854 2.675-14.035c-1.484.19-3.055 2.166-3.055 2.166s1.47-6.783 8.105-9.044h-.006z" fill="#CEA467"/>
    <path d="M30.79 136.809s-6.694 8.652-9.662 13.446c-.466-.69-.107-2.35-.107-2.35s-4.472 7.221-4.91 9.342c-.626-.962-.06-2.419-.06-2.419l-3.301 7.093c-2.163-4.832 1.63-14.117 3.074-15.46-1.91 1.153-3.806 3.458-3.806 3.458s3.7-8.315 10.527-10.146c-1.338-.639-3.806.146-3.806.146s5.237-4.807 12.05-3.11z" fill="#CEA467"/>
    <path d="M30.79 136.176s-10.973 2.521-16.49 4.37c.113-.811 1.51-1.868 1.51-1.868s-8.304 2.786-10.074 4.135c.173-1.121 1.59-1.887 1.59-1.887L0 144.333c1.61-5.022 10.793-9.804 12.803-9.943-2.243-.285-5.25.316-5.25.316s8.457-4.097 14.919-1.317c-.586-1.311-3.015-2.223-3.015-2.223s7.26-.469 11.326 5.003l.007.007z" fill="#CEA467"/>
    <path d="M30.79 136.448s-10.474-4.003-16.097-5.542c.585-.601 2.369-.69 2.369-.69s-8.465-2.312-10.734-2.191c.825-.817 2.45-.659 2.45-.659l-8.046-1.267c4.372-3.205 14.766-2.027 16.496-1.032-1.65-1.47-4.472-2.641-4.472-2.641s9.39 1.33 12.956 7.163c.32-1.393-1.097-3.471-1.097-3.471s6.201 3.623 6.175 10.33zM30.876 138.336s5.217 9.525 7.373 14.706c.573-.614.486-2.312.486-2.312s3.248 7.79 3.347 9.95c.772-.861.453-2.381.453-2.381l2.116 7.492c2.921-4.459.672-14.187-.54-15.726 1.698 1.419 3.202 3.971 3.202 3.971s-2.31-8.759-8.764-11.571c1.424-.437 3.74.703 3.74.703s-4.399-5.517-11.406-4.839l-.007.007z" fill="#CEA467"/>
    <path d="M28.933 137.297s9.955 5.06 14.813 8.176c.106-.81-.965-2.166-.965-2.166s7.3 4.681 8.664 6.416c.126-1.127-1.045-2.21-1.045-2.21l6.189 5.048c-.233-5.245-7.859-12.072-9.769-12.686 2.243.259 4.998 1.558 4.998 1.558s-7.107-5.992-14.094-4.839c.918-1.128 3.5-1.432 3.5-1.432s-6.9-2.191-12.284 2.135h-.007z" fill="#CEA467"/>
    <path d="M28.647 136.72s11.046-2.229 16.862-2.818c-.465-.69-2.209-1.064-2.209-1.064s8.757-.887 10.967-.399c-.666-.944-2.29-1.051-2.29-1.051l8.152.076c-3.726-3.87-14.18-4.421-16.057-3.724 1.89-1.178 4.878-1.869 4.878-1.869s-9.49-.234-14.061 4.928c-.06-1.425 1.71-3.243 1.71-3.243s-6.76 2.552-7.958 9.158l.006.006z" fill="#CEA467"/>
    <path d="M28.767 136.967s7.64-7.91 12.018-11.602c-.799-.304-2.45.348-2.45.348s6.589-5.555 8.691-6.378c-1.11-.399-2.508.412-2.508.412l6.688-4.44c-5.397-1.096-14.248 4.224-15.352 5.827.825-2.002 2.841-4.212 2.841-4.212s-7.872 5.048-8.45 11.78c-.92-1.127-.58-3.584-.58-3.584s-3.953 5.814-.898 11.856v-.007z" fill="#CEA467"/>
    <path d="M30.477 137.753s-5.403-9.431-8.717-14.023c.852-.107 2.282.9 2.282.9s-4.984-6.91-6.814-8.189c1.185-.133 2.33.975 2.33.975L14.2 111.57c5.516.177 12.75 7.372 13.415 9.19-.293-2.134-1.684-4.744-1.684-4.744s6.355 6.707 5.21 13.37c1.178-.88 1.471-3.344 1.471-3.344s2.362 6.549-2.136 11.711z" fill="#CEA467"/>
    <path d="M236.31 118.264c8.627-8.212 8.627-21.525 0-29.737-8.628-8.212-22.616-8.212-31.244 0s-8.628 21.525 0 29.737 22.616 8.212 31.244 0z" fill="#fff"/>
    <path d="M80.312 251.3s14.486-.323 27.988 1.824c13.502 2.147 21.68 5.523 38.383 4.908 16.695-.614 20.562-4.889 32.167-2.748 11.598 2.134 40.605-.855 44.471-.583-19.338-36.842-29.326-60.156-29.326-60.156s-32.872-.57-41.084-1.507c-8.218-.944-40.445 0-40.445 0l-32.148 58.268-.006-.006z" fill="#F29846"/>
    <path d="m111.807 195.85-.246-.152 4.145-6.447.247.152-4.146 6.447zM113.437 195.882l-.246-.146 3.986-6.447.246.152-3.986 6.441zM115.068 195.92l-.247-.146 3.82-6.447.253.145-3.826 6.448zM116.705 195.951l-.253-.139 3.66-6.447.252.139-3.659 6.447zM118.335 195.983l-.253-.133 3.494-6.447.259.139-3.5 6.441zM119.972 196.021l-.266-.133 3.34-6.441.26.127-3.334 6.447zM121.602 196.053l-.266-.127 3.174-6.441.266.12-3.174 6.448zM123.232 196.084l-.266-.114 3.015-6.447.266.12-3.015 6.441zM124.756 196.363l-.266-.114 2.955-6.688.273.114-2.962 6.688zM126.294 196.654l-.273-.107 2.894-6.948.267.108-2.888 6.947zM127.891 196.813l-.273-.102 2.761-7.074.273.108-2.761 7.068zM129.474 197.015l-.273-.095 2.649-7.245.273.101-2.649 7.239zM130.945 197.421l-.273-.095 2.649-7.613.272.095-2.648 7.613zM132.595 197.668l-.279-.089 2.468-7.822.28.083-2.469 7.828zM134.046 197.668l-.28-.089 2.489-7.784.28.083-2.489 7.79zM135.949 197.661l-.286-.076 2.056-7.752.286.076-2.056 7.752zM137.619 197.655l-.279-.063 1.85-7.714.279.063-1.85 7.714zM139.11 198.523l-.286-.057 1.83-8.55.286.057-1.83 8.55zM140.94 198.516l-.286-.044 1.47-8.518.286.05-1.47 8.512zM142.41 198.991l-.286-.044 1.471-8.955.286.05-1.471 8.949zM144.18 198.516l-.292-.044 1.171-8.436.293.038-1.172 8.442zM145.864 198.51l-.293-.032.958-8.404.287.032-.952 8.404zM147.514 198.922l-.292-.026.778-8.784.286.025-.772 8.785zM149.351 198.504l-.293-.019.406-8.329.293.013-.406 8.335zM150.915 198.497l-.293-.006.313-8.297.292.007-.312 8.296zM152.396 190.22l-.104 8.258.293.003.105-8.258-.294-.003zM154.17 190.262l-.293.004.104 8.226.293-.003-.104-8.227zM155.653 198.497l-.313-8.182.293-.013.306 8.189-.286.006zM157.323 198.504l-.513-8.151.293-.019.513 8.151-.293.019zM158.947 197.953l-.666-7.562.286-.026.672 7.562-.292.026zM160.55 197.497l-.805-7.068.293-.032.798 7.062-.286.038zM162.201 197.535l-.985-7.062.292-.038.979 7.062-.286.038zM163.857 197.649l-1.171-7.138.286-.044 1.172 7.131-.287.051zM165.375 196.996l-1.218-6.447.286-.051 1.218 6.448-.286.05zM167.005 197.034l-1.377-6.447.279-.057 1.384 6.447-.286.057zM168.642 197.079l-1.55-6.448.286-.069 1.543 6.447-.279.07zM170.272 197.117l-1.71-6.448.286-.069 1.704 6.441-.28.076zM171.903 197.155l-1.87-6.448.279-.076 1.87 6.448-.279.076zM173.54 197.193l-2.037-6.448.28-.082 2.029 6.447-.272.083zM175.17 197.231l-2.196-6.441.273-.095 2.196 6.447-.273.089zM176.8 197.275l-2.355-6.447.272-.102 2.356 6.448-.273.101zM178.437 197.313l-2.522-6.447.266-.102 2.522 6.441-.266.108zM180.068 197.351l-2.689-6.447.273-.108 2.682 6.447-.266.108zM181.698 197.389l-2.848-6.447.266-.114 2.848 6.447-.266.114zM183.335 197.427l-3.015-6.447.267-.114 3.007 6.441-.259.12zM184.965 197.465l-3.174-6.441.266-.127 3.168 6.448-.26.12zM186.596 197.509l-3.334-6.447.259-.133 3.334 6.447-.259.133zM188.232 197.547l-3.5-6.447.26-.133 3.493 6.441-.253.139zM189.863 197.585l-3.66-6.447.253-.139 3.66 6.447-.253.139zM191.493 197.623l-3.819-6.447.252-.146 3.82 6.448-.253.145zM193.13 197.661l-3.986-6.447.246-.146 3.986 6.441-.246.152zM194.76 197.699l-4.145-6.447.246-.152 4.146 6.447-.247.152zM82.208 249.907l-7.701 11.573.455.275 7.702-11.573-.456-.275zM84.917 250.005l-7.395 11.576.46.266 7.395-11.576-.46-.266zM87.636 250.079l-7.096 11.568.465.259 7.097-11.568-.466-.259zM90.369 250.121l-6.797 11.57.47.251 6.797-11.571-.47-.25zM93.092 250.2l-6.49 11.572.476.241 6.49-11.571-.476-.242zM95.805 250.282l-6.18 11.575.48.232 6.18-11.574-.48-.233zM98.531 250.351l-5.884 11.573.486.223 5.883-11.573-.485-.223zM101.259 250.416l-5.594 11.571.49.214 5.594-11.57-.49-.215zM103.982 250.503l-5.485 12.013.494.204 5.485-12.012-.494-.205zM106.703 250.544l-5.362 12.467.499.195 5.362-12.468-.499-.194zM109.427 250.598l-5.131 12.691.503.184 5.131-12.691-.503-.184zM112.151 250.712l-4.909 12.999.507.173 4.909-12.999-.507-.173zM114.881 250.779l-4.92 13.66.51.167 4.92-13.661-.51-.166zM117.599 250.832l-4.588 14.043.515.152 4.587-14.043-.514-.152zM120.317 250.876l-4.6 13.98.514.153 4.601-13.979-.515-.154zM123.04 250.956l-3.805 13.913.522.13 3.805-13.914-.522-.129zM125.77 251.026l-3.443 13.849.525.118 3.442-13.849-.524-.118zM128.497 251.136l-3.413 15.348.527.107 3.413-15.349-.527-.106zM131.231 251.205l-2.736 15.284.531.087 2.736-15.285-.531-.086zM133.954 251.259l-2.74 16.067.532.082 2.74-16.067-.532-.082zM136.66 251.323l-2.164 15.156.534.069 2.164-15.156-.534-.069zM139.394 251.402l-1.776 15.088.536.057 1.775-15.087-.535-.058zM142.122 251.485l-1.429 15.769.537.044 1.429-15.769-.537-.044zM144.842 251.542l-.768 14.955.538.025.769-14.955-.539-.025zM147.571 251.635l-.582 14.892.539.019.582-14.892-.539-.019zM150.284 251.689l-.182 14.826.539.006.182-14.826-.539-.006zM153.548 251.755l-.539.006.193 14.762.539-.006-.193-14.762zM156.261 251.82l-.539.019.575 14.696.538-.019-.574-14.696zM158.982 251.881l-.538.032.954 14.633.538-.031-.954-14.634zM161.736 251.926l-.537.044 1.24 13.572.537-.044-1.24-13.572zM164.464 251.983l-.536.057 1.489 12.677.536-.057-1.489-12.677zM167.191 252.036l-.534.07 1.82 12.676.534-.07-1.82-12.676zM169.899 252.106l-.533.082 2.172 12.805.532-.081-2.171-12.806zM172.632 252.161l-.53.094 2.264 11.569.53-.094-2.264-11.569zM175.346 252.223l-.528.106 2.566 11.57.528-.106-2.566-11.57zM178.09 252.265l-.525.118 2.869 11.57.525-.118-2.869-11.57zM180.817 252.322l-.521.13 3.171 11.57.521-.129-3.171-11.571zM183.525 252.392l-.518.141 3.472 11.571.519-.141-3.473-11.571zM186.257 252.447l-.514.152 3.775 11.571.514-.152-3.775-11.571zM188.974 252.505l-.511.163 4.077 11.571.511-.163-4.077-11.571zM195.566 264.321l-4.379-11.571.506-.171 4.378 11.571-.505.171zM194.43 252.622l-.503.185 4.682 11.572.503-.184-4.682-11.573zM197.127 252.722l-.498.194 4.98 11.569.499-.194-4.981-11.569zM199.851 252.777l-.494.205 5.283 11.571.495-.205-5.284-11.571zM202.589 252.814l-.49.214 5.588 11.573.49-.214-5.588-11.573zM205.304 252.895l-.485.224 5.887 11.571.485-.223-5.887-11.572zM208.025 252.956l-.48.233 6.189 11.571.48-.233-6.189-11.571zM210.753 253.01l-.476.241 6.491 11.571.476-.242-6.491-11.57zM213.48 253.059l-.471.25 6.795 11.571.47-.25-6.794-11.571zM216.199 253.13l-.466.259 7.095 11.569.465-.259-7.094-11.569zM218.926 253.186l-.461.267 7.399 11.573.461-.267-7.399-11.573zM221.648 253.233l-.456.274 7.702 11.573.456-.274-7.702-11.573z" fill="#F29846"/>
    <path d="M144.214 248.519c-8.318 0-14.147-1.102-20.283-2.254-2.801-.526-5.696-1.077-8.95-1.539-11.139-1.596-20.13-1.375-20.216-1.375l-1.943.051 22.392-46.596.752-.019c1.218-.031 29.965-.709 36.892 0 6.787.703 36.878 1.134 37.184 1.14l.779.013.313.678c.086.19 8.797 19.114 18.785 45.772l.619 1.647-1.837-.114c-.898-.057-3.626.114-6.794.31-8.185.507-20.542 1.279-27.536.12-5.263-.874-8.471-.291-12.916.513-3.413.621-7.659 1.387-13.927 1.596-1.152.038-2.256.057-3.314.057zm-47.599-7.479c3.287.019 10.434.221 18.725 1.412 3.308.475 6.236 1.026 9.064 1.558 6.774 1.279 13.175 2.483 23.044 2.16 6.082-.203 10.055-.919 13.561-1.558 4.519-.817 8.085-1.463 13.782-.52 6.707 1.115 18.891.355 26.963-.145 2.196-.14 4.013-.247 5.324-.298-8.671-22.984-16.244-39.901-17.841-43.423-4.897-.076-30.27-.481-36.625-1.14-6.156-.639-31.136-.114-35.814-.012l-20.17 41.966h-.013z" fill="#FFD385"/>
    <path d="M116.571 206.573s-6.108 5.111-5.895 10.862c.206 5.75-1.364 13.458 8.551 18.291 9.908 4.832 8.457 1.608 14.38 4.946 5.922 3.338 11.159 3.731 13.076 4.624 1.909.893 7.752 1.317 10.454 2.463 2.701 1.153 3.26-1.102 4.511-.918 1.251.19 1.81 1.526 3.061 1.609 1.251.076.486.462 2.136 1.266 1.651.805 1.251.463 2.782 1.419 1.53.956 8.218.69 12.324-2.185 4.105-2.875 7.918-6.726 7.612-8.974-.299-2.243-3.32-2.141-3.081-2.965.24-.829 5.138-3.242 5.138-7.042 0-3.801-.786-9.26-3.567-11.04-2.782-1.786-71.475-12.356-71.475-12.356h-.007z" fill="#EFCDB1" style="mix-blend-mode:multiply"/>
    <path d="M140.807 100.094s-1.058-.754-2.21-.507c-1.151.247-.046 5.46 1.458 6.847 1.504 1.387 3.181.715 3.267 0 .087-.716-2.515-6.346-2.515-6.346v.006zM166.313 100.094s1.058-.754 2.209-.507.047 5.46-1.457 6.847c-1.504 1.387-3.181.715-3.267 0-.087-.716 2.515-6.346 2.515-6.346v.006zM144.427 109.423s.851 5.409-.559 10.558H162.7s-1.178-6.777.352-11.761c-3.121.728-18.625 1.203-18.625 1.203z" fill="#EEB294"/>
    <path d="M140.807 100.094s-.087 3.61 1.371 6.555c1.457 2.945 2.428 5.377 4.278 6.258 1.857.88 10.062 1.469 12.936.253 2.875-1.216 6.508-8.069 7.007-12.521-7.313-.97-25.586-.545-25.586-.545h-.006z" fill="#663A16"/>
    <path d="M153.164 111.133s7.18.785 11.419-5.599c4.239-6.384 4.358-15.238-2.469-20.73-6.827-5.49-17.068-1.234-20.249 4.15-3.181 5.376-1.883 15.345 1.65 18.373 3.534 3.027 5.883 3.47 9.656 3.806h-.007z" fill="#EDEDED"/>
    <path d="M153.27 106.351s5.989.653 9.529-4.674c3.541-5.326 3.634-12.717-2.062-17.297-5.697-4.579-14.241-1.026-16.896 3.459-2.655 4.484-1.57 12.806 1.378 15.333 2.947 2.527 4.911 2.901 8.051 3.179z" fill="#fff"/>
    <path d="M116.618 114.997s2.422-5.549 5.037-6.777c2.616-1.235 2.516-.393 2.489 0-.033.392-2.848 1.317-3.893 4.902 1.371-2.299 3.501-4.396 4.678-4.902 1.178-.507 1.764.221 1.504.703-.259.475-3.4 1.988-4.086 5.909.619-1.317 1.764-3.781 3.567-5.016.785-.558 1.311.221.819.899-.493.671-2.156 2.071-3.008 5.713.785-1.482 1.178-3.61 2.369-4.522.685-.323.818.31.406 1.235-.406.925-2.223 4.427-1.883 6.846.346 2.426-1.471 7.005-1.471 7.005l-.146 1.47h-4.219l-2.156-13.459-.007-.006z" fill="#EEB294"/>
    <path d="M115.959 130.292s2.096-4.484 0-8.177c-2.096-3.698-.525-6.669-1.044-9.468-.526-2.8 1.829-1.679 2.289-.672.459 1.008-.526 2.015 1.111 3.978s3.074 7.226 3.074 8.461c0 1.236-.459 4.314-.459 4.314l-4.971 1.57v-.006z" fill="#E8A080"/>
    <path d="M192.179 114.997s-2.502-5.549-5.211-6.777c-2.708-1.235-2.602-.393-2.568 0 .033.392 2.941 1.317 4.025 4.902-1.417-2.299-3.619-4.396-4.837-4.902-1.218-.507-1.824.221-1.557.703.272.475 3.52 1.988 4.225 5.909-.645-1.317-1.823-3.781-3.686-5.016-.812-.558-1.351.221-.845.899.505.678 2.229 2.071 3.114 5.713-.812-1.482-1.218-3.61-2.456-4.522-.712-.323-.845.31-.426 1.235.42.925 2.303 4.427 1.944 6.846-.353 2.426 1.523 7.005 1.523 7.005l.153 1.47h4.366l2.229-13.459.007-.006z" fill="#EEB294"/>
    <path d="M192.857 130.292s-2.162-4.484 0-8.177c2.163-3.698.539-6.669 1.085-9.468.539-2.8-1.897-1.679-2.369-.672-.472 1.008.539 2.015-1.151 3.978s-3.181 7.226-3.181 8.461c0 1.236.472 4.314.472 4.314l5.144 1.57v-.006z" fill="#E8A080"/>
    <path d="M121.263 127.828s-5.177-.221-6.947 1.121c-.353 5.827.119 7.398-2.236 10.533-2.356 3.135-6.515 12.04-3.554 19.076 9.789-7.758 12.737-30.723 12.737-30.723v-.007zM184.506 127.809s8.431-.209 10.195 1.134c.352 5.827-.12 7.397 2.235 10.533 2.356 3.135 6.515 12.04 3.554 19.076-9.789-7.758-15.984-30.736-15.984-30.736v-.007z" fill="#E5BA73"/>
    <path d="M144.926 234.37s24.129 5.359 34.722 3.009c10.594-2.35 10.947-7.879 10.062-14.941-.885-7.055-3.966-15.042-6.182-17.145-2.216-2.102-38.609 29.071-38.609 29.071l.007.006z" fill="#4A3852"/>
    <path d="M129.241 227.061s-4.325 2.35-2.914 5.549c1.411 3.192 6.441 5.123 10.773 7.479 4.326 2.35 8.125 4.453 14.3 5.124 3.088.754 4.945 2.774 6.888 1.09 1.943-1.679-1.458-2.901-3.088-3.319-1.63-.418-.086-1.007.659-.716.752.292 1.544 1.894 3.793 2.014 2.249.127 2.296-2.014 1.63-2.565-.665-.544-2.249-1.216-3.62-1.514-1.371-.291-.838-.969.047-.633.885.336 1.317 1.178 3.946 1.343 2.628.171 3.201-1.932 2.542-2.521-.659-.589-3.221-.589-4.372-1.051-1.145-.463.086-.589.399-.545.306.044 1.81.671 3.441.671 1.63 0 3.886-.753 3.62-2.691-.267-1.932-1.591-1.723-4.06-2.268-2.468-.544-33.99-5.459-33.99-5.459l.006.012z" fill="#EFAC8E"/>
    <path d="M140.008 238.709c8.218 3.224 15.951-5.061 25.14-3.68.759.241 1.378.608 1.804 1.165.273-.373.419-.836.339-1.406-.266-1.931-1.59-1.722-4.059-2.267-2.469-.545-33.991-5.459-33.991-5.459s-3.214 1.748-3.194 4.281c2.682 2.02 5.976 2.533 9.616 3.686 1.451.462 2.901 3.224 4.352 3.68h-.007z" fill="#E8987C"/>
    <path d="M157.33 235.213s-1.611 4.877-6.928 7.79c3.627-.152 7.733-6.15 8.378-7.79-.625-.184-1.45 0-1.45 0z" fill="#E8987C"/>
    <path d="M121.915 193.032s-5.65 4.199-7.945 12.439c-2.296 8.233-.353 21.508 13.069 26.214 13.422 4.706 37.963 4.706 46.966 0 9.004-4.706 12.005-15.295 11.3-23.529-.706-8.234-10.062-12.604-10.062-12.604l-53.321-2.52h-.007z" fill="#695772"/>
    <path d="M117.257 212.026c1.324 5.808 5.896 13.275 19.051 15.72 21.72 4.034 37.87-4.966 42.994-12.192.879-1.242 1.484-2.407 1.903-3.528h-63.948z" fill="#4A3852"/>
    <path d="M141.452 120.545s-17.361 4.484-20.662 6.048c-3.294 1.571-4.824 14.789-7.885 17.702-3.061 2.914-5.883 10.533-3.999 15.574 1.883 5.042 12.709 1.121 12.709 1.121.353 6.613-2.002 12.047-.059 16.246 1.943 4.199-2.829 11.761-2.829 15.631 0 3.87-.352 10.419-1.41 11.761-1.058 1.343-5.65 16.303 16.07 20.337 21.72 4.035 40.785-2.185 45.909-9.411 5.124-7.227 1.237-12.097 1.237-17.646 0-5.548 1.411-9.076 1.411-13.781 0-4.706-1.943-9.241-1.058-12.94.885-3.698 2.648-11.09 2.648-11.09s3.181 4.035 10.062 4.371c6.887.335 9.888-9.412 5.117-16.974-4.764-7.562-6.887-10.083-8.83-13.611-1.943-3.528-6.122-7.676-7.653-8.404-1.53-.729-12.244-3.25-15.598-4.428-3.353-1.178-19.184-4.199-25.193-.506h.013z" fill="#C58940"/>
    <path d="M187.833 161.909c-4.378-4.339-3.427-6.429-3.453-9.716-.027-3.287-.779-17.626-2.136-20.026-.3 9.259.605 14.491-1.964 20.919-2.568 6.429-1.81 8.386-3.32 11.223-1.511 2.831-12.231 13.896-24.009 17.183 8.305-.298 19.81-7.543 22.365-8.183 2.549-.64 3.487 6.087 0 9.38-3.487 3.287-8.471 9.462-9.229 10.64 9.968-7.796 8.491-6.897 9.229-2.71.739 4.186 1.345 10.608-.472 14.573-.599 1.311-.293 2.983-.08 4.965-4.106 3.883-15.505 12.066-35.934 8.418 9.07 2.888 24.103 4.237 35.987-4.485-.253 2.186-1.118 4.618-3.407 7.271 3.767-1.741 6.575-3.857 8.085-6.073 4.798-7.043 1.158-11.793 1.158-17.202 0-5.409 1.324-8.848 1.324-13.434 0-4.585-1.816-9.012-.991-12.616.825-3.604 2.482-10.811 2.482-10.811s2.981 3.933 9.429 4.262c1.963.102 3.58-.709 4.771-2.09-.193.102-5.536 2.781-9.835-1.476v-.012z" fill="url(#c475g60wka)"/>
    <path d="M126.912 167.242c1.571.918 11.646 5.06 18.007 5.256-5.237-2.102-14.906-6.637-18.007-10.558-3.107-3.92.207-9.576 0-13.756-.206-4.186-.439-12.534-3.021-13.756 1.291 5.212-.805 16.562-2.628 22.699-1.804 6.067-10.408 4.699-10.587 4.668 3.66 1.837 10.939-.798 10.939-.798.353 6.612-2.003 12.046-.059 16.245 1.943 4.199-2.829 11.761-2.829 15.631 0 3.87-.352 10.419-1.41 11.762-.885 1.127-4.239 11.774 7.399 17.588.22-1.976.945-4.136 3.075-4.054 3.899.152 9.316-3.375 4.478-7.055-4.831-3.68-9.343-11.812-8.058-16.562 1.284-4.75.159-11.812 3.58-9.665 3.413 2.147 4.318 3.065 5.769 9.665.805-3.066 3.387-8.741-2.575-12.883-5.963-4.142-5.643-15.333-4.073-14.415v-.012z" fill="url(#1ra7d9g06b)"/>
    <path d="M141.452 120.545s.885-3.363 2.416-4.149c1.53-.785 8.757-1.127 13.595-.785 4.837.342 6.241 1.286 6.947 1.628.705.342 2.236 3.806 2.236 3.806s-15.478-3.249-25.194-.507v.007z" fill="url(#ely18jf59c)"/>
    <path d="M187.481 227.429c-1.118-4.149-4.985-4.472-7.061-3.528-2.076.944-5.709 8.905-7.712 11.318-2.003 2.407-8.944 5.32-8.944 5.32-1.038.456-4.252.9-4.239 2.869.014 1.97 1.631 2.603 3.927 2.648a3.51 3.51 0 0 0 1.064-.146c-.279.735-.06 1.533 1.631 1.533.425 0 .765-.057 1.051-.146-.08.07-.153.146-.213.228-.665.969-.306 1.932 1.857 1.976 2.162.044 2.468-1.178 3.314-1.45.838-.273 1.058.019-.307.608-1.364.589-2.901 1.627-1.723 2.349 1.178.729 3.886 0 5.59-1.235 1.703-1.235 4.471-3.806 6.414-6.276 1.944-2.47 6.475-11.932 5.357-16.075l-.006.007zm-20.23 16.315c.486-.291 1.278-.171.752.291-.253.222-.931.412-1.623.646.405-.43.678-.823.871-.937zm3.268 2.438c-.579.33-1.631.393-2.469.665.426-.329.745-.703 1.277-.918 1.058-.418 2.077-.253 1.192.253z" fill="#EEB294"/>
    <path d="M177.532 247.569s-6.435-1.152-9.003-5.864c.12 3.337 5.137 7.074 9.003 5.864z" fill="#EAA486"/>
    <path d="M167.191 247.291c.346-.108.619-.273.852-.45-.333.108-.625.247-.852.45z" fill="#EEB294"/>
    <path d="M179.895 224.249c-2.123 1.818-5.351 8.747-7.194 10.964-.825.994-2.502 2.077-4.179 3.002-2.109 1.127-4.625 2.255-4.758 2.312 1.225-.323 2.496 1.07 3.308.481.452-.241.073-2.223 2.908-2.806h.006c13.715-1.216 6.395-10.178 9.895-13.953h.014zm-10.92 14.029.572-.038a8.76 8.76 0 0 1-.572.038z" fill="#EAA486"/>
    <path d="M166.373 244.681c-.745.247-1.504.539-1.73.957a2.464 2.464 0 0 0-.127.272c.819-.247 1.418-.754 1.857-1.229z" fill="#EEB294"/>
    <defs>
        <linearGradient id="c475g60wka" x1="168.249" y1="132.167" x2="168.249" y2="221.361" gradientUnits="userSpaceOnUse">
            <stop stop-color="#EDAD60"/>
            <stop offset="1" stop-color="#9C631D"/>
        </linearGradient>
        <linearGradient id="1ra7d9g06b" x1="127.797" y1="134.428" x2="127.797" y2="222.223" gradientUnits="userSpaceOnUse">
            <stop stop-color="#EDAD60"/>
            <stop offset="1" stop-color="#9C631D"/>
        </linearGradient>
        <linearGradient id="ely18jf59c" x1="154.049" y1="115.479" x2="154.049" y2="121.045" gradientUnits="userSpaceOnUse">
            <stop stop-color="#EDAD60"/>
            <stop offset="1" stop-color="#9C631D"/>
        </linearGradient>
    </defs>
</svg>
