<svg width="217" height="218" viewBox="0 0 217 218" fill="none" xmlns="http://www.w3.org/2000/svg">
    <g clip-path="url(#4o8r9pbxua)">
        <path d="M216.907 109.693c2.284-52.019-41.468-96.183-97.724-98.645C62.926 8.587 15.469 48.761 13.185 100.78c-2.285 52.018 41.468 96.183 97.724 98.644 56.256 2.462 103.713-37.713 105.998-89.731z" fill="#C58940"/>
        <path d="M109.535 173.877c44.187 0 80.007-33.774 80.007-75.436 0-41.663-35.82-75.437-80.007-75.437-44.186 0-80.006 33.774-80.006 75.437 0 41.662 35.82 75.436 80.006 75.436z" fill="#FAEAB1" opacity=".25"/>
        <g opacity=".96">
            <path d="M140.98 105.698c-.024 16.623-1.162 33.278-4.083 49.665a179.788 179.788 0 0 1-2.621 12.202c-1.026 4.033-2.211 8.031-3.663 11.938a72.342 72.342 0 0 1-2.419 5.77c-.896 1.884-1.891 3.729-3.046 5.478-1.16 1.741-2.477 3.408-4.097 4.778-.811.681-1.7 1.283-2.676 1.725-.975.439-2.039.716-3.119.736a7.825 7.825 0 0 1-3.152-.58c-.998-.396-1.909-.972-2.738-1.629-1.66-1.327-3.004-2.976-4.186-4.702-1.178-1.735-2.184-3.574-3.096-5.451a70.302 70.302 0 0 1-2.449-5.757c-1.47-3.901-2.666-7.895-3.702-11.926a176.922 176.922 0 0 1-2.646-12.197c-1.489-8.186-2.502-16.45-3.185-24.737a323.342 323.342 0 0 1-1.049-24.92c-.018-4.158.086-8.315.232-12.469.151-4.155.376-8.307.678-12.452.607-8.291 1.518-16.565 2.877-24.771a183.953 183.953 0 0 1 2.436-12.234c.961-4.047 2.078-8.062 3.465-11.99a70.577 70.577 0 0 1 2.329-5.797c.867-1.894 1.839-3.748 2.981-5.499 1.145-1.744 2.46-3.408 4.098-4.739.818-.66 1.719-1.233 2.706-1.622a7.62 7.62 0 0 1 3.111-.554c1.062.03 2.108.296 3.074.722.967.428 1.856 1.01 2.674 1.669 1.634 1.328 2.986 2.952 4.187 4.658 1.196 1.713 2.239 3.526 3.182 5.384a71.287 71.287 0 0 1 2.561 5.699c1.547 3.868 2.823 7.836 3.933 11.845a170.768 170.768 0 0 1 2.853 12.146c3.205 16.332 4.505 32.99 4.549 49.614l.001-.003zm-.992 0a291.257 291.257 0 0 0-1.001-24.84c-.686-8.258-1.726-16.493-3.269-24.637a169.434 169.434 0 0 0-2.736-12.122c-1.07-4.001-2.306-7.961-3.809-11.82a71.215 71.215 0 0 0-2.495-5.682c-.918-1.852-1.936-3.657-3.103-5.36-1.171-1.697-2.491-3.307-4.077-4.62-.793-.652-1.653-1.225-2.585-1.647-.931-.416-1.935-.69-2.956-.715a7.272 7.272 0 0 0-2.981.556c-.946.382-1.815.945-2.607 1.595-1.584 1.31-2.865 2.957-3.979 4.689-1.112 1.739-2.059 3.582-2.903 5.469a69.836 69.836 0 0 0-2.261 5.777c-1.344 3.917-2.422 7.922-3.343 11.962a184.26 184.26 0 0 0-2.32 12.21c-1.284 8.19-2.12 16.447-2.653 24.72-.536 8.273-.733 16.567-.72 24.856-.015 8.288.27 16.578.892 24.843.628 8.264 1.588 16.507 3.02 24.67.717 4.08 1.555 8.14 2.559 12.158 1.005 4.017 2.17 7.996 3.604 11.876a69.942 69.942 0 0 0 2.391 5.718c.889 1.862 1.871 3.682 3.017 5.392 1.148 1.703 2.454 3.318 4.039 4.601.793.636 1.655 1.188 2.591 1.565.932.379 1.934.589 2.936.555 1.003-.025 1.991-.288 2.907-.706.916-.422 1.761-1.001 2.537-1.659 1.552-1.327 2.83-2.963 3.957-4.68 1.124-1.725 2.094-3.551 2.968-5.42a72.068 72.068 0 0 0 2.36-5.731c1.415-3.887 2.568-7.869 3.562-11.889.992-4.02 1.82-8.082 2.53-12.164 1.422-8.163 2.37-16.408 2.999-24.672.635-8.265.928-16.556.927-24.846l.002-.002z" fill="#fff" style="mix-blend-mode:soft-light"/>
            <path d="M182.99 105.698c-.02 5.349-.359 10.7-1.074 16.002a116.74 116.74 0 0 1-3.219 15.713c-2.902 10.295-7.287 20.205-13.255 29.101-2.984 4.443-6.366 8.625-10.148 12.418-3.778 3.793-7.962 7.191-12.498 10.043-4.538 2.846-9.438 5.132-14.572 6.683a55.309 55.309 0 0 1-15.857 2.336 55.333 55.333 0 0 1-15.861-2.324c-5.136-1.548-10.04-3.83-14.582-6.675-4.541-2.849-8.728-6.245-12.512-10.037-3.785-3.792-7.174-7.973-10.163-12.417-5.977-8.896-10.369-18.81-13.282-29.109a115.886 115.886 0 0 1-3.236-15.72c-.712-5.307-1.048-10.661-1.065-16.014.02-5.352.358-10.706 1.073-16.012a115.792 115.792 0 0 1 3.244-15.716c2.92-10.296 7.318-20.204 13.298-29.093 2.99-4.44 6.378-8.617 10.164-12.405 3.783-3.787 7.969-7.18 12.51-10.023 4.54-2.837 9.442-5.107 14.571-6.654a55.186 55.186 0 0 1 15.841-2.333 55.248 55.248 0 0 1 15.837 2.344c5.127 1.55 10.025 3.822 14.562 6.664 4.537 2.844 8.716 6.24 12.495 10.029 3.781 3.79 7.164 7.967 10.149 12.407 5.97 8.888 10.361 18.792 13.269 29.084a116.623 116.623 0 0 1 3.228 15.71c.718 5.3 1.06 10.65 1.082 16l.001-.002zm-1.136 0c-.003-5.3-.321-10.603-1.014-15.86a115.55 115.55 0 0 0-3.141-15.577c-2.815-10.217-7.065-20.077-12.915-28.94-2.923-4.427-6.243-8.6-9.962-12.39-3.719-3.786-7.832-7.2-12.32-10.046-4.489-2.836-9.337-5.123-14.423-6.673a54.851 54.851 0 0 0-15.712-2.345 54.8 54.8 0 0 0-15.71 2.354c-5.084 1.553-9.929 3.843-14.414 6.682-4.484 2.848-8.591 6.266-12.305 10.052-3.715 3.79-7.03 7.964-9.947 12.39-5.84 8.863-10.083 18.72-12.887 28.932-2.794 10.224-4.149 20.825-4.146 31.418.003 10.594 1.363 21.194 4.163 31.414 2.81 10.208 7.058 20.061 12.9 28.915 2.919 4.425 6.235 8.593 9.948 12.38 3.714 3.782 7.819 7.196 12.301 10.037 4.484 2.833 9.328 5.111 14.404 6.663a54.721 54.721 0 0 0 15.69 2.362 54.753 54.753 0 0 0 15.694-2.351c5.078-1.549 9.925-3.823 14.413-6.655 4.487-2.838 8.597-6.25 12.316-10.031 3.718-3.786 7.04-7.954 9.964-12.377 5.852-8.857 10.108-18.713 12.929-28.925a115.531 115.531 0 0 0 3.148-15.575c.696-5.256 1.017-10.558 1.023-15.858l.003.004z" fill="#fff" style="mix-blend-mode:soft-light"/>
            <path d="m29.795 69.17 21.251-.137 21.251-.078 42.501-.063 42.5.069 21.251.085 21.251.15a.05.05 0 0 1 .05.05.051.051 0 0 1-.05.05l-21.251.148-21.251.086-42.5.07-42.5-.064-21.252-.079-21.25-.137a.074.074 0 0 1 0-.149zM54.448 33.645l15.087-.139 15.088-.077c5.03-.033 10.058-.03 15.087-.04l15.088-.023 30.175.069 15.087.086 15.088.149a.05.05 0 0 1 .05.05.051.051 0 0 1-.05.05l-15.088.149-15.087.085-30.175.07-15.088-.023c-5.03-.01-10.058-.007-15.087-.04l-15.088-.08-15.087-.137a.075.075 0 0 1 0-.15zM22.41 104.695l23.096-.137 23.097-.079 46.194-.063 46.193.069 23.097.086 23.096.149a.05.05 0 0 1 .05.05.05.05 0 0 1-.05.05l-23.096.149-23.097.086-46.193.069-46.194-.063-23.097-.079-23.096-.137a.073.073 0 0 1-.074-.075c0-.041.033-.074.074-.074v-.001zM29.795 140.219l21.251-.137 21.251-.078 42.501-.063 42.5.069 21.251.085 21.251.149a.05.05 0 0 1 .05.05.05.05 0 0 1-.05.05l-21.251.149-21.251.086-42.5.069-42.5-.063-21.252-.079-21.25-.137a.074.074 0 0 1-.075-.075c0-.04.034-.074.074-.074v-.001zM178.186 176.081H57.489a.261.261 0 1 1 0-.522h120.697a.261.261 0 1 1 0 .522z" fill="#fff" style="mix-blend-mode:soft-light"/>
        </g>
        <path d="M168.569 124.131c5.779-35.434-5.363-68.684-25.997-84.478 6.824-2.021 13.9-2.401 21.01-1.133 36.478 6.512 52.779 47.951 45.383 93.3-7.396 45.348-39.706 77.103-72.167 70.925-7.097-1.351-13.613-4.403-19.387-8.823 24.388-7.223 45.377-34.357 51.157-69.792l.001.001z" fill="#B47A34"/>
        <path d="M142.572 39.653c6.824-2.021 13.9-2.401 21.01-1.133 32.84 5.863 49.328 40.035 46.892 79.884-.426 6.979-5.863 12.155-11.573 11.069l-20.285-3.861c-5.377-1.023-9.126-6.727-8.733-13.3 1.844-30.854-8.992-58.636-27.311-72.657v-.002z" fill="#B47A34"/>
        <path d="M142.572 39.653c6.824-2.021 13.9-2.401 21.01-1.133 32.84 5.863 49.328 40.035 46.892 79.884-.426 6.979-5.863 12.155-11.573 11.069l-20.285-3.861c-5.377-1.023-9.126-6.727-8.733-13.3 1.844-30.854-8.992-58.636-27.311-72.657v-.002z" fill="#B47A34"/>
        <path d="M199.703 110.611c1.036-4.146-2.23-8.529-7.294-9.789-5.064-1.26-10.009 1.079-11.045 5.225-1.036 4.147 2.23 8.529 7.294 9.79 5.064 1.26 10.009-1.08 11.045-5.226zM111.789 113.323c-5.779 35.434 6.839 73.882 27.473 89.674-9.917-1.671-15.39-2.713-22.487-4.064-32.46-6.179-52.779-47.951-45.383-93.299 7.397-45.35 39.707-77.103 72.167-70.925 7.097 1.35 22.519 2.774 30.254 5.758-32.086 3.828-56.245 37.421-62.024 72.855v.001z" fill="#B47A34"/>
        <path d="M174.949 44.785c5.387 1.026 10.547 4.038 15.339 8.953 4.735 4.858 8.946 11.516 12.175 19.255 3.382 8.107 5.639 17.095 6.707 26.718 1.137 10.235.857 20.671-.83 31.019-1.711 10.485-4.745 20.482-9.019 29.714-4.08 8.813-9.088 16.518-14.888 22.899-5.706 6.279-11.831 10.899-18.206 13.733-6.475 2.878-12.869 3.746-19.002 2.577-6.073-1.155-11.569-4.267-16.336-9.246-4.652-4.86-8.474-11.334-11.359-19.24-2.897-7.939-4.717-16.946-5.408-26.772-.711-10.117-.191-20.648 1.547-31.305 1.72-10.549 4.649-20.521 8.703-29.64 3.891-8.75 8.652-16.356 14.151-22.607 5.423-6.164 11.292-10.702 17.442-13.483 6.259-2.832 12.553-3.715 18.706-2.625l.277.051h.001zm.65-3.98c-.105-.02-.208-.039-.313-.057-27.489-4.868-57.245 27.113-64.556 71.941s8.413 85.723 35.847 90.944c27.433 5.222 57.747-27.448 65.058-72.277 7.279-44.637-11.688-85.914-36.035-90.55h-.001z" fill="#FAEAB1"/>
        <path d="M193.928 86.837c1.036-4.146-2.23-8.53-7.294-9.79-5.065-1.26-10.01 1.08-11.045 5.226-1.036 4.146 2.23 8.53 7.294 9.79 5.064 1.26 10.009-1.08 11.045-5.226zM184.258 65.201c.811-3.66-2.661-7.538-7.755-8.662-5.095-1.125-9.882.93-10.692 4.59-.811 3.66 2.661 7.538 7.755 8.663 5.095 1.124 9.882-.931 10.692-4.59z" fill="#B47A34"/>
        <path d="m122.578 174.346-60.747-10.708c-5.071-.903-7.102-5.576-6.237-11.217l14.41-94.123c.849-5.54 5.514-9.362 10.515-8.615l61.967 8.634c5.281.788 8.843 6.336 7.807 12.158l-17.013 95.567c-.98 5.507-5.726 9.19-10.702 8.304z" fill="#C58940"/>
        <path d="M61.492 160.274c-3.837-.683-6.42-4.759-5.758-9.087l14.05-91.764c.656-4.29 4.164-7.207 7.984-6.637l59.462 8.235c.061.008.121.019.18.03 1.891.337 3.532 1.495 4.618 3.26 1.086 1.766 1.477 3.909 1.099 6.035l-16.554 93.178c-.758 4.265-4.326 7.075-8.125 6.399l-56.957-9.649h.001z" fill="#E5BA73"/>
        <mask id="vdjvrf56gb" style="mask-type:luminance" maskUnits="userSpaceOnUse" x="58" y="55" width="83" height="113">
            <path d="M119.577 167.37c2.209 0 4.138-1.828 4.585-4.347l16.554-93.177c.256-1.44-.004-2.884-.732-4.066-.706-1.147-1.762-1.897-2.973-2.112a3.206 3.206 0 0 0-.115-.02l-59.442-8.232a4.36 4.36 0 0 0-.64-.049c-2.273 0-4.211 1.888-4.61 4.489L58.155 151.62c-.216 1.415.066 2.828.795 3.978.706 1.115 1.75 1.847 2.938 2.058l56.938 9.645c.261.047.506.068.748.068l.003.001z" fill="#fff"/>
        </mask>
        <g mask="url(#vdjvrf56gb)">
            <g opacity=".72">
                <path d="M68.796 60.861c.43-2.36 2.52-3.924 4.717-3.528l17.13 3.086c2.264.409 3.782 2.739 3.374 5.18L89.68 91.483c-.36 2.152-2.268 3.58-4.261 3.19l-22-4.302 5.377-29.51z" fill="#fff"/>
                <path d="M86.076 94.87c-.226 0-.454-.022-.681-.067l-22.128-4.327.022-.127 5.379-29.512c.446-2.449 2.584-4.043 4.87-3.633l17.129 3.087c2.34.421 3.901 2.812 3.479 5.33l-4.337 25.883c-.186 1.115-.802 2.105-1.687 2.717a3.587 3.587 0 0 1-2.046.648zM63.57 90.268l21.874 4.277c.878.17 1.776-.02 2.528-.54.827-.571 1.402-1.499 1.578-2.544l4.337-25.883c.399-2.377-1.067-4.633-3.268-5.03l-17.13-3.086c-2.138-.386-4.145 1.117-4.564 3.422L63.571 90.27l-.001-.001z" fill="#835B2B"/>
            </g>
            <g opacity=".55">
                <path d="M55.105 158.955c-2.224-.481-3.67-2.815-3.232-5.22l2.415-13.251c9.215 1.85 29.267 6.249 39.11 8.42 1.415.312 2.35 1.772 2.125 3.314l-1.526 10.421c-.365 2.495-2.58 4.162-4.873 3.666l-34.018-7.35z" fill="#fff"/>
                <path d="M89.938 166.523c-.28 0-.563-.029-.842-.09l-34.018-7.35c-2.288-.495-3.782-2.904-3.334-5.372l2.439-13.382.131.026c9.057 1.818 28.392 6.056 39.112 8.421 1.485.328 2.464 1.848 2.227 3.461l-1.526 10.421c-.189 1.289-.882 2.434-1.901 3.139a4.013 4.013 0 0 1-2.287.726h-.001zm-34.805-7.695 34.018 7.35a3.715 3.715 0 0 0 2.925-.596c.96-.664 1.614-1.744 1.792-2.962l1.526-10.421c.216-1.479-.673-2.87-2.024-3.168-10.668-2.353-29.867-6.561-38.976-8.394l-2.39 13.121c-.425 2.33.98 4.604 3.13 5.069l-.001.001z" fill="#835B2B"/>
            </g>
            <g opacity=".55">
                <path d="m102.324 63.053-5.23 31.216c-.241 1.438.643 2.815 1.974 3.076l16.121 3.152a2.302 2.302 0 0 0 1.68-.324l20.729-13.183c.641-.407 1.075-1.106 1.181-1.9l2.254-16.808c.197-1.473-.766-2.83-2.134-3.007l-33.874-4.38c-1.287-.166-2.471.78-2.702 2.157l.001.001z" fill="#fff"/>
                <path d="M115.626 100.67c-.154 0-.308-.015-.461-.046l-16.12-3.152c-1.4-.274-2.332-1.72-2.079-3.226l5.23-31.214c.243-1.445 1.496-2.436 2.848-2.265l33.874 4.38c.66.085 1.257.435 1.68.986.463.602.67 1.393.566 2.168l-2.253 16.807c-.112.838-.565 1.564-1.242 1.994l-20.729 13.183c-.4.254-.853.386-1.313.386l-.001-.001zm-10.891-39.662c-1.105 0-2.079.86-2.281 2.066l-5.23 31.214c-.229 1.366.61 2.68 1.87 2.926l16.121 3.152a2.169 2.169 0 0 0 1.584-.306l20.73-13.183c.611-.388 1.02-1.047 1.122-1.808l2.253-16.808a2.677 2.677 0 0 0-.514-1.974 2.265 2.265 0 0 0-1.507-.886l-33.873-4.379a2.145 2.145 0 0 0-.275-.018v.004z" fill="#835B2B"/>
            </g>
            <g opacity=".55">
                <path d="m140.133 95.941-22.082 12.067a1.673 1.673 0 0 1-1.181.166l-15.084-3.447c-1.484-.34-2.664 1.339-1.963 2.792l8.419 17.465c.184.381.244.819.174 1.242l-2.62 15.632c-.176 1.053.472 2.062 1.447 2.253l21.259 4.158c.951.185 1.869-.477 2.073-1.498l10.156-50.634-.599-.196h.001z" fill="#fff"/>
                <path d="M128.83 148.431c-.116 0-.234-.011-.352-.035l-21.259-4.157c-1.043-.204-1.738-1.282-1.551-2.403l2.62-15.633a1.95 1.95 0 0 0-.163-1.163l-8.42-17.465a2.16 2.16 0 0 1 .251-2.304c.464-.58 1.159-.832 1.86-.673l15.084 3.448c.367.084.754.028 1.089-.154l22.082-12.066.125.229-22.081 12.066a1.821 1.821 0 0 1-1.274.18l-15.084-3.448c-.599-.137-1.196.081-1.596.582a1.9 1.9 0 0 0-.22 2.027l8.419 17.465c.194.403.26.872.185 1.319l-2.62 15.633c-.165.982.438 1.926 1.343 2.103l21.259 4.158c.886.174 1.728-.44 1.92-1.395l10.156-50.634.257.05-10.156 50.635c-.195.972-.983 1.635-1.875 1.635h.001z" fill="#835B2B"/>
            </g>
            <g opacity=".55">
                <path d="M127.372 153.938c-5.3-.896-16.329-2.639-21.264-3.416-1.421-.224-2.773.726-3.162 2.219l-3.82 14.646c-.495 1.898.762 3.803 2.584 3.918l22.631 1.433c1.416.09 2.679-.956 2.966-2.457l2.421-12.671c.329-1.727-.743-3.401-2.355-3.673l-.001.001z" fill="#fff"/>
                <path d="M124.506 172.874a2 2 0 0 1-.173-.006l-22.632-1.433c-.857-.055-1.652-.503-2.18-1.231a3.377 3.377 0 0 1-.52-2.85l3.818-14.647c.405-1.552 1.828-2.547 3.309-2.313 4.612.725 15.917 2.511 21.266 3.415.774.131 1.458.574 1.927 1.247.513.738.709 1.678.536 2.579l-2.421 12.671c-.285 1.492-1.528 2.568-2.929 2.568h-.001zm-18.809-22.254c-1.201 0-2.29.869-2.625 2.152l-3.819 14.646c-.24.92-.064 1.88.481 2.632.481.664 1.204 1.073 1.984 1.123l22.632 1.433c1.335.085 2.556-.926 2.828-2.352l2.421-12.67a3.15 3.15 0 0 0-.494-2.381c-.429-.616-1.052-1.02-1.755-1.139-5.348-.904-16.651-2.69-21.263-3.415a2.438 2.438 0 0 0-.389-.031l-.001.002z" fill="#835B2B"/>
            </g>
            <g opacity=".55">
                <path d="m97.499 138.921 1.383-9.441a8.153 8.153 0 0 0-.668-4.617l-9.774-20.926-.006-.013c-.41-.886-1.152-1.538-2.05-1.739-5.58-1.247-14.64-3.273-21.259-4.749-1.593-.355-3.148.762-3.462 2.487l-5.112 28.054c-.3 1.642.638 3.252 2.137 3.671l35.188 9.841c1.672.468 3.354-.723 3.624-2.567l-.001-.001zm-14.257-12.429-17.866-4.579c-1.234-.315-2.023-1.62-1.798-2.968l1.669-9.958c.235-1.401 1.476-2.331 2.774-2.078l11.196 2.19c.782.152 1.443.717 1.762 1.503l5 12.348c.79 1.949-.822 4.033-2.737 3.542z" fill="#fff"/>
                <path d="M94.614 141.72a2.88 2.88 0 0 1-.776-.107l-35.188-9.841c-1.562-.437-2.542-2.116-2.232-3.82l5.112-28.054c.164-.9.675-1.692 1.4-2.172a2.867 2.867 0 0 1 2.221-.42l21.26 4.749c.921.206 1.702.866 2.14 1.812l9.78 20.939a8.232 8.232 0 0 1 .679 4.691l-1.384 9.44c-.14.963-.667 1.805-1.443 2.308a2.874 2.874 0 0 1-1.57.473v.002zM64.528 97.5c-.51 0-1.01.15-1.452.444-.667.44-1.135 1.17-1.287 2l-5.112 28.054c-.286 1.574.611 3.121 2.045 3.523l35.188 9.841c.729.203 1.486.085 2.133-.334.712-.462 1.197-1.238 1.327-2.126l1.383-9.441a7.97 7.97 0 0 0-.658-4.543l-9.775-20.926c-.41-.884-1.124-1.492-1.965-1.68l-21.26-4.748a2.606 2.606 0 0 0-.565-.063l-.002-.001zm19.277 29.194c-.197 0-.397-.025-.597-.077l-17.866-4.579c-1.3-.333-2.131-1.702-1.894-3.116l1.669-9.958c.124-.737.531-1.394 1.117-1.799a2.368 2.368 0 0 1 1.81-.386l11.197 2.19c.827.162 1.522.753 1.858 1.583L86.1 122.9a2.83 2.83 0 0 1-.48 2.944c-.483.552-1.133.85-1.815.85zm-16.213-19.697a2.12 2.12 0 0 0-1.209.384 2.476 2.476 0 0 0-1.008 1.627l-1.669 9.958c-.215 1.282.532 2.521 1.7 2.82l17.867 4.579c.789.201 1.592-.056 2.15-.692.64-.73.806-1.755.433-2.675l-5.001-12.347c-.303-.747-.925-1.279-1.665-1.425l-11.197-2.189a2.109 2.109 0 0 0-.402-.04h.001z" fill="#835B2B"/>
            </g>
            <path d="M117.342 105.533a2.36 2.36 0 0 1-.441-.042l-21.807-4.327a1.361 1.361 0 0 1-.197-.055l-1.884-.691a1.309 1.309 0 0 1-.85-1.366l2.14-19.998-.09-1.28-13.668-3.032a1.307 1.307 0 1 1 .568-2.552l14.623 3.245c.566.125.982.608 1.023 1.185l.165 2.367c.006.077.004.154-.004.23l-2.044 19.099.829.303 21.562 4.279 24.599-15.892a1.308 1.308 0 1 1 1.424 2.196l-24.716 15.967c-.374.242-.8.366-1.233.366l.001-.002z" fill="#fff"/>
        </g>
        <path d="M84.169 76.798a4.706 4.706 0 0 0 0-6.665 4.728 4.728 0 0 0-6.677 0 4.706 4.706 0 0 0 0 6.665 4.728 4.728 0 0 0 6.677 0z" fill="#835B2B"/>
        <path d="M57.033 21.427c0 8.964 13.528 31.833 20.574 43.114.547.876 1.725 1.407 3.906 1.407 1.033 0 .626-.534 1.173-1.41 7.046-11.28 20.573-34.148 20.573-43.11 0-11.69-10.348-21.165-23.113-21.165-12.765 0-23.113 9.476-23.113 21.164z" fill="#E5BA73"/>
        <path d="M58.4 21.427c0 8.964 13.527 31.833 20.574 43.114a2.994 2.994 0 0 0 5.08-.002c7.046-11.282 20.572-34.149 20.572-43.112C104.626 9.74 94.278.263 81.514.263 68.749.263 58.4 9.74 58.4 21.427H58.4z" fill="#835B2B"/>
        <path opacity=".36" d="M90.923 32.356c5.51-5.498 5.51-14.413 0-19.91-5.509-5.5-14.44-5.5-19.95 0-5.508 5.498-5.508 14.412 0 19.91 5.51 5.499 14.441 5.499 19.95 0z" fill="#E5BA73"/>
        <path opacity=".36" d="M82.317 31.253c5.664 0 10.256-4.583 10.256-10.237 0-5.653-4.592-10.236-10.256-10.236-5.664 0-10.256 4.583-10.256 10.236 0 5.654 4.592 10.237 10.256 10.237z" fill="#E5BA73"/>
        <path d="M81.513 40.474c-9.574 0-17.363-7.774-17.363-17.33 0-9.554 7.79-17.328 17.362-17.328 5.536 0 10.612 2.543 13.927 6.977a.524.524 0 1 1-.84.627c-3.115-4.168-7.885-6.558-13.087-6.558-8.995 0-16.314 7.304-16.314 16.283 0 8.978 7.319 16.283 16.315 16.283 8.995 0 16.314-7.305 16.314-16.283a.524.524 0 0 1 1.048 0c0 9.556-7.79 17.33-17.362 17.33z" fill="#E5BA73"/>
        <path d="M75.318 91.614c.112.355-1.183.894-1.944-.557-.026-.694-.45-3.672-.035-4.238 2.216-3.017 6.513-6.796 6.513-6.796.726.714.128 1.417.128 1.417l-2.084 2.167c.436.786.968 1.45 1.217 2.402.189.72.073 1.49-.29 2.145-.367.658-.866 1.513-1.337 2.183-.893 1.266-2.168 1.275-2.168 1.275v.002z" fill="url(#rvo0j6ew2c)"/>
        <path d="m76.984 85.014-1.899 1.607-.596 1.6 1.693 1.875s.57-3.175.993-3.862c.424-.688.204-1.02-.19-1.22z" fill="url(#hab4boic9d)"/>
        <path d="M38.007 209.972s-.48 2.711-.715 5.395a1.85 1.85 0 0 0 1.772 2.004c3.581.149 11.242.438 13.991.316a.602.602 0 0 0 .53-.825 1.348 1.348 0 0 0-.69-.725l-12.654-5.805-2.234-.361v.001z" fill="url(#lker4odree)"/>
        <path d="m37.614 208.379.386 3.244s2.216 1.031 3.73-.13l-.918-3.614-3.198.5z" fill="url(#ndw82rdpbf)"/>
        <path d="M37.903 147.405c-.167.847-.894 42.266 3.543 60.827a.629.629 0 0 1-.37.732c-.68.278-2.015.679-3.613.733a1.087 1.087 0 0 1-1.08-.779c-1.267-4.307-7.343-25.883-8.136-46.495-.885-23.03 0-.784 0-.784l.52-14.236h9.136v.002z" fill="#835B2B"/>
        <path d="M23.45 211.387s-.763 1.369-1.503 5.006a1.129 1.129 0 0 0 .994 1.351c1.183.115 3.003.266 4.461.255a1.126 1.126 0 0 0 1.116-1.255c-.16-1.328-.664-3.505-2.218-5.203l-2.85-.154z" fill="url(#wy9zkyc2og)"/>
        <path d="m22.78 207.216.9 4.904s.891.661 2.654.182l-.43-5.277-3.123.191h-.001z" fill="url(#6pi8alu6rh)"/>
        <path d="M20.346 148.676c-3.628 21.852.787 54.01 2.276 60.305.091.385.402.68.794.746.665.109 1.76.2 2.837-.113a.901.901 0 0 0 .648-.828c.2-5.089-.16-36.328 3.22-48.674a2.808 2.808 0 0 1 1.084-1.547l6.56-4.656.503-7.525-17.923 2.292h.001z" fill="#835B2B"/>
        <path d="M43.464 107.269c-10.872-.179-22.868 2.85-22.868 2.85-3.24 18.873-.567 40.643-.567 40.643 8.416 2.203 17.911-1.347 17.911-1.347 1.399-7.889 7.926-30.09 7.926-30.09 5.313-.658 9.688-2.188 13.291-4.21-2.748-3.181-4.044-7.226-4.606-9.618-3.845 1.192-7.735 1.829-11.087 1.773v-.001z" fill="#C58940"/>
        <path d="M75.577 91.286c-1.068-1.288-2.247-.71-2.247-.71-1.6 6.745-10.161 12.246-18.78 14.919.564 2.392 1.859 6.439 4.608 9.619 14.303-8.027 16.419-23.83 16.419-23.83v.002z" fill="url(#ozol6l9k9i)"/>
        <path d="m24.766 120.625-4.17-10.506S10.44 117.005 8.77 125.737c1.92.141 5.41.64 8.829 2.361.75-4.123 7.167-7.473 7.167-7.473z" fill="#C58940"/>
        <path d="m32.451 98.46-3.459 9.985a.359.359 0 0 0 .165.433c.943.521 4.34 2.024 8.435-.565.426-.271.717-.71.781-1.211l1.121-8.642h-7.043z" fill="url(#a3imj7v2vj)"/>
        <path d="M39.977 89.213s3.8 7.137 3.313 10.02c-.487 2.883-5.195 2.675-9.306.335L31.11 91.86l8.866-2.648z" fill="url(#3sozzue49k)"/>
        <path d="M34.165 95.783a.293.293 0 0 0 .129-.43c-.304-.465-.875-1.41-1.058-2.24 0 0-.682-.437 1.738-1.015 2.42-.579 6.031-1.475 6.79-3.533.74-2.005-1.204-7.049-4.305-3.03a.295.295 0 0 1-.467.003c-.508-.66-1.845-2.03-3.7-1.2-1.737.777-1.933 2.047-1.91 2.688a.292.292 0 0 1-.347.3c-.878-.168-2.985-.312-3.968 1.846-.81 1.777-.284 2.782.196 3.274a.293.293 0 0 1-.126.487c-.576.177-1.322.665-1.247 2.015.103 1.865 2.193 1.701 2.788 1.617a.293.293 0 0 1 .262.091c.51.564 2.808 2.956 5.295 3.245a.297.297 0 0 0 .312-.392l-1.077-3.123a.294.294 0 0 1 .16-.366l.534-.236v-.001z" fill="#835B2B"/>
        <path d="M34.598 96.226s-2.704-1.852-2.902-.292c-.199 1.56 2.436 2.26 3.739 1.678l-.838-1.386h.001z" fill="url(#d3h769f9wl)"/>
        <path d="M17.599 128.098s-3.55 15.982-.334 24.968c-3.942 1.824-3.213 1.481-3.213 1.481s-7.798-22.74-5.28-28.81c4.963-.525 7.424.805 8.828 2.361h-.001z" fill="url(#f64dim6cwm)"/>
        <path d="M17.264 153.066s2.032 2.624 1.87 3.669a27.89 27.89 0 0 0-.202 1.471s-1.02-.697-.956-1.587c.142 2.826 1.09 6.039.228 5.884-.862-.155-5.321-4.258-4.314-8.632 2.288-1.587 2.93-1.414 3.374-.804v-.001z" fill="url(#5ujcru88fn)"/>
    </g>
    <defs>
        <linearGradient id="rvo0j6ew2c" x1="87.743" y1="77.326" x2="112.665" y2="55.5" gradientUnits="userSpaceOnUse">
            <stop stop-color="#fff"/>
            <stop offset="1" stop-color="#EFEFF4"/>
        </linearGradient>
        <linearGradient id="hab4boic9d" x1="75.405" y1="88.955" x2="76.849" y2="85.169" gradientUnits="userSpaceOnUse">
            <stop stop-color="#fff"/>
            <stop offset="1" stop-color="#EFEFF4"/>
        </linearGradient>
        <linearGradient id="lker4odree" x1="45.457" y1="209.971" x2="45.457" y2="217.716" gradientUnits="userSpaceOnUse">
            <stop stop-color="#C58940"/>
            <stop offset="1" stop-color="#9C631D"/>
        </linearGradient>
        <linearGradient id="ndw82rdpbf" x1="39.672" y1="204.713" x2="39.672" y2="206.373" gradientUnits="userSpaceOnUse">
            <stop stop-color="#fff"/>
            <stop offset="1" stop-color="#EFEFF4"/>
        </linearGradient>
        <linearGradient id="wy9zkyc2og" x1="25.225" y1="211.387" x2="25.225" y2="217.999" gradientUnits="userSpaceOnUse">
            <stop stop-color="#C58940"/>
            <stop offset="1" stop-color="#9C631D"/>
        </linearGradient>
        <linearGradient id="6pi8alu6rh" x1="23.595" y1="203.996" x2="24.424" y2="207.871" gradientUnits="userSpaceOnUse">
            <stop stop-color="#fff"/>
            <stop offset="1" stop-color="#EFEFF4"/>
        </linearGradient>
        <linearGradient id="ozol6l9k9i" x1="90.954" y1="80.994" x2="115.877" y2="59.168" gradientUnits="userSpaceOnUse">
            <stop stop-color="#fff"/>
            <stop offset="1" stop-color="#EFEFF4"/>
        </linearGradient>
        <linearGradient id="a3imj7v2vj" x1="31.692" y1="117.096" x2="37.035" y2="91.991" gradientUnits="userSpaceOnUse">
            <stop stop-color="#fff"/>
            <stop offset="1" stop-color="#EFEFF4"/>
        </linearGradient>
        <linearGradient id="3sozzue49k" x1="33.475" y1="85.501" x2="28.038" y2="72.113" gradientUnits="userSpaceOnUse">
            <stop stop-color="#fff"/>
            <stop offset="1" stop-color="#EFEFF4"/>
        </linearGradient>
        <linearGradient id="d3h769f9wl" x1="29.535" y1="87.101" x2="24.099" y2="73.713" gradientUnits="userSpaceOnUse">
            <stop stop-color="#fff"/>
            <stop offset="1" stop-color="#EFEFF4"/>
        </linearGradient>
        <linearGradient id="f64dim6cwm" x1="8.881" y1="136.125" x2="-21.958" y2="113.183" gradientUnits="userSpaceOnUse">
            <stop stop-color="#fff"/>
            <stop offset="1" stop-color="#EFEFF4"/>
        </linearGradient>
        <linearGradient id="5ujcru88fn" x1="1.63" y1="145.871" x2="-29.208" y2="122.928" gradientUnits="userSpaceOnUse">
            <stop stop-color="#fff"/>
            <stop offset="1" stop-color="#EFEFF4"/>
        </linearGradient>
        <clipPath id="4o8r9pbxua">
            <path fill="#fff" d="M0 0h217v218H0z"/>
        </clipPath>
    </defs>
</svg>
